<svg width="24" height="24" viewBox="0 0 24 24" fill="none" xmlns="http://www.w3.org/2000/svg">
<path d="M12 0C18.6274 0 24 5.37258 24 12C24 18.6274 18.6274 24 12 24C5.37258 24 0 18.6274 0 12C0 5.37258 5.37258 0 12 0ZM11.6914 15.7148C11.3369 15.7149 11.0324 15.8276 10.7773 16.0527C10.5221 16.2742 10.3945 16.5414 10.3945 16.8545C10.3946 17.1714 10.5222 17.4427 10.7773 17.668C11.0324 17.8892 11.337 17.9999 11.6914 18C11.9293 18 12.1462 17.9488 12.3408 17.8457C12.5355 17.7426 12.6908 17.6045 12.8076 17.4326C12.9287 17.257 12.9892 17.0644 12.9893 16.8545C12.9893 16.5415 12.8599 16.2742 12.6006 16.0527C12.3454 15.8274 12.0418 15.7148 11.6914 15.7148ZM12.0225 6C11.2961 6.00003 10.6323 6.12198 10.0312 6.36621C9.4344 6.61058 8.95415 6.97197 8.59082 7.44922C8.22748 7.92272 8.03028 8.50309 8 9.19043H9.97266C10.0029 8.78567 10.1174 8.45506 10.3164 8.19922C10.5153 7.93968 10.7666 7.74911 11.0693 7.62695C11.372 7.50486 11.6896 7.44339 12.0225 7.44336C12.39 7.44336 12.7231 7.51207 13.0215 7.64941C13.3243 7.78307 13.5674 7.97445 13.749 8.22266C13.9305 8.47078 14.0215 8.76482 14.0215 9.10449C14.0215 9.38704 13.9609 9.64501 13.8398 9.87793C13.7188 10.1107 13.5541 10.3167 13.3467 10.4961C13.1391 10.6756 12.905 10.8383 12.6455 10.9834C12.2434 11.1972 11.8997 11.4338 11.6143 11.6934C11.3288 11.953 11.1079 12.2929 10.9521 12.7129C10.8008 13.1329 10.7206 13.6981 10.7119 14.4082V14.5176H12.5674V14.4082C12.5761 13.9692 12.6325 13.6005 12.7363 13.3027C12.8401 13.0051 13.0048 12.7478 13.2295 12.5303C13.4587 12.3126 13.7573 12.1018 14.125 11.8994C14.5142 11.6932 14.8472 11.4567 15.124 11.1895C15.4052 10.9221 15.6211 10.6182 15.7725 10.2783C15.9238 9.93479 16 9.54953 16 9.12207C16 8.49964 15.8331 7.95513 15.5 7.48926C15.1713 7.01977 14.7089 6.65513 14.1123 6.39551C13.5154 6.13202 12.8184 6 12.0225 6Z" fill="#B3B7B9"/>
</svg>
