<svg width="17" height="16" viewBox="0 0 17 16" fill="none" xmlns="http://www.w3.org/2000/svg">
<path d="M14.6933 14.1667H14.026V10C14.026 6.68667 11.337 4 8.02069 4C4.70442 4 2.01536 6.68667 2.01536 10V14.1667H1.3481C1.07452 14.1667 0.847656 14.3933 0.847656 14.6667C0.847656 14.94 1.07452 15.1667 1.3481 15.1667H14.6933C14.9669 15.1667 15.1937 14.94 15.1937 14.6667C15.1937 14.3933 14.9669 14.1667 14.6933 14.1667Z" fill="#D12020"/>
<path d="M8.02002 2.50004C7.74669 2.50004 7.52002 2.27337 7.52002 2.00004V1.33337C7.52002 1.06004 7.74669 0.833374 8.02002 0.833374C8.29335 0.833374 8.52002 1.06004 8.52002 1.33337V2.00004C8.52002 2.27337 8.29335 2.50004 8.02002 2.50004Z" fill="#D12020"/>
<path d="M3.34963 3.83333C3.22285 3.83333 3.09607 3.78667 2.99598 3.68667L2.32872 3.02C2.13522 2.82667 2.13522 2.50667 2.32872 2.31333C2.52223 2.12 2.84251 2.12 3.03602 2.31333L3.70328 2.98C3.89678 3.17333 3.89678 3.49334 3.70328 3.68667C3.60319 3.78667 3.47641 3.83333 3.34963 3.83333Z" fill="#D12020"/>
<path d="M12.6912 3.83333C12.5644 3.83333 12.4376 3.78667 12.3375 3.68667C12.144 3.49334 12.144 3.17333 12.3375 2.98L13.0048 2.31333C13.1983 2.12 13.5186 2.12 13.7121 2.31333C13.9056 2.50667 13.9056 2.82667 13.7121 3.02L13.0448 3.68667C12.9447 3.78667 12.8179 3.83333 12.6912 3.83333Z" fill="#D12020"/>
</svg>
