<svg width="13" height="13" viewBox="0 0 13 13" fill="none" xmlns="http://www.w3.org/2000/svg">
<path d="M9.54677 5.82291C9.31385 5.82291 9.12969 5.63332 9.12969 5.40582C9.12969 5.20541 8.92927 4.78833 8.59344 4.42541C8.26302 4.07333 7.9001 3.86749 7.59677 3.86749C7.36385 3.86749 7.17969 3.67791 7.17969 3.45041C7.17969 3.22291 7.36927 3.03333 7.59677 3.03333C8.13844 3.03333 8.70719 3.32583 9.20552 3.85124C9.67135 4.34416 9.96927 4.95624 9.96927 5.40041C9.96927 5.63333 9.77969 5.82291 9.54677 5.82291Z" fill="#8E8E93"/>
<path d="M11.5007 5.8229C11.2678 5.8229 11.0836 5.63331 11.0836 5.40581C11.0836 3.4829 9.51818 1.9229 7.60068 1.9229C7.36776 1.9229 7.18359 1.73331 7.18359 1.50581C7.18359 1.27831 7.36776 1.08331 7.59526 1.08331C9.97859 1.08331 11.9178 3.02248 11.9178 5.40581C11.9178 5.63331 11.7282 5.8229 11.5007 5.8229Z" fill="#8E8E93"/>
<path d="M5.98802 8.0979L4.98594 9.09998C4.77469 9.31123 4.43885 9.31123 4.22219 9.1054C4.1626 9.04581 4.10302 8.99165 4.04344 8.93206C3.48552 8.36873 2.98177 7.77831 2.53219 7.16081C2.08802 6.54331 1.73052 5.92581 1.47052 5.31373C1.21594 4.69623 1.08594 4.10581 1.08594 3.54248C1.08594 3.17415 1.15094 2.82206 1.28094 2.49706C1.41094 2.16665 1.61677 1.86331 1.90385 1.59248C2.25052 1.25123 2.62969 1.08331 3.03052 1.08331C3.18219 1.08331 3.33385 1.11581 3.46927 1.18081C3.6101 1.24581 3.73469 1.34331 3.83219 1.48415L5.08885 3.2554C5.18635 3.39081 5.25677 3.5154 5.30552 3.63456C5.35427 3.74831 5.38135 3.86206 5.38135 3.96498C5.38135 4.09498 5.34344 4.22498 5.2676 4.34956C5.19719 4.47415 5.09427 4.60415 4.96427 4.73415L4.5526 5.16206C4.49302 5.22165 4.46594 5.29206 4.46594 5.37873C4.46594 5.42206 4.47135 5.45998 4.48219 5.50331C4.49844 5.54665 4.51469 5.57915 4.52552 5.61165C4.62302 5.7904 4.79094 6.02331 5.02927 6.30498C5.27302 6.58665 5.53302 6.87373 5.81469 7.16081C5.86885 7.21498 5.92844 7.26915 5.9826 7.32331C6.19927 7.53456 6.20469 7.88123 5.98802 8.0979Z" fill="#8E8E93"/>
<path d="M11.9035 9.92876C11.9035 10.0804 11.8765 10.2375 11.8223 10.3892C11.806 10.4325 11.7898 10.4758 11.7681 10.5192C11.676 10.7142 11.5569 10.8983 11.3998 11.0717C11.1344 11.3642 10.8419 11.5754 10.5115 11.7108C10.506 11.7108 10.5006 11.7163 10.4952 11.7163C10.1756 11.8463 9.82896 11.9167 9.45521 11.9167C8.90271 11.9167 8.31229 11.7867 7.68937 11.5213C7.06646 11.2558 6.44354 10.8983 5.82604 10.4488C5.61479 10.2917 5.40354 10.1346 5.20312 9.96668L6.97437 8.19543C7.12604 8.30918 7.26146 8.39584 7.37521 8.45543C7.40229 8.46626 7.43479 8.48251 7.47271 8.49876C7.51604 8.51501 7.55937 8.52043 7.60812 8.52043C7.70021 8.52043 7.77062 8.48793 7.83021 8.42834L8.24187 8.02209C8.37729 7.88668 8.50729 7.78376 8.63188 7.71876C8.75646 7.64293 8.88104 7.60501 9.01646 7.60501C9.11937 7.60501 9.22771 7.62668 9.34687 7.67543C9.46604 7.72418 9.59063 7.79459 9.72604 7.88668L11.519 9.15959C11.6598 9.25709 11.7573 9.37084 11.8169 9.50626C11.871 9.64168 11.9035 9.77709 11.9035 9.92876Z" fill="#8E8E93"/>
</svg>
