<svg width="267" height="150" viewBox="0 0 267 150" fill="none" xmlns="http://www.w3.org/2000/svg">
<g clip-path="url(#clip0_176_10287)">
<rect width="267" height="150" fill="url(#paint0_linear_176_10287)"/>
<path opacity="0.4" d="M35 32C35 25.3726 40.3726 20 47 20H220.11C226.737 20 232.11 25.3726 232.11 32V127.981C232.11 134.609 226.737 139.981 220.11 139.981H47C40.3726 139.981 35 134.609 35 127.981V32Z" fill="white"/>
<g filter="url(#filter0_d_176_10287)">
<path d="M20 42C20 35.3726 25.3726 30 32 30H235C241.627 30 247 35.3726 247 42V156C247 162.627 241.627 168 235 168H32C25.3726 168 20 162.627 20 156V42Z" fill="white"/>
</g>
<path opacity="0.4" d="M84.0253 115L76.2256 87.3636H81.6099L86.5893 107.673H86.8457L92.1624 87.3636H97.0609L102.391 107.686H102.634L107.613 87.3636H112.998L105.198 115H100.259L94.7263 95.6087H94.5104L88.9643 115H84.0253ZM138.539 101.182C138.539 104.16 137.982 106.71 136.866 108.833C135.759 110.947 134.248 112.567 132.332 113.691C130.425 114.816 128.261 115.378 125.841 115.378C123.421 115.378 121.253 114.816 119.337 113.691C117.43 112.558 115.918 110.934 114.803 108.82C113.696 106.696 113.143 104.151 113.143 101.182C113.143 98.2041 113.696 95.6581 114.803 93.544C115.918 91.4209 117.43 89.7971 119.337 88.6726C121.253 87.5481 123.421 86.9858 125.841 86.9858C128.261 86.9858 130.425 87.5481 132.332 88.6726C134.248 89.7971 135.759 91.4209 136.866 93.544C137.982 95.6581 138.539 98.2041 138.539 101.182ZM133.506 101.182C133.506 99.0857 133.178 97.3179 132.521 95.8785C131.873 94.4302 130.973 93.3371 129.822 92.5994C128.67 91.8527 127.343 91.4794 125.841 91.4794C124.339 91.4794 123.012 91.8527 121.86 92.5994C120.709 93.3371 119.805 94.4302 119.148 95.8785C118.5 97.3179 118.176 99.0857 118.176 101.182C118.176 103.278 118.5 105.05 119.148 106.499C119.805 107.938 120.709 109.031 121.86 109.778C123.012 110.515 124.339 110.884 125.841 110.884C127.343 110.884 128.67 110.515 129.822 109.778C130.973 109.031 131.873 107.938 132.521 106.499C133.178 105.05 133.506 103.278 133.506 101.182ZM142.132 115V87.3636H152.496C154.619 87.3636 156.4 87.7325 157.84 88.4702C159.288 89.2079 160.381 90.2424 161.119 91.5739C161.866 92.8963 162.239 94.4392 162.239 96.2024C162.239 97.9747 161.861 99.513 161.105 100.817C160.359 102.113 159.257 103.116 157.799 103.827C156.342 104.528 154.552 104.879 152.429 104.879H145.047V100.723H151.754C152.995 100.723 154.012 100.552 154.804 100.21C155.595 99.8594 156.18 99.3511 156.558 98.6854C156.945 98.0107 157.138 97.183 157.138 96.2024C157.138 95.2218 156.945 94.3852 156.558 93.6925C156.171 92.9908 155.582 92.46 154.79 92.1001C153.998 91.7313 152.977 91.5469 151.727 91.5469H147.139V115H142.132ZM156.409 102.477L163.251 115H157.664L150.944 102.477H156.409ZM175.072 115H165.707V87.3636H175.261C178.005 87.3636 180.362 87.9169 182.332 89.0234C184.311 90.121 185.832 91.6998 186.893 93.7599C187.955 95.8201 188.486 98.285 188.486 101.155C188.486 104.034 187.95 106.508 186.88 108.577C185.818 110.646 184.284 112.234 182.278 113.34C180.281 114.447 177.879 115 175.072 115ZM170.714 110.668H174.829C176.755 110.668 178.36 110.317 179.647 109.616C180.933 108.905 181.9 107.848 182.548 106.445C183.196 105.032 183.52 103.269 183.52 101.155C183.52 99.0407 183.196 97.2865 182.548 95.892C181.9 94.4886 180.942 93.4406 179.674 92.7479C178.414 92.0462 176.849 91.6953 174.978 91.6953H170.714V110.668Z" fill="#EEEEEF"/>
<rect x="30.5" y="40.5" width="206" height="127" rx="7.5" stroke="#EEEEEF"/>
<rect x="35" y="45" width="197" height="18" rx="3" fill="#EEEEEF"/>
<rect x="210" y="142" width="22" height="4" rx="2" fill="#EEEEEF"/>
<rect x="35" y="142" width="62" height="4" rx="2" fill="#EEEEEF"/>
</g>
<defs>
<filter id="filter0_d_176_10287" x="8" y="18" width="251" height="162" filterUnits="userSpaceOnUse" color-interpolation-filters="sRGB">
<feFlood flood-opacity="0" result="BackgroundImageFix"/>
<feColorMatrix in="SourceAlpha" type="matrix" values="0 0 0 0 0 0 0 0 0 0 0 0 0 0 0 0 0 0 127 0" result="hardAlpha"/>
<feOffset/>
<feGaussianBlur stdDeviation="6"/>
<feComposite in2="hardAlpha" operator="out"/>
<feColorMatrix type="matrix" values="0 0 0 0 0 0 0 0 0 0 0 0 0 0 0 0 0 0 0.2 0"/>
<feBlend mode="normal" in2="BackgroundImageFix" result="effect1_dropShadow_176_10287"/>
<feBlend mode="normal" in="SourceGraphic" in2="effect1_dropShadow_176_10287" result="shape"/>
</filter>
<linearGradient id="paint0_linear_176_10287" x1="6.50001" y1="150" x2="228" y2="14.5" gradientUnits="userSpaceOnUse">
<stop stop-color="#FF9364"/>
<stop offset="1" stop-color="#FED6C3"/>
</linearGradient>
<clipPath id="clip0_176_10287">
<rect width="267" height="150" fill="white"/>
</clipPath>
</defs>
</svg>
