<svg width="24" height="24" viewBox="0 0 24 24" fill="none" xmlns="http://www.w3.org/2000/svg">
<rect opacity="0.1" width="24" height="24" rx="12" fill="#FF0D0D"/>
<path d="M14.2046 8.72506L14.1754 10.3042C14.1713 10.5209 14.3088 10.8084 14.4838 10.9376L15.5171 11.7209C16.1796 12.2209 16.0713 12.8334 15.2796 13.0834L13.9338 13.5042C13.7088 13.5751 13.4713 13.8209 13.4129 14.0501L13.0921 15.2751C12.8379 16.2417 12.2046 16.3376 11.6796 15.4876L10.9463 14.3001C10.8129 14.0834 10.4963 13.9209 10.2463 13.9334L8.8546 14.0042C7.85877 14.0542 7.57544 13.4792 8.22544 12.7209L9.05044 11.7626C9.2046 11.5834 9.27544 11.2501 9.2046 11.0251L8.7796 9.67506C8.53377 8.88339 8.97544 8.44589 9.76294 8.70423L10.9921 9.10839C11.2004 9.17506 11.5129 9.12923 11.6879 9.00006L12.9713 8.07506C13.6671 7.57923 14.2213 7.87089 14.2046 8.72506Z" fill="#FF0D0D"/>
<path d="M15.9335 15.5291L14.671 14.2667C14.5501 14.1458 14.3501 14.1458 14.2293 14.2667C14.1085 14.3875 14.1085 14.5875 14.2293 14.7083L15.4918 15.9708C15.5543 16.0333 15.6335 16.0625 15.7126 16.0625C15.7918 16.0625 15.871 16.0333 15.9335 15.9708C16.0543 15.85 16.0543 15.65 15.9335 15.5291Z" fill="#FF0D0D"/>
</svg>
