<svg width="159" height="40" viewBox="0 0 159 40" fill="none" xmlns="http://www.w3.org/2000/svg">
<rect width="159" height="40" rx="20" fill="#3FDD78" fill-opacity="0.03"/>
<rect x="0.5" y="0.5" width="158" height="39" rx="19.5" stroke="#3FDD78" stroke-opacity="0.15"/>
<rect opacity="0.1" x="9" y="8" width="24" height="24" rx="12" fill="#3FDD78"/>
<path d="M42.3224 14.8182H43.8388V18.179C43.8388 18.6463 43.92 19.0159 44.0824 19.2876C44.2448 19.5561 44.4801 19.7467 44.7884 19.8594C45.0999 19.9721 45.4777 20.0284 45.9219 20.0284C46.1572 20.0284 46.3958 20.0201 46.6378 20.0036C46.883 19.9837 47.1267 19.9571 47.3686 19.924C47.6106 19.8875 47.8442 19.8461 48.0696 19.7997C48.2983 19.75 48.5104 19.6953 48.706 19.6357V20.9432C48.5137 21.0062 48.3099 21.0625 48.0945 21.1122C47.8823 21.1586 47.6603 21.2 47.4283 21.2365C47.1963 21.2696 46.9543 21.2962 46.7024 21.3161C46.4505 21.3359 46.1903 21.3459 45.9219 21.3459C45.1795 21.3459 44.5381 21.2398 43.9979 21.0277C43.4609 20.8123 43.0466 20.4725 42.755 20.0085C42.4666 19.5445 42.3224 18.9347 42.3224 18.179V14.8182ZM48.4773 14.8182H49.9986V25H48.4773V14.8182ZM53.2762 22.9169L56.642 17.3636H58.2428V25H56.7861V19.4418L53.4353 25H51.8195V17.3636H53.2762V22.9169ZM58.8743 18.6463V17.3636H65.3175V18.6463H62.8267V25H61.375V18.6463H58.8743ZM68.3366 25.169C67.8527 25.169 67.4152 25.0795 67.0241 24.9006C66.633 24.7183 66.3231 24.4548 66.0944 24.1101C65.869 23.7654 65.7563 23.3428 65.7563 22.8423C65.7563 22.4115 65.8392 22.0568 66.0049 21.7784C66.1706 21.5 66.3944 21.2796 66.6761 21.1172C66.9578 20.9548 67.2727 20.8321 67.6207 20.7493C67.9687 20.6664 68.3233 20.6035 68.6846 20.5604C69.142 20.5073 69.5132 20.4643 69.7982 20.4311C70.0833 20.3946 70.2904 20.3366 70.4197 20.2571C70.5489 20.1776 70.6136 20.0483 70.6136 19.8693V19.8345C70.6136 19.4003 70.4909 19.0639 70.2457 18.8253C70.0037 18.5866 69.6425 18.4673 69.1619 18.4673C68.6614 18.4673 68.267 18.5784 67.9786 18.8004C67.6936 19.0192 67.4964 19.2628 67.387 19.5312L65.99 19.2131C66.1557 18.7491 66.3977 18.3745 66.7159 18.0895C67.0373 17.8011 67.4069 17.5923 67.8245 17.4631C68.2421 17.3305 68.6813 17.2642 69.142 17.2642C69.4469 17.2642 69.7701 17.3007 70.1114 17.3736C70.4561 17.4432 70.7776 17.5724 71.0759 17.7614C71.3775 17.9503 71.6245 18.2204 71.8167 18.5717C72.0089 18.9197 72.1051 19.3722 72.1051 19.929V25H70.6534V23.956H70.5937C70.4976 24.1482 70.3534 24.3371 70.1612 24.5227C69.9689 24.7083 69.722 24.8625 69.4204 24.9851C69.1188 25.1077 68.7575 25.169 68.3366 25.169ZM68.6597 23.9759C69.0707 23.9759 69.4221 23.8946 69.7137 23.7322C70.0087 23.5698 70.2324 23.3577 70.3849 23.0959C70.5407 22.8307 70.6186 22.5473 70.6186 22.2457V21.2614C70.5655 21.3144 70.4628 21.3641 70.3103 21.4105C70.1612 21.4536 69.9905 21.4917 69.7982 21.5249C69.606 21.5547 69.4187 21.5829 69.2364 21.6094C69.0542 21.6326 68.9017 21.6525 68.7791 21.669C68.4907 21.7055 68.2272 21.7668 67.9886 21.853C67.7533 21.9392 67.5643 22.0634 67.4218 22.2259C67.2826 22.3849 67.213 22.5971 67.213 22.8622C67.213 23.2301 67.3489 23.5085 67.6207 23.6974C67.8925 23.883 68.2388 23.9759 68.6597 23.9759ZM72.7179 18.6463V17.3636H79.1611V18.6463H76.6703V25H75.2186V18.6463H72.7179ZM81.432 19.9886H83.6493C84.584 19.9886 85.3032 20.2206 85.807 20.6847C86.3107 21.1487 86.5626 21.7469 86.5626 22.4794C86.5626 22.9567 86.45 23.3859 86.2246 23.767C85.9992 24.1482 85.6694 24.4498 85.2352 24.6719C84.801 24.8906 84.2724 25 83.6493 25H80.3134V17.3636H81.77V23.7173H83.6493C84.0768 23.7173 84.4282 23.6063 84.7033 23.3842C84.9784 23.1589 85.1159 22.8722 85.1159 22.5241C85.1159 22.1562 84.9784 21.8563 84.7033 21.6243C84.4282 21.389 84.0768 21.2713 83.6493 21.2713H81.432V19.9886ZM90.3487 27.2024V23.7124H90.9702C91.1292 23.5665 91.2635 23.3925 91.3729 23.1903C91.4855 22.9882 91.58 22.7479 91.6562 22.4695C91.7358 22.1911 91.8021 21.8662 91.8551 21.495C91.9081 21.1205 91.9545 20.6929 91.9943 20.2124L92.2329 17.3636H97.4233V23.7124H98.5966V27.2024H97.1449V25H91.8203V27.2024H90.3487ZM92.5611 23.7124H95.9716V18.6364H93.5653L93.4062 20.2124C93.33 21.0144 93.2339 21.7105 93.1179 22.3004C93.0019 22.8871 92.8163 23.3577 92.5611 23.7124ZM101.086 22.9169L104.452 17.3636H106.053V25H104.596V19.4418L101.245 25H99.6295V17.3636H101.086V22.9169ZM109.854 25.169C109.37 25.169 108.932 25.0795 108.541 24.9006C108.15 24.7183 107.84 24.4548 107.612 24.1101C107.386 23.7654 107.273 23.3428 107.273 22.8423C107.273 22.4115 107.356 22.0568 107.522 21.7784C107.688 21.5 107.911 21.2796 108.193 21.1172C108.475 20.9548 108.79 20.8321 109.138 20.7493C109.486 20.6664 109.84 20.6035 110.202 20.5604C110.659 20.5073 111.03 20.4643 111.315 20.4311C111.6 20.3946 111.808 20.3366 111.937 20.2571C112.066 20.1776 112.131 20.0483 112.131 19.8693V19.8345C112.131 19.4003 112.008 19.0639 111.763 18.8253C111.521 18.5866 111.16 18.4673 110.679 18.4673C110.179 18.4673 109.784 18.5784 109.496 18.8004C109.211 19.0192 109.014 19.2628 108.904 19.5312L107.507 19.2131C107.673 18.7491 107.915 18.3745 108.233 18.0895C108.554 17.8011 108.924 17.5923 109.342 17.4631C109.759 17.3305 110.198 17.2642 110.659 17.2642C110.964 17.2642 111.287 17.3007 111.629 17.3736C111.973 17.4432 112.295 17.5724 112.593 17.7614C112.895 17.9503 113.142 18.2204 113.334 18.5717C113.526 18.9197 113.622 19.3722 113.622 19.929V25H112.17V23.956H112.111C112.015 24.1482 111.871 24.3371 111.678 24.5227C111.486 24.7083 111.239 24.8625 110.938 24.9851C110.636 25.1077 110.275 25.169 109.854 25.169ZM110.177 23.9759C110.588 23.9759 110.939 23.8946 111.231 23.7322C111.526 23.5698 111.75 23.3577 111.902 23.0959C112.058 22.8307 112.136 22.5473 112.136 22.2457V21.2614C112.083 21.3144 111.98 21.3641 111.827 21.4105C111.678 21.4536 111.508 21.4917 111.315 21.5249C111.123 21.5547 110.936 21.5829 110.754 21.6094C110.571 21.6326 110.419 21.6525 110.296 21.669C110.008 21.7055 109.744 21.7668 109.506 21.853C109.27 21.9392 109.081 22.0634 108.939 22.2259C108.8 22.3849 108.73 22.5971 108.73 22.8622C108.73 23.2301 108.866 23.5085 109.138 23.6974C109.41 23.883 109.756 23.9759 110.177 23.9759ZM114.581 25L114.576 23.7124H114.849C115.061 23.7124 115.238 23.6676 115.381 23.5781C115.527 23.4853 115.646 23.3295 115.739 23.1108C115.832 22.892 115.903 22.5904 115.953 22.206C116.002 21.8182 116.039 21.331 116.062 20.7443L116.196 17.3636H121.526V25H120.069V18.6463H117.573L117.454 21.2415C117.424 21.8712 117.36 22.4214 117.26 22.892C117.164 23.3627 117.023 23.7554 116.838 24.0703C116.652 24.3819 116.413 24.6155 116.122 24.7713C115.83 24.9238 115.475 25 115.058 25H114.581ZM126.305 25.1541C125.589 25.1541 124.964 24.9901 124.431 24.6619C123.897 24.3338 123.483 23.8748 123.188 23.2848C122.893 22.6948 122.745 22.0054 122.745 21.2166C122.745 20.4245 122.893 19.7318 123.188 19.1385C123.483 18.5452 123.897 18.0845 124.431 17.7564C124.964 17.4283 125.589 17.2642 126.305 17.2642C127.021 17.2642 127.646 17.4283 128.179 17.7564C128.713 18.0845 129.127 18.5452 129.422 19.1385C129.717 19.7318 129.865 20.4245 129.865 21.2166C129.865 22.0054 129.717 22.6948 129.422 23.2848C129.127 23.8748 128.713 24.3338 128.179 24.6619C127.646 24.9901 127.021 25.1541 126.305 25.1541ZM126.31 23.9062C126.774 23.9062 127.158 23.7836 127.463 23.5384C127.768 23.2931 127.994 22.9666 128.139 22.5589C128.289 22.1513 128.363 21.7022 128.363 21.2116C128.363 20.7244 128.289 20.277 128.139 19.8693C127.994 19.4583 127.768 19.1286 127.463 18.88C127.158 18.6314 126.774 18.5071 126.31 18.5071C125.843 18.5071 125.455 18.6314 125.147 18.88C124.842 19.1286 124.615 19.4583 124.465 19.8693C124.32 20.277 124.247 20.7244 124.247 21.2116C124.247 21.7022 124.32 22.1513 124.465 22.5589C124.615 22.9666 124.842 23.2931 125.147 23.5384C125.455 23.7836 125.843 23.9062 126.31 23.9062ZM135.986 17.3636V18.6463H132.57V25H131.104V17.3636H135.986ZM138.594 22.9169L141.959 17.3636H143.56V25H142.104V19.4418L138.753 25H137.137V17.3636H138.594V22.9169Z" fill="#070F1A"/>
<path d="M24.75 24.4791H17.25C17.0792 24.4791 16.9375 24.3375 16.9375 24.1666C16.9375 23.9958 17.0792 23.8541 17.25 23.8541H24.75C24.9208 23.8541 25.0625 23.9958 25.0625 24.1666C25.0625 24.3375 24.9208 24.4791 24.75 24.4791Z" fill="#1FB154"/>
<path d="M18.3333 18.4916H17.6667C17.4375 18.4916 17.25 18.6791 17.25 18.9082V22.4999C17.25 22.7291 17.4375 22.9166 17.6667 22.9166H18.3333C18.5625 22.9166 18.75 22.7291 18.75 22.4999V18.9082C18.75 18.6749 18.5625 18.4916 18.3333 18.4916Z" fill="#1FB154"/>
<path d="M21.3333 17.1625H20.6667C20.4375 17.1625 20.25 17.35 20.25 17.5791V22.5C20.25 22.7291 20.4375 22.9166 20.6667 22.9166H21.3333C21.5625 22.9166 21.75 22.7291 21.75 22.5V17.5791C21.75 17.35 21.5625 17.1625 21.3333 17.1625Z" fill="#1FB154"/>
<path d="M24.3324 15.8334H23.6657C23.4365 15.8334 23.249 16.0209 23.249 16.25V22.5C23.249 22.7292 23.4365 22.9167 23.6657 22.9167H24.3324C24.5615 22.9167 24.749 22.7292 24.749 22.5V16.25C24.749 16.0209 24.5615 15.8334 24.3324 15.8334Z" fill="#1FB154"/>
</svg>
