<svg width="112" height="15" viewBox="0 0 112 15" fill="none" xmlns="http://www.w3.org/2000/svg">
<path d="M1.18287 12V4H4.03443C4.65683 4 5.17245 4.11328 5.58131 4.33984C5.99016 4.56641 6.29615 4.8763 6.49928 5.26953C6.7024 5.66016 6.80396 6.10026 6.80396 6.58984C6.80396 7.08203 6.7011 7.52474 6.49537 7.91797C6.29225 8.30859 5.98495 8.61849 5.5735 8.84766C5.16464 9.07422 4.65032 9.1875 4.03053 9.1875H2.06959V8.16406H3.92115C4.31438 8.16406 4.63339 8.09635 4.87818 7.96094C5.12298 7.82292 5.30266 7.63542 5.41725 7.39844C5.53183 7.16146 5.58912 6.89193 5.58912 6.58984C5.58912 6.28776 5.53183 6.01953 5.41725 5.78516C5.30266 5.55078 5.12167 5.36719 4.87428 5.23438C4.62949 5.10156 4.30657 5.03516 3.90553 5.03516H2.3899V12H1.18287ZM9.59764 12.1328C9.21743 12.1328 8.87368 12.0625 8.56639 11.9219C8.2591 11.7786 8.01561 11.5716 7.83592 11.3008C7.65883 11.0299 7.57029 10.6979 7.57029 10.3047C7.57029 9.96615 7.6354 9.6875 7.76561 9.46875C7.89581 9.25 8.0716 9.07682 8.29295 8.94922C8.5143 8.82161 8.7617 8.72526 9.03514 8.66016C9.30857 8.59505 9.58722 8.54557 9.87107 8.51172C10.2304 8.47005 10.5221 8.4362 10.7461 8.41016C10.97 8.38151 11.1328 8.33594 11.2344 8.27344C11.3359 8.21094 11.3867 8.10937 11.3867 7.96875V7.94141C11.3867 7.60026 11.2903 7.33594 11.0976 7.14844C10.9075 6.96094 10.6237 6.86719 10.2461 6.86719C9.85285 6.86719 9.54295 6.95443 9.31639 7.12891C9.09243 7.30078 8.93748 7.49219 8.85154 7.70312L7.75389 7.45312C7.8841 7.08854 8.0742 6.79427 8.3242 6.57031C8.5768 6.34375 8.86717 6.17969 9.19529 6.07812C9.52342 5.97396 9.86847 5.92188 10.2304 5.92188C10.47 5.92188 10.7239 5.95052 10.9922 6.00781C11.263 6.0625 11.5156 6.16406 11.75 6.3125C11.987 6.46094 12.181 6.67318 12.332 6.94922C12.4831 7.22266 12.5586 7.57813 12.5586 8.01563V12H11.4179V11.1797H11.3711C11.2956 11.3307 11.1823 11.4792 11.0312 11.625C10.8802 11.7708 10.6862 11.8919 10.4492 11.9883C10.2122 12.0846 9.92837 12.1328 9.59764 12.1328ZM9.85154 11.1953C10.1745 11.1953 10.4505 11.1315 10.6797 11.0039C10.9114 10.8763 11.0872 10.7096 11.207 10.5039C11.3294 10.2956 11.3906 10.0729 11.3906 9.83594V9.0625C11.3489 9.10417 11.2682 9.14323 11.1484 9.17969C11.0312 9.21354 10.8971 9.24349 10.7461 9.26953C10.595 9.29297 10.4479 9.3151 10.3047 9.33594C10.1614 9.35417 10.0416 9.36979 9.94529 9.38281C9.71873 9.41146 9.5117 9.45964 9.3242 9.52734C9.1393 9.59505 8.99087 9.69271 8.87889 9.82031C8.76951 9.94531 8.71482 10.112 8.71482 10.3203C8.71482 10.6094 8.8216 10.8281 9.03514 10.9766C9.24868 11.1224 9.52081 11.1953 9.85154 11.1953ZM18.5231 3.76562L19.0075 4.50391C18.8278 4.66797 18.6234 4.78516 18.3942 4.85547C18.1677 4.92318 17.906 4.96615 17.6091 4.98437C17.3122 5 16.9724 5.01432 16.5896 5.02734C16.1573 5.04036 15.8018 5.13411 15.5231 5.30859C15.2445 5.48047 15.0297 5.73568 14.8786 6.07422C14.7302 6.41016 14.6338 6.83203 14.5896 7.33984H14.6638C14.8591 6.96745 15.1299 6.6888 15.4763 6.50391C15.8252 6.31901 16.2172 6.22656 16.6521 6.22656C17.1364 6.22656 17.5674 6.33724 17.945 6.55859C18.3226 6.77995 18.6195 7.10417 18.8356 7.53125C19.0544 7.95573 19.1638 8.47526 19.1638 9.08984C19.1638 9.71224 19.0492 10.25 18.82 10.7031C18.5935 11.1562 18.2731 11.5065 17.8591 11.7539C17.4476 11.9987 16.9619 12.1211 16.4021 12.1211C15.8422 12.1211 15.3539 11.9948 14.9372 11.7422C14.5231 11.487 14.2015 11.1094 13.9724 10.6094C13.7458 10.1094 13.6325 9.49219 13.6325 8.75781V8.16406C13.6325 6.79167 13.8773 5.75911 14.3669 5.06641C14.8565 4.3737 15.5882 4.01823 16.5622 4C16.8773 3.99219 17.1586 3.99089 17.406 3.99609C17.6534 3.9987 17.8695 3.98698 18.0544 3.96094C18.2419 3.93229 18.3981 3.86719 18.5231 3.76562ZM16.406 11.1406C16.7315 11.1406 17.0114 11.0586 17.2458 10.8945C17.4828 10.7279 17.6651 10.4922 17.7927 10.1875C17.9203 9.88281 17.9841 9.52344 17.9841 9.10937C17.9841 8.70313 17.9203 8.35807 17.7927 8.07422C17.6651 7.79036 17.4828 7.57422 17.2458 7.42578C17.0088 7.27474 16.725 7.19922 16.3942 7.19922C16.1494 7.19922 15.9307 7.24219 15.738 7.32812C15.5453 7.41146 15.3799 7.53516 15.2419 7.69922C15.1065 7.86328 15.001 8.0638 14.9255 8.30078C14.8526 8.53516 14.8135 8.80469 14.8083 9.10937C14.8083 9.72917 14.9502 10.2227 15.2341 10.5898C15.5205 10.957 15.9112 11.1406 16.406 11.1406ZM22.7758 12.1211C22.2133 12.1211 21.7224 11.9922 21.3031 11.7344C20.8839 11.4766 20.5584 11.1159 20.3266 10.6523C20.0948 10.1888 19.9789 9.64714 19.9789 9.02734C19.9789 8.40495 20.0948 7.86068 20.3266 7.39453C20.5584 6.92839 20.8839 6.56641 21.3031 6.30859C21.7224 6.05078 22.2133 5.92188 22.7758 5.92188C23.3383 5.92188 23.8292 6.05078 24.2485 6.30859C24.6677 6.56641 24.9932 6.92839 25.225 7.39453C25.4568 7.86068 25.5727 8.40495 25.5727 9.02734C25.5727 9.64714 25.4568 10.1888 25.225 10.6523C24.9932 11.1159 24.6677 11.4766 24.2485 11.7344C23.8292 11.9922 23.3383 12.1211 22.7758 12.1211ZM22.7797 11.1406C23.1443 11.1406 23.4464 11.0443 23.686 10.8516C23.9255 10.6589 24.1026 10.4023 24.2172 10.082C24.3344 9.76172 24.393 9.40885 24.393 9.02344C24.393 8.64062 24.3344 8.28906 24.2172 7.96875C24.1026 7.64583 23.9255 7.38672 23.686 7.19141C23.4464 6.99609 23.1443 6.89844 22.7797 6.89844C22.4125 6.89844 22.1078 6.99609 21.8656 7.19141C21.6261 7.38672 21.4477 7.64583 21.3305 7.96875C21.2159 8.28906 21.1586 8.64062 21.1586 9.02344C21.1586 9.40885 21.2159 9.76172 21.3305 10.082C21.4477 10.4023 21.6261 10.6589 21.8656 10.8516C22.1078 11.0443 22.4125 11.1406 22.7797 11.1406ZM25.9337 7.00781V6H30.9962V7.00781H29.0392V12H27.8986V7.00781H25.9337ZM33.4784 12.1328C33.0982 12.1328 32.7544 12.0625 32.4471 11.9219C32.1398 11.7786 31.8963 11.5716 31.7167 11.3008C31.5396 11.0299 31.451 10.6979 31.451 10.3047C31.451 9.96615 31.5161 9.6875 31.6463 9.46875C31.7766 9.25 31.9523 9.07682 32.1737 8.94922C32.395 8.82161 32.6424 8.72526 32.9159 8.66016C33.1893 8.59505 33.468 8.54557 33.7518 8.51172C34.1112 8.47005 34.4029 8.4362 34.6268 8.41016C34.8508 8.38151 35.0135 8.33594 35.1151 8.27344C35.2167 8.21094 35.2674 8.10937 35.2674 7.96875V7.94141C35.2674 7.60026 35.1711 7.33594 34.9784 7.14844C34.7883 6.96094 34.5044 6.86719 34.1268 6.86719C33.7336 6.86719 33.4237 6.95443 33.1971 7.12891C32.9732 7.30078 32.8182 7.49219 32.7323 7.70312L31.6346 7.45312C31.7648 7.08854 31.9549 6.79427 32.2049 6.57031C32.4575 6.34375 32.7479 6.17969 33.076 6.07812C33.4042 5.97396 33.7492 5.92188 34.1112 5.92188C34.3508 5.92188 34.6047 5.95052 34.8729 6.00781C35.1437 6.0625 35.3963 6.16406 35.6307 6.3125C35.8677 6.46094 36.0617 6.67318 36.2128 6.94922C36.3638 7.22266 36.4393 7.57813 36.4393 8.01563V12H35.2987V11.1797H35.2518C35.1763 11.3307 35.063 11.4792 34.912 11.625C34.7609 11.7708 34.5669 11.8919 34.3299 11.9883C34.093 12.0846 33.8091 12.1328 33.4784 12.1328ZM33.7323 11.1953C34.0552 11.1953 34.3312 11.1315 34.5604 11.0039C34.7922 10.8763 34.968 10.7096 35.0878 10.5039C35.2101 10.2956 35.2713 10.0729 35.2713 9.83594V9.0625C35.2297 9.10417 35.149 9.14323 35.0292 9.17969C34.912 9.21354 34.7779 9.24349 34.6268 9.26953C34.4758 9.29297 34.3286 9.3151 34.1854 9.33594C34.0422 9.35417 33.9224 9.36979 33.826 9.38281C33.5995 9.41146 33.3924 9.45964 33.2049 9.52734C33.02 9.59505 32.8716 9.69271 32.7596 9.82031C32.6503 9.94531 32.5956 10.112 32.5956 10.3203C32.5956 10.6094 32.7023 10.8281 32.9159 10.9766C33.1294 11.1224 33.4016 11.1953 33.7323 11.1953ZM40.3609 12.1211C39.7698 12.1211 39.2607 11.9948 38.8336 11.7422C38.4091 11.487 38.081 11.1289 37.8492 10.668C37.62 10.2044 37.5054 9.66146 37.5054 9.03906C37.5054 8.42448 37.62 7.88281 37.8492 7.41406C38.081 6.94531 38.4039 6.57943 38.8179 6.31641C39.2346 6.05339 39.7216 5.92188 40.2789 5.92188C40.6174 5.92188 40.9456 5.97786 41.2633 6.08984C41.581 6.20182 41.8661 6.3776 42.1187 6.61719C42.3713 6.85677 42.5706 7.16797 42.7164 7.55078C42.8622 7.93099 42.9351 8.39323 42.9351 8.9375V9.35156H38.1656V8.47656H41.7906C41.7906 8.16927 41.7281 7.89714 41.6031 7.66016C41.4781 7.42057 41.3023 7.23177 41.0758 7.09375C40.8518 6.95573 40.5888 6.88672 40.2867 6.88672C39.9586 6.88672 39.6721 6.96745 39.4273 7.12891C39.1851 7.28776 38.9976 7.49609 38.8648 7.75391C38.7346 8.00911 38.6695 8.28646 38.6695 8.58594V9.26953C38.6695 9.67057 38.7398 10.0117 38.8804 10.293C39.0237 10.5742 39.2229 10.7891 39.4781 10.9375C39.7333 11.0833 40.0315 11.1562 40.3726 11.1562C40.594 11.1562 40.7958 11.125 40.9781 11.0625C41.1604 10.9974 41.3179 10.901 41.4508 10.7734C41.5836 10.6458 41.6851 10.4883 41.7554 10.3008L42.8609 10.5C42.7724 10.8255 42.6135 11.1107 42.3844 11.3555C42.1578 11.5977 41.8726 11.7865 41.5289 11.9219C41.1877 12.0547 40.7984 12.1211 40.3609 12.1211ZM43.4817 7.00781V6H48.5442V7.00781H46.5872V12H45.4466V7.00781H43.4817ZM52.2507 12V6H54.739C55.4161 6 55.9525 6.14453 56.3484 6.43359C56.7442 6.72005 56.9421 7.10937 56.9421 7.60156C56.9421 7.95312 56.8302 8.23177 56.6062 8.4375C56.3822 8.64323 56.0854 8.78125 55.7156 8.85156C55.9838 8.88281 56.2299 8.96354 56.4538 9.09375C56.6778 9.22135 56.8575 9.39323 56.9929 9.60937C57.1309 9.82552 57.1999 10.0833 57.1999 10.3828C57.1999 10.7005 57.1179 10.9818 56.9539 11.2266C56.7898 11.4687 56.5515 11.6589 56.239 11.7969C55.9291 11.9323 55.5554 12 55.1179 12H52.2507ZM53.3484 11.0234H55.1179C55.407 11.0234 55.6335 10.9544 55.7976 10.8164C55.9617 10.6784 56.0437 10.4909 56.0437 10.2539C56.0437 9.97526 55.9617 9.75651 55.7976 9.59766C55.6335 9.4362 55.407 9.35547 55.1179 9.35547H53.3484V11.0234ZM53.3484 8.5H54.7507C54.9695 8.5 55.157 8.46875 55.3132 8.40625C55.4721 8.34375 55.5932 8.25521 55.6765 8.14062C55.7624 8.02344 55.8054 7.88542 55.8054 7.72656C55.8054 7.49479 55.7104 7.3138 55.5203 7.18359C55.3302 7.05339 55.0697 6.98828 54.739 6.98828H53.3484V8.5Z" fill="#8E8E93"/>
<path d="M108.82 11.793C108.183 11.793 107.632 11.6632 107.168 11.4036C106.712 11.144 106.358 10.7742 106.106 10.2943C105.862 9.81435 105.74 9.25182 105.74 8.60668C105.74 7.95368 105.866 7.39115 106.118 6.9191C106.37 6.43918 106.724 6.06547 107.18 5.79797C107.636 5.53048 108.183 5.39673 108.82 5.39673C109.45 5.39673 109.993 5.53048 110.449 5.79797C110.905 6.06547 111.255 6.44311 111.499 6.9309C111.743 7.41082 111.865 7.97728 111.865 8.63029C111.865 9.26756 111.743 9.82615 111.499 10.3061C111.263 10.7781 110.917 11.144 110.461 11.4036C110.004 11.6632 109.458 11.793 108.82 11.793ZM108.809 10.4831C109.202 10.4831 109.517 10.3965 109.753 10.2235C109.997 10.0504 110.174 9.82222 110.284 9.53899C110.394 9.25575 110.449 8.94892 110.449 8.61848C110.449 8.28805 110.394 7.97728 110.284 7.68618C110.174 7.39508 109.997 7.16299 109.753 6.9899C109.517 6.80895 109.202 6.71847 108.809 6.71847C108.415 6.71847 108.097 6.80895 107.853 6.9899C107.609 7.16299 107.432 7.39508 107.322 7.68618C107.211 7.96941 107.156 8.28018 107.156 8.61848C107.156 8.94892 107.211 9.25969 107.322 9.55079C107.44 9.83402 107.617 10.0622 107.853 10.2353C108.097 10.4005 108.415 10.4831 108.809 10.4831Z" fill="#8E8E93"/>
<path d="M103.813 11.7813C103.129 11.7813 102.629 11.5925 102.315 11.2149C102 10.8372 101.843 10.314 101.843 9.64528V6.76576H100.887V5.49122H101.843V3.74463H103.282V5.49122H105.171V6.76576H103.282V9.37385C103.282 9.57841 103.306 9.76329 103.353 9.92851C103.4 10.0937 103.487 10.2235 103.613 10.318C103.739 10.4124 103.912 10.4635 104.132 10.4714C104.321 10.4714 104.482 10.4399 104.616 10.377C104.75 10.314 104.86 10.2432 104.946 10.1645L105.43 11.2621C105.281 11.3879 105.112 11.4902 104.923 11.5689C104.742 11.6476 104.557 11.7026 104.368 11.7341C104.179 11.7656 103.994 11.7813 103.813 11.7813Z" fill="#8E8E93"/>
<path d="M94.2871 13.9999V5.49114H95.6325L95.7033 6.32903C95.9472 6.00646 96.2383 5.77044 96.5766 5.62095C96.9149 5.47147 97.2886 5.39673 97.6977 5.39673C98.3114 5.39673 98.8188 5.53834 99.2201 5.82158C99.6213 6.10481 99.9203 6.48638 100.117 6.9663C100.314 7.44622 100.412 7.98908 100.412 8.59488C100.412 9.20068 100.31 9.74748 100.105 10.2353C99.9006 10.7152 99.5898 11.0968 99.1728 11.38C98.7637 11.6554 98.2484 11.793 97.6269 11.793C97.3358 11.793 97.0683 11.7616 96.8244 11.6986C96.5884 11.6357 96.3759 11.5452 96.1871 11.4272C96.0062 11.3092 95.8527 11.1754 95.7269 11.026V13.9999H94.2871ZM97.4027 10.4949C97.8039 10.4949 98.1186 10.4083 98.3468 10.2353C98.5749 10.0543 98.7401 9.82222 98.8424 9.53899C98.9447 9.24789 98.9958 8.94105 98.9958 8.61848C98.9958 8.28018 98.9408 7.96548 98.8306 7.67438C98.7283 7.38328 98.5592 7.14726 98.3232 6.9663C98.0871 6.78535 97.7724 6.69487 97.3791 6.69487C97.0171 6.69487 96.7103 6.78535 96.4586 6.9663C96.2147 7.13939 96.0298 7.37148 95.9039 7.66258C95.778 7.95368 95.7151 8.26838 95.7151 8.60668C95.7151 8.95285 95.7741 9.27149 95.8921 9.56259C96.0101 9.84582 96.195 10.074 96.4467 10.2471C96.6985 10.4123 97.0171 10.4949 97.4027 10.4949Z" fill="#8E8E93"/>
<path d="M89.8572 11.793C89.5661 11.793 89.2907 11.7537 89.0311 11.675C88.7714 11.5963 88.5393 11.4823 88.3348 11.3328C88.1302 11.1754 87.965 10.9827 87.8391 10.7545C87.7211 10.5185 87.6621 10.2431 87.6621 9.92843C87.6621 9.52718 87.7408 9.20068 87.8981 8.94892C88.0555 8.68929 88.2679 8.4926 88.5354 8.35886C88.8108 8.22511 89.1215 8.13463 89.4677 8.08743C89.8139 8.03235 90.1758 8.00482 90.5534 8.00482H91.769C91.769 7.72945 91.7257 7.49343 91.6391 7.29674C91.5526 7.09218 91.4149 6.9309 91.2261 6.81288C91.0451 6.69487 90.8091 6.63587 90.518 6.63587C90.3292 6.63587 90.1522 6.65947 89.987 6.70667C89.8296 6.74601 89.6919 6.81288 89.5739 6.9073C89.4638 6.99384 89.3851 7.10792 89.3379 7.24953H87.8627C87.9178 6.92696 88.0279 6.6516 88.1932 6.42344C88.3663 6.18742 88.5747 5.99466 88.8186 5.84518C89.0704 5.69569 89.3458 5.58555 89.6447 5.51474C89.9437 5.43607 90.2466 5.39673 90.5534 5.39673C91.4582 5.39673 92.1151 5.65636 92.5242 6.17561C92.9412 6.69487 93.1497 7.42262 93.1497 8.35886V11.7104H91.8752L91.8398 10.9079C91.6588 11.1754 91.4425 11.3721 91.1907 11.498C90.9389 11.6239 90.695 11.7026 90.459 11.734C90.223 11.7734 90.0224 11.793 89.8572 11.793ZM90.1404 10.6247C90.4551 10.6247 90.7344 10.5657 90.9783 10.4477C91.2222 10.3297 91.4149 10.1645 91.5565 9.95203C91.706 9.73961 91.7808 9.49571 91.7808 9.22035V9.01973H90.6478C90.459 9.01973 90.2702 9.0276 90.0814 9.04333C89.9004 9.0512 89.7352 9.08267 89.5857 9.13774C89.4362 9.18495 89.3143 9.25969 89.2199 9.36197C89.1333 9.46424 89.0901 9.60979 89.0901 9.79861C89.0901 9.98743 89.1373 10.1409 89.2317 10.2589C89.334 10.3769 89.4638 10.4674 89.6211 10.5303C89.7863 10.5932 89.9594 10.6247 90.1404 10.6247Z" fill="#8E8E93"/>
<path d="M83.3534 11.7931C82.724 11.7931 82.2047 11.6515 81.7956 11.3682C81.3865 11.0771 81.0797 10.6916 80.8751 10.2117C80.6784 9.73178 80.5801 9.19679 80.5801 8.60672C80.5801 7.99305 80.6863 7.44626 80.8987 6.96634C81.1111 6.47855 81.4298 6.09698 81.8546 5.82161C82.2795 5.53838 82.8105 5.39677 83.4478 5.39677C83.6838 5.39677 83.912 5.4243 84.1323 5.47938C84.3604 5.52658 84.5729 5.60526 84.7695 5.7154C84.9741 5.81768 85.1432 5.95536 85.277 6.12845V3.36694H86.7168V11.7105H85.3242L85.3006 10.9316C85.1511 11.1283 84.9741 11.2896 84.7695 11.4154C84.5729 11.5413 84.3526 11.6357 84.1087 11.6987C83.8648 11.7616 83.613 11.7931 83.3534 11.7931ZM83.6248 10.4949C84.0025 10.4949 84.3132 10.4084 84.5571 10.2353C84.801 10.0543 84.982 9.81832 85.1 9.52722C85.2259 9.22826 85.2888 8.91356 85.2888 8.58312C85.2888 8.23695 85.2259 7.92225 85.1 7.63901C84.982 7.35578 84.801 7.12763 84.5571 6.95454C84.3132 6.78145 84.0025 6.69491 83.6248 6.69491C83.2236 6.69491 82.9049 6.78539 82.6689 6.96634C82.4407 7.14729 82.2716 7.38725 82.1615 7.68622C82.0592 7.97732 82.008 8.29202 82.008 8.63032C82.008 8.88209 82.0356 9.12205 82.0906 9.3502C82.1536 9.57049 82.248 9.76718 82.3739 9.94027C82.4998 10.1134 82.665 10.251 82.8695 10.3533C83.0741 10.4477 83.3258 10.4949 83.6248 10.4949Z" fill="#8E8E93"/>
<path d="M72.1621 11.7105L75.3603 3.36694H77.1187L80.305 11.7105H78.7118L78.1572 10.1645H74.3099L73.7435 11.7105H72.1621ZM74.782 8.83095H77.6733L76.2336 4.85391L74.782 8.83095Z" fill="#8E8E93"/>
<path d="M67.7602 3C67.8178 4.60495 69.1055 5.89272 70.7105 5.95033C69.1055 6.00793 67.8178 7.2957 67.7602 8.90065C67.7026 7.2957 66.4148 6.00793 64.8098 5.95033C66.4148 5.89272 67.7026 4.60495 67.7602 3Z" fill="#8E8E93"/>
<path d="M62 9.32213C62 8.00307 63.0693 6.93377 64.3884 6.93377C65.7074 6.93377 66.7767 8.00307 66.7767 9.32213C66.7767 10.6412 65.7074 11.7105 64.3884 11.7105H62V9.32213Z" fill="#8E8E93"/>
</svg>
