<svg width="38" height="38" viewBox="0 0 38 38" fill="none" xmlns="http://www.w3.org/2000/svg">
<rect width="38" height="38" rx="10" fill="#070F1A"/>
<path d="M28 25.5C28 23.0147 25.9853 21 23.5 21C21.0147 21 19 23.0147 19 25.5C19 27.9853 21.0147 30 23.5 30H28V25.5Z" fill="url(#paint0_linear_129_7208)"/>
<path d="M28 25.5C28 23.0147 25.9853 21 23.5 21C21.0147 21 19 23.0147 19 25.5C19 27.9853 21.0147 30 23.5 30H28V25.5Z" fill="url(#paint1_linear_129_7208)"/>
<path d="M28 25.5C28 23.0147 25.9853 21 23.5 21C21.0147 21 19 23.0147 19 25.5C19 27.9853 21.0147 30 23.5 30H28V25.5Z" fill="white"/>
<rect opacity="0.2" x="9" y="14" width="19" height="5" rx="2.5" fill="white"/>
<rect opacity="0.2" x="15" y="9" width="13" height="4" rx="2" fill="white"/>
<defs>
<linearGradient id="paint0_linear_129_7208" x1="13.1765" y1="19.4118" x2="28" y2="30" gradientUnits="userSpaceOnUse">
<stop stop-color="#5BE5F7"/>
<stop offset="0.211538" stop-color="#4576EE"/>
<stop offset="0.427885" stop-color="#60268A"/>
<stop offset="0.826923" stop-color="#C158E3"/>
<stop offset="1" stop-color="#D34ED7"/>
</linearGradient>
<linearGradient id="paint1_linear_129_7208" x1="13.4412" y1="14.3824" x2="28" y2="30" gradientUnits="userSpaceOnUse">
<stop stop-color="#FFDFB9"/>
<stop offset="0.3769" stop-color="#A5C5FF"/>
<stop offset="0.389423" stop-color="#B0C8FF"/>
<stop offset="0.669324" stop-color="#52AEFF"/>
<stop offset="1" stop-color="#0084FF"/>
</linearGradient>
</defs>
</svg>
