<svg width="40" height="40" viewBox="0 0 40 40" fill="none" xmlns="http://www.w3.org/2000/svg">
<rect width="40" height="40" fill="#16D65B"/>
<path d="M23.75 28.0625H16.25C15.9425 28.0625 15.6875 27.8075 15.6875 27.5C15.6875 27.1925 15.9425 26.9375 16.25 26.9375H23.75C24.0575 26.9375 24.3125 27.1925 24.3125 27.5C24.3125 27.8075 24.0575 28.0625 23.75 28.0625Z" fill="white"/>
<path d="M24.5 12.5H15.5C13.8425 12.5 12.5 13.8425 12.5 15.5V22.25C12.5 23.9075 13.8425 25.25 15.5 25.25H24.5C26.1575 25.25 27.5 23.9075 27.5 22.25V15.5C27.5 13.8425 26.1575 12.5 24.5 12.5ZM18.4925 16.49C18.9125 16.49 19.25 16.8275 19.25 17.24C19.25 17.6525 18.9125 17.99 18.5 17.99C18.0875 17.99 17.75 17.6525 17.75 17.24C17.75 16.8275 18.08 16.49 18.4925 16.49ZM16.13 16.49C16.55 16.49 16.8875 16.8275 16.8875 17.24C16.8875 17.6525 16.55 17.99 16.1375 17.99C15.725 17.99 15.3875 17.6525 15.3875 17.24C15.3875 16.8275 15.71 16.49 16.13 16.49ZM23.945 22.145H16.07C15.755 22.145 15.5 21.89 15.5 21.5825C15.5 21.275 15.7475 21.02 16.055 21.02H23.9525C24.26 21.02 24.515 21.275 24.515 21.5825C24.515 21.89 24.26 22.145 23.945 22.145ZM23.945 17.8025H21.185C20.8775 17.8025 20.6225 17.5475 20.6225 17.24C20.6225 16.9325 20.8775 16.6775 21.185 16.6775H23.945C24.2525 16.6775 24.5075 16.9325 24.5075 17.24C24.5075 17.5475 24.26 17.8025 23.945 17.8025Z" fill="white"/>
</svg>
