<svg width="24" height="24" viewBox="0 0 24 24" fill="none" xmlns="http://www.w3.org/2000/svg">
<rect opacity="0.1" width="24" height="24" rx="12" fill="#3FDD78"/>
<path d="M13.6448 12.6833V14.5487C13.6448 14.7137 13.6264 14.8696 13.5852 15.0117C13.4156 15.6854 12.8564 16.1071 12.0864 16.1071H10.8398L9.4556 17.0283C9.24935 17.1704 8.97435 17.0192 8.97435 16.7717V16.1071C8.50685 16.1071 8.11727 15.9512 7.84685 15.6808C7.57185 15.4058 7.41602 15.0162 7.41602 14.5487V12.6833C7.41602 11.8125 7.95685 11.2121 8.79102 11.1342C8.8506 11.1296 8.91018 11.125 8.97435 11.125H12.0864C13.0214 11.125 13.6448 11.7483 13.6448 12.6833Z" fill="#1FB154"/>
<path d="M14.6348 14.15C15.2168 14.15 15.7073 13.9575 16.0464 13.6137C16.3902 13.2745 16.5827 12.7841 16.5827 12.202V9.86454C16.5827 8.78746 15.7118 7.91663 14.6348 7.91663H10.7389C9.66185 7.91663 8.79102 8.78746 8.79102 9.86454V10.2083C8.79102 10.3366 8.89185 10.4375 9.02018 10.4375H12.0864C13.3285 10.4375 14.3323 11.4412 14.3323 12.6833V13.9208C14.3323 14.0491 14.4331 14.15 14.5614 14.15H14.6348V14.15Z" fill="#1FB154"/>
</svg>
