<svg width="24" height="24" viewBox="0 0 24 24" fill="none" xmlns="http://www.w3.org/2000/svg">
<rect opacity="0.1" width="24" height="24" rx="12" fill="#8B09FD"/>
<path d="M16.1309 10.9179C15.2636 10.9179 14.9091 10.3046 15.3403 9.55227C15.5895 9.11623 15.4409 8.5604 15.0049 8.31123L14.1759 7.83685C13.7974 7.61165 13.3086 7.74581 13.0834 8.12435L13.0307 8.2154C12.5995 8.96769 11.8903 8.96769 11.4543 8.2154L11.4015 8.12435C11.1859 7.74581 10.6972 7.61165 10.3186 7.83685L9.48967 8.31123C9.05363 8.5604 8.90509 9.12102 9.15426 9.55706C9.5903 10.3046 9.23572 10.9179 8.36842 10.9179C7.87009 10.9179 7.45801 11.3252 7.45801 11.8283V12.6716C7.45801 13.17 7.8653 13.5821 8.36842 13.5821C9.23572 13.5821 9.5903 14.1954 9.15426 14.9477C8.90509 15.3837 9.05363 15.9396 9.48967 16.1887L10.3186 16.6631C10.6972 16.8883 11.1859 16.7541 11.4111 16.3756L11.4638 16.2846C11.8951 15.5323 12.6043 15.5323 13.0403 16.2846L13.093 16.3756C13.3182 16.7541 13.807 16.8883 14.1855 16.6631L15.0145 16.1887C15.4505 15.9396 15.599 15.3789 15.3499 14.9477C14.9138 14.1954 15.2684 13.5821 16.1357 13.5821C16.6341 13.5821 17.0461 13.1748 17.0461 12.6716V11.8283C17.0413 11.33 16.6341 10.9179 16.1309 10.9179ZM12.2497 13.8073C11.392 13.8073 10.6924 13.1077 10.6924 12.25C10.6924 11.3923 11.392 10.6927 12.2497 10.6927C13.1074 10.6927 13.807 11.3923 13.807 12.25C13.807 13.1077 13.1074 13.8073 12.2497 13.8073Z" fill="#8B09FD"/>
</svg>
