<svg width="11" height="17" viewBox="0 0 11 17" fill="none" xmlns="http://www.w3.org/2000/svg">
<path d="M8.03831 9.53792C8.78757 9.53792 9.39497 8.93052 9.39497 8.18125C9.39497 7.43199 8.78757 6.82458 8.03831 6.82458C7.28904 6.82458 6.68164 7.43199 6.68164 8.18125C6.68164 8.93052 7.28904 9.53792 8.03831 9.53792Z" fill="#8E8E93"/>
<path d="M2.96018 9.53792C3.70945 9.53792 4.31685 8.93052 4.31685 8.18125C4.31685 7.43199 3.70945 6.82458 2.96018 6.82458C2.21092 6.82458 1.60352 7.43199 1.60352 8.18125C1.60352 8.93052 2.21092 9.53792 2.96018 9.53792Z" fill="#8E8E93"/>
<path d="M8.03831 15.1754C8.78757 15.1754 9.39497 14.568 9.39497 13.8187C9.39497 13.0694 8.78757 12.462 8.03831 12.462C7.28904 12.462 6.68164 13.0694 6.68164 13.8187C6.68164 14.568 7.28904 15.1754 8.03831 15.1754Z" fill="#8E8E93"/>
<path d="M2.96018 15.1754C3.70945 15.1754 4.31685 14.568 4.31685 13.8187C4.31685 13.0694 3.70945 12.462 2.96018 12.462C2.21092 12.462 1.60352 13.0694 1.60352 13.8187C1.60352 14.568 2.21092 15.1754 2.96018 15.1754Z" fill="#8E8E93"/>
<path d="M8.03831 4.03792C8.78757 4.03792 9.39497 3.43052 9.39497 2.68125C9.39497 1.93199 8.78757 1.32458 8.03831 1.32458C7.28904 1.32458 6.68164 1.93199 6.68164 2.68125C6.68164 3.43052 7.28904 4.03792 8.03831 4.03792Z" fill="#8E8E93"/>
<path d="M2.96018 4.03792C3.70945 4.03792 4.31685 3.43052 4.31685 2.68125C4.31685 1.93199 3.70945 1.32458 2.96018 1.32458C2.21092 1.32458 1.60352 1.93199 1.60352 2.68125C1.60352 3.43052 2.21092 4.03792 2.96018 4.03792Z" fill="#8E8E93"/>
<path d="M8.03831 9.67537C8.78757 9.67537 9.39497 9.06797 9.39497 8.3187C9.39497 7.56944 8.78757 6.96204 8.03831 6.96204C7.28904 6.96204 6.68164 7.56944 6.68164 8.3187C6.68164 9.06797 7.28904 9.67537 8.03831 9.67537Z" fill="#8E8E93"/>
<path d="M2.96018 9.67537C3.70945 9.67537 4.31685 9.06797 4.31685 8.3187C4.31685 7.56944 3.70945 6.96204 2.96018 6.96204C2.21092 6.96204 1.60352 7.56944 1.60352 8.3187C1.60352 9.06797 2.21092 9.67537 2.96018 9.67537Z" fill="#8E8E93"/>
</svg>
