<svg width="38" height="38" viewBox="0 0 38 38" fill="none" xmlns="http://www.w3.org/2000/svg">
<rect width="38" height="38" rx="19" fill="#0077FF"/>
<path d="M19.8932 26C13.06 26 9.1624 21.4955 9 14H12.4229C12.5353 19.5015 15.0587 21.8318 17.0575 22.3123V14H20.2805V18.7447C22.2542 18.5405 24.3279 16.3784 25.0275 14H28.2505C27.9869 15.2335 27.4614 16.4014 26.7069 17.4307C25.9524 18.46 24.9852 19.3285 23.8657 19.982C25.1153 20.579 26.2191 21.4241 27.1041 22.4615C27.9891 23.4989 28.6353 24.7049 29 26H25.4522C25.1248 24.8751 24.4594 23.8681 23.5394 23.1053C22.6194 22.3424 21.4858 21.8577 20.2805 21.7117V26H19.8932V26Z" fill="white"/>
</svg>
