<svg width="26" height="26" viewBox="0 0 26 26" fill="none" xmlns="http://www.w3.org/2000/svg">
<rect width="26" height="26" rx="7" fill="#FF0D0D" fill-opacity="0.15"/>
<path d="M18.291 9.05079C17.3518 8.95746 16.4126 8.88746 15.4676 8.83496V8.82913L15.3393 8.07079C15.2518 7.53413 15.1235 6.72913 13.7585 6.72913H12.2301C10.871 6.72913 10.7426 7.49913 10.6493 8.06496L10.5268 8.81163C9.9843 8.84663 9.4418 8.88163 8.8993 8.93413L7.7093 9.05079C7.4643 9.07413 7.2893 9.28996 7.31263 9.52913C7.33597 9.76829 7.54597 9.94329 7.79097 9.91996L8.98097 9.80329C12.0376 9.49996 15.1176 9.61663 18.2093 9.92579C18.2268 9.92579 18.2385 9.92579 18.256 9.92579C18.4776 9.92579 18.6701 9.75663 18.6935 9.52913C18.711 9.28996 18.536 9.07413 18.291 9.05079Z" fill="#D12020"/>
<path d="M17.2175 10.7484C17.0775 10.6025 16.885 10.5209 16.6867 10.5209H9.31335C9.11502 10.5209 8.91668 10.6025 8.78252 10.7484C8.64835 10.8942 8.57252 11.0925 8.58418 11.2967L8.94585 17.2817C9.01002 18.1684 9.09168 19.2767 11.1275 19.2767H14.8725C16.9083 19.2767 16.99 18.1742 17.0542 17.2817L17.4158 11.3025C17.4275 11.0925 17.3517 10.8942 17.2175 10.7484ZM13.9683 16.3542H12.0258C11.7867 16.3542 11.5883 16.1559 11.5883 15.9167C11.5883 15.6775 11.7867 15.4792 12.0258 15.4792H13.9683C14.2075 15.4792 14.4058 15.6775 14.4058 15.9167C14.4058 16.1559 14.2075 16.3542 13.9683 16.3542ZM14.4583 14.0209H11.5417C11.3025 14.0209 11.1042 13.8225 11.1042 13.5834C11.1042 13.3442 11.3025 13.1459 11.5417 13.1459H14.4583C14.6975 13.1459 14.8958 13.3442 14.8958 13.5834C14.8958 13.8225 14.6975 14.0209 14.4583 14.0209Z" fill="#D12020"/>
</svg>
