<svg width="205" height="40" viewBox="0 0 205 40" fill="none" xmlns="http://www.w3.org/2000/svg">
<rect width="205" height="40" rx="20" fill="#FF900D" fill-opacity="0.03"/>
<rect x="0.5" y="0.5" width="204" height="39" rx="19.5" stroke="#FF900D" stroke-opacity="0.15"/>
<rect opacity="0.1" x="9" y="8" width="24" height="24" rx="12" fill="#FF900D"/>
<path d="M50.0781 14.8182V25H48.5469V16.1307H43.7543V25H42.223V14.8182H50.0781ZM55.1791 25.1541C54.4267 25.1541 53.7787 24.9934 53.2352 24.6719C52.6949 24.3471 52.2773 23.8913 51.9823 23.3047C51.6907 22.7147 51.5448 22.0237 51.5448 21.2315C51.5448 20.4493 51.6907 19.7599 51.9823 19.1634C52.2773 18.5668 52.6883 18.1011 53.2153 17.7663C53.7456 17.4316 54.3654 17.2642 55.0747 17.2642C55.5055 17.2642 55.9232 17.3355 56.3275 17.478C56.7319 17.6205 57.0948 17.8442 57.4163 18.1491C57.7378 18.4541 57.9913 18.8501 58.1769 19.3374C58.3626 19.8213 58.4554 20.4096 58.4554 21.1023V21.6293H52.385V20.5156H56.9987C56.9987 20.1245 56.9191 19.7782 56.76 19.4766C56.601 19.1716 56.3772 18.9313 56.0889 18.7557C55.8038 18.58 55.4691 18.4922 55.0846 18.4922C54.667 18.4922 54.3024 18.5949 53.9909 18.8004C53.6826 19.0026 53.444 19.2678 53.275 19.5959C53.1092 19.9207 53.0264 20.2737 53.0264 20.6548V21.5249C53.0264 22.0353 53.1159 22.4695 53.2948 22.8274C53.4771 23.1854 53.7307 23.4588 54.0555 23.6477C54.3803 23.8333 54.7598 23.9261 55.194 23.9261C55.4757 23.9261 55.7326 23.8864 55.9646 23.8068C56.1966 23.724 56.3971 23.6013 56.5662 23.4389C56.7352 23.2765 56.8644 23.076 56.9539 22.8374L58.3609 23.0909C58.2482 23.5052 58.046 23.8681 57.7544 24.1797C57.466 24.4879 57.1031 24.7282 56.6656 24.9006C56.2314 25.0696 55.7359 25.1541 55.1791 25.1541ZM59.6847 27.8636V17.3636H61.1364V18.6016H61.2607C61.3468 18.4425 61.4711 18.2585 61.6335 18.0497C61.7959 17.8409 62.0213 17.6586 62.3097 17.5028C62.598 17.3438 62.9792 17.2642 63.4531 17.2642C64.0696 17.2642 64.6198 17.42 65.1037 17.7315C65.5876 18.0431 65.9671 18.4922 66.2422 19.0788C66.5206 19.6655 66.6598 20.3714 66.6598 21.1967C66.6598 22.022 66.5223 22.7296 66.2472 23.3196C65.9721 23.9062 65.5942 24.3587 65.1137 24.6768C64.6331 24.9917 64.0845 25.1491 63.4681 25.1491C63.004 25.1491 62.6245 25.0713 62.3296 24.9155C62.0379 24.7597 61.8092 24.5774 61.6435 24.3686C61.4778 24.1598 61.3502 23.9742 61.2607 23.8118H61.1712V27.8636H59.6847ZM61.1414 21.1818C61.1414 21.7187 61.2192 22.1894 61.375 22.5938C61.5308 22.9981 61.7562 23.3146 62.0512 23.5433C62.3461 23.7687 62.7074 23.8814 63.135 23.8814C63.5791 23.8814 63.9503 23.7637 64.2486 23.5284C64.5469 23.2898 64.7723 22.9666 64.9247 22.5589C65.0805 22.1513 65.1584 21.6922 65.1584 21.1818C65.1584 20.678 65.0822 20.2256 64.9297 19.8246C64.7806 19.4235 64.5552 19.107 64.2536 18.875C63.9553 18.643 63.5824 18.527 63.135 18.527C62.7041 18.527 62.3395 18.638 62.0412 18.8601C61.7462 19.0821 61.5225 19.392 61.37 19.7898C61.2176 20.1875 61.1414 20.6515 61.1414 21.1818ZM71.1965 25.1541C70.4441 25.1541 69.7962 24.9934 69.2526 24.6719C68.7124 24.3471 68.2947 23.8913 67.9998 23.3047C67.7081 22.7147 67.5623 22.0237 67.5623 21.2315C67.5623 20.4493 67.7081 19.7599 67.9998 19.1634C68.2947 18.5668 68.7057 18.1011 69.2327 17.7663C69.763 17.4316 70.3828 17.2642 71.0921 17.2642C71.523 17.2642 71.9406 17.3355 72.3449 17.478C72.7493 17.6205 73.1122 17.8442 73.4337 18.1491C73.7552 18.4541 74.0088 18.8501 74.1944 19.3374C74.38 19.8213 74.4728 20.4096 74.4728 21.1023V21.6293H68.4025V20.5156H73.0161C73.0161 20.1245 72.9366 19.7782 72.7775 19.4766C72.6184 19.1716 72.3947 18.9313 72.1063 18.7557C71.8213 18.58 71.4865 18.4922 71.102 18.4922C70.6844 18.4922 70.3198 18.5949 70.0083 18.8004C69.7 19.0026 69.4614 19.2678 69.2924 19.5959C69.1267 19.9207 69.0438 20.2737 69.0438 20.6548V21.5249C69.0438 22.0353 69.1333 22.4695 69.3123 22.8274C69.4946 23.1854 69.7481 23.4588 70.0729 23.6477C70.3977 23.8333 70.7772 23.9261 71.2114 23.9261C71.4931 23.9261 71.75 23.8864 71.982 23.8068C72.214 23.724 72.4145 23.6013 72.5836 23.4389C72.7526 23.2765 72.8819 23.076 72.9714 22.8374L74.3783 23.0909C74.2656 23.5052 74.0634 23.8681 73.7718 24.1797C73.4834 24.4879 73.1205 24.7282 72.683 24.9006C72.2488 25.0696 71.7533 25.1541 71.1965 25.1541ZM77.1588 22.9169L80.5245 17.3636H82.1254V25H80.6687V19.4418L77.3179 25H75.7021V17.3636H77.1588V22.9169ZM79.8882 14.7784H81.1112C81.1112 15.3385 80.9123 15.7943 80.5146 16.1456C80.1202 16.4936 79.5866 16.6676 78.9137 16.6676C78.2442 16.6676 77.7123 16.4936 77.3179 16.1456C76.9235 15.7943 76.7262 15.3385 76.7262 14.7784H77.9443C77.9443 15.027 78.0172 15.2474 78.163 15.4396C78.3089 15.6286 78.5591 15.723 78.9137 15.723C79.2618 15.723 79.5103 15.6286 79.6595 15.4396C79.812 15.2507 79.8882 15.0303 79.8882 14.7784ZM82.7569 18.6463V17.3636H89.2001V18.6463H86.7093V25H85.2576V18.6463H82.7569ZM91.809 22.9169L95.1748 17.3636H96.7756V25H95.319V19.4418L91.9681 25H90.3523V17.3636H91.809V22.9169ZM101.639 25V17.3636H104.806C105.668 17.3636 106.351 17.5476 106.854 17.9155C107.358 18.2801 107.61 18.7756 107.61 19.402C107.61 19.8494 107.468 20.2041 107.183 20.4659C106.898 20.7277 106.52 20.9034 106.049 20.9929C106.39 21.0327 106.704 21.1354 106.989 21.3011C107.274 21.4635 107.502 21.6823 107.675 21.9574C107.85 22.2325 107.938 22.5606 107.938 22.9418C107.938 23.3461 107.834 23.7041 107.625 24.0156C107.416 24.3239 107.113 24.5658 106.715 24.7415C106.321 24.9138 105.845 25 105.288 25H101.639ZM103.036 23.7571H105.288C105.656 23.7571 105.945 23.6693 106.153 23.4936C106.362 23.3179 106.467 23.0793 106.467 22.7777C106.467 22.4231 106.362 22.1446 106.153 21.9425C105.945 21.737 105.656 21.6342 105.288 21.6342H103.036V23.7571ZM103.036 20.5455H104.821C105.1 20.5455 105.338 20.5057 105.537 20.4261C105.739 20.3466 105.893 20.2339 105.999 20.0881C106.109 19.9389 106.163 19.7633 106.163 19.5611C106.163 19.2661 106.042 19.0357 105.801 18.87C105.559 18.7043 105.227 18.6214 104.806 18.6214H103.036V20.5455ZM118.325 14.5199L118.942 15.4595C118.713 15.6683 118.453 15.8175 118.161 15.907C117.873 15.9931 117.54 16.0478 117.162 16.071C116.784 16.0909 116.352 16.1091 115.864 16.1257C115.314 16.1423 114.862 16.2616 114.507 16.4837C114.153 16.7024 113.879 17.0272 113.687 17.4581C113.498 17.8857 113.375 18.4226 113.319 19.0689H113.413C113.662 18.5949 114.007 18.2403 114.448 18.005C114.892 17.7696 115.39 17.652 115.944 17.652C116.56 17.652 117.109 17.7928 117.59 18.0746C118.07 18.3563 118.448 18.7689 118.723 19.3125C119.002 19.8527 119.141 20.514 119.141 21.2962C119.141 22.0883 118.995 22.7727 118.703 23.3494C118.415 23.9261 118.007 24.3719 117.48 24.6868C116.957 24.9983 116.338 25.1541 115.626 25.1541C114.913 25.1541 114.292 24.9934 113.761 24.6719C113.234 24.3471 112.825 23.8665 112.533 23.2301C112.245 22.5937 112.101 21.8082 112.101 20.8736V20.1179C112.101 18.3712 112.413 17.0571 113.036 16.1754C113.659 15.2938 114.59 14.8414 115.83 14.8182C116.231 14.8082 116.589 14.8066 116.904 14.8132C117.218 14.8165 117.493 14.8016 117.729 14.7685C117.967 14.732 118.166 14.6491 118.325 14.5199ZM115.631 23.9062C116.045 23.9062 116.401 23.8018 116.7 23.593C117.001 23.3809 117.233 23.081 117.396 22.6932C117.558 22.3054 117.639 21.848 117.639 21.321C117.639 20.804 117.558 20.3648 117.396 20.0036C117.233 19.6423 117.001 19.3672 116.7 19.1783C116.398 18.986 116.037 18.8899 115.616 18.8899C115.304 18.8899 115.026 18.9446 114.781 19.054C114.535 19.16 114.325 19.3175 114.149 19.5263C113.977 19.7351 113.843 19.9903 113.747 20.2919C113.654 20.5902 113.604 20.9332 113.597 21.321C113.597 22.1098 113.778 22.7379 114.139 23.2053C114.504 23.6726 115.001 23.9062 115.631 23.9062ZM122.604 25.169C122.12 25.169 121.682 25.0795 121.291 24.9006C120.9 24.7183 120.59 24.4548 120.361 24.1101C120.136 23.7654 120.023 23.3428 120.023 22.8423C120.023 22.4115 120.106 22.0568 120.272 21.7784C120.438 21.5 120.661 21.2796 120.943 21.1172C121.225 20.9548 121.54 20.8321 121.888 20.7493C122.236 20.6664 122.59 20.6035 122.952 20.5604C123.409 20.5073 123.78 20.4643 124.065 20.4311C124.35 20.3946 124.557 20.3366 124.687 20.2571C124.816 20.1776 124.881 20.0483 124.881 19.8693V19.8345C124.881 19.4003 124.758 19.0639 124.513 18.8253C124.271 18.5866 123.909 18.4673 123.429 18.4673C122.928 18.4673 122.534 18.5784 122.246 18.8004C121.961 19.0192 121.763 19.2628 121.654 19.5312L120.257 19.2131C120.423 18.7491 120.665 18.3745 120.983 18.0895C121.304 17.8011 121.674 17.5923 122.091 17.4631C122.509 17.3305 122.948 17.2642 123.409 17.2642C123.714 17.2642 124.037 17.3007 124.378 17.3736C124.723 17.4432 125.045 17.5724 125.343 17.7614C125.644 17.9503 125.891 18.2204 126.084 18.5717C126.276 18.9197 126.372 19.3722 126.372 19.929V25H124.92V23.956H124.861C124.765 24.1482 124.62 24.3371 124.428 24.5227C124.236 24.7083 123.989 24.8625 123.687 24.9851C123.386 25.1077 123.024 25.169 122.604 25.169ZM122.927 23.9759C123.338 23.9759 123.689 23.8946 123.981 23.7322C124.276 23.5698 124.499 23.3577 124.652 23.0959C124.808 22.8307 124.886 22.5473 124.886 22.2457V21.2614C124.832 21.3144 124.73 21.3641 124.577 21.4105C124.428 21.4536 124.257 21.4917 124.065 21.5249C123.873 21.5547 123.686 21.5829 123.503 21.6094C123.321 21.6326 123.169 21.6525 123.046 21.669C122.758 21.7055 122.494 21.7668 122.256 21.853C122.02 21.9392 121.831 22.0634 121.689 22.2259C121.55 22.3849 121.48 22.5971 121.48 22.8622C121.48 23.2301 121.616 23.5085 121.888 23.6974C122.159 23.883 122.506 23.9759 122.927 23.9759ZM127.48 22.9815H129.001C129.021 23.2931 129.162 23.5334 129.423 23.7024C129.689 23.8714 130.032 23.956 130.453 23.956C130.88 23.956 131.245 23.8648 131.546 23.6825C131.848 23.4969 131.999 23.2102 131.999 22.8224C131.999 22.5904 131.941 22.3883 131.825 22.2159C131.712 22.0402 131.551 21.9044 131.342 21.8082C131.137 21.7121 130.893 21.6641 130.612 21.6641H129.369V20.4957H130.612C131.033 20.4957 131.347 20.3996 131.556 20.2074C131.765 20.0152 131.869 19.7749 131.869 19.4865C131.869 19.175 131.757 18.9247 131.531 18.7358C131.309 18.5436 130.999 18.4474 130.602 18.4474C130.197 18.4474 129.861 18.5386 129.592 18.7209C129.324 18.8999 129.183 19.1319 129.17 19.4169H127.668C127.678 18.9893 127.808 18.6148 128.056 18.2933C128.308 17.9685 128.646 17.7166 129.07 17.5376C129.498 17.3554 129.984 17.2642 130.527 17.2642C131.094 17.2642 131.584 17.3554 131.999 17.5376C132.413 17.7199 132.733 17.9718 132.958 18.2933C133.187 18.6148 133.301 18.9844 133.301 19.402C133.301 19.8229 133.175 20.1676 132.923 20.4361C132.675 20.7012 132.35 20.8918 131.949 21.0078V21.0874C132.244 21.1072 132.506 21.1967 132.735 21.3558C132.963 21.5149 133.142 21.7254 133.271 21.9872C133.401 22.2491 133.465 22.5457 133.465 22.8771C133.465 23.3445 133.336 23.7488 133.078 24.0902C132.822 24.4316 132.468 24.6951 132.014 24.8807C131.563 25.063 131.047 25.1541 130.467 25.1541C129.904 25.1541 129.399 25.0663 128.951 24.8906C128.507 24.7116 128.154 24.4598 127.892 24.1349C127.634 23.8101 127.496 23.4257 127.48 22.9815ZM135.52 27.8636C135.298 27.8636 135.096 27.8454 134.913 27.8089C134.731 27.7758 134.595 27.7393 134.506 27.6996L134.864 26.4815C135.135 26.5545 135.377 26.5859 135.59 26.576C135.802 26.5661 135.989 26.4865 136.151 26.3374C136.317 26.1882 136.463 25.9446 136.589 25.6065L136.773 25.0994L133.979 17.3636H135.57L137.504 23.2898H137.583L139.517 17.3636H141.113L137.966 26.0192C137.82 26.4169 137.635 26.7533 137.409 27.0284C137.184 27.3068 136.915 27.5156 136.604 27.6548C136.292 27.794 135.931 27.8636 135.52 27.8636ZM144.923 22.9815H146.444C146.464 23.2931 146.605 23.5334 146.867 23.7024C147.132 23.8714 147.475 23.956 147.896 23.956C148.323 23.956 148.688 23.8648 148.989 23.6825C149.291 23.4969 149.442 23.2102 149.442 22.8224C149.442 22.5904 149.384 22.3883 149.268 22.2159C149.155 22.0402 148.994 21.9044 148.786 21.8082C148.58 21.7121 148.336 21.6641 148.055 21.6641H146.812V20.4957H148.055C148.476 20.4957 148.791 20.3996 148.999 20.2074C149.208 20.0152 149.313 19.7749 149.313 19.4865C149.313 19.175 149.2 18.9247 148.974 18.7358C148.752 18.5436 148.443 18.4474 148.045 18.4474C147.64 18.4474 147.304 18.5386 147.036 18.7209C146.767 18.8999 146.626 19.1319 146.613 19.4169H145.112C145.122 18.9893 145.251 18.6148 145.499 18.2933C145.751 17.9685 146.089 17.7166 146.514 17.5376C146.941 17.3554 147.427 17.2642 147.97 17.2642C148.537 17.2642 149.028 17.3554 149.442 17.5376C149.856 17.7199 150.176 17.9718 150.401 18.2933C150.63 18.6148 150.744 18.9844 150.744 19.402C150.744 19.8229 150.618 20.1676 150.367 20.4361C150.118 20.7012 149.793 20.8918 149.392 21.0078V21.0874C149.687 21.1072 149.949 21.1967 150.178 21.3558C150.406 21.5149 150.585 21.7254 150.715 21.9872C150.844 22.2491 150.908 22.5457 150.908 22.8771C150.908 23.3445 150.779 23.7488 150.521 24.0902C150.265 24.4316 149.911 24.6951 149.457 24.8807C149.006 25.063 148.491 25.1541 147.911 25.1541C147.347 25.1541 146.842 25.0663 146.394 24.8906C145.95 24.7116 145.597 24.4598 145.335 24.1349C145.077 23.8101 144.939 23.4257 144.923 22.9815ZM157.199 20.5405V21.8281H153.062V20.5405H157.199ZM153.48 17.3636V25H152.023V17.3636H153.48ZM158.238 17.3636V25H156.786V17.3636H158.238ZM162.029 25.169C161.545 25.169 161.107 25.0795 160.716 24.9006C160.325 24.7183 160.015 24.4548 159.787 24.1101C159.561 23.7654 159.449 23.3428 159.449 22.8423C159.449 22.4115 159.531 22.0568 159.697 21.7784C159.863 21.5 160.087 21.2796 160.368 21.1172C160.65 20.9548 160.965 20.8321 161.313 20.7493C161.661 20.6664 162.016 20.6035 162.377 20.5604C162.834 20.5073 163.205 20.4643 163.491 20.4311C163.776 20.3946 163.983 20.3366 164.112 20.2571C164.241 20.1776 164.306 20.0483 164.306 19.8693V19.8345C164.306 19.4003 164.183 19.0639 163.938 18.8253C163.696 18.5866 163.335 18.4673 162.854 18.4673C162.354 18.4673 161.959 18.5784 161.671 18.8004C161.386 19.0192 161.189 19.2628 161.079 19.5312L159.682 19.2131C159.848 18.7491 160.09 18.3745 160.408 18.0895C160.73 17.8011 161.099 17.5923 161.517 17.4631C161.934 17.3305 162.374 17.2642 162.834 17.2642C163.139 17.2642 163.462 17.3007 163.804 17.3736C164.148 17.4432 164.47 17.5724 164.768 17.7614C165.07 17.9503 165.317 18.2204 165.509 18.5717C165.701 18.9197 165.797 19.3722 165.797 19.929V25H164.346V23.956H164.286C164.19 24.1482 164.046 24.3371 163.853 24.5227C163.661 24.7083 163.414 24.8625 163.113 24.9851C162.811 25.1077 162.45 25.169 162.029 25.169ZM162.352 23.9759C162.763 23.9759 163.114 23.8946 163.406 23.7322C163.701 23.5698 163.925 23.3577 164.077 23.0959C164.233 22.8307 164.311 22.5473 164.311 22.2457V21.2614C164.258 21.3144 164.155 21.3641 164.003 21.4105C163.853 21.4536 163.683 21.4917 163.491 21.5249C163.298 21.5547 163.111 21.5829 162.929 21.6094C162.746 21.6326 162.594 21.6525 162.471 21.669C162.183 21.7055 161.919 21.7668 161.681 21.853C161.446 21.9392 161.257 22.0634 161.114 22.2259C160.975 22.3849 160.905 22.5971 160.905 22.8622C160.905 23.2301 161.041 23.5085 161.313 23.6974C161.585 23.883 161.931 23.9759 162.352 23.9759ZM172.533 20.5405V21.8281H168.396V20.5405H172.533ZM168.814 17.3636V25H167.357V17.3636H168.814ZM173.572 17.3636V25H172.12V17.3636H173.572ZM176.597 22.9169L179.963 17.3636H181.564V25H180.107V19.4418L176.756 25H175.14V17.3636H176.597V22.9169ZM184.599 22.9169L187.965 17.3636H189.566V25H188.109V19.4418L184.758 25H183.142V17.3636H184.599V22.9169ZM187.328 14.7784H188.551C188.551 15.3385 188.352 15.7943 187.955 16.1456C187.56 16.4936 187.027 16.6676 186.354 16.6676C185.684 16.6676 185.152 16.4936 184.758 16.1456C184.364 15.7943 184.166 15.3385 184.166 14.7784H185.384C185.384 15.027 185.457 15.2474 185.603 15.4396C185.749 15.6286 185.999 15.723 186.354 15.723C186.702 15.723 186.951 15.6286 187.1 15.4396C187.252 15.2507 187.328 15.0303 187.328 14.7784Z" fill="#070F1A"/>
<path d="M24.75 24.4791H17.25C17.0792 24.4791 16.9375 24.3375 16.9375 24.1666C16.9375 23.9958 17.0792 23.8541 17.25 23.8541H24.75C24.9208 23.8541 25.0625 23.9958 25.0625 24.1666C25.0625 24.3375 24.9208 24.4791 24.75 24.4791Z" fill="#FF900D"/>
<path d="M18.3333 18.4916H17.6667C17.4375 18.4916 17.25 18.6791 17.25 18.9082V22.4999C17.25 22.7291 17.4375 22.9166 17.6667 22.9166H18.3333C18.5625 22.9166 18.75 22.7291 18.75 22.4999V18.9082C18.75 18.6749 18.5625 18.4916 18.3333 18.4916Z" fill="#FF900D"/>
<path d="M21.3333 17.1625H20.6667C20.4375 17.1625 20.25 17.35 20.25 17.5791V22.5C20.25 22.7291 20.4375 22.9166 20.6667 22.9166H21.3333C21.5625 22.9166 21.75 22.7291 21.75 22.5V17.5791C21.75 17.35 21.5625 17.1625 21.3333 17.1625Z" fill="#FF900D"/>
<path d="M24.3324 15.8334H23.6657C23.4365 15.8334 23.249 16.0209 23.249 16.25V22.5C23.249 22.7292 23.4365 22.9167 23.6657 22.9167H24.3324C24.5615 22.9167 24.749 22.7292 24.749 22.5V16.25C24.749 16.0209 24.5615 15.8334 24.3324 15.8334Z" fill="#FF900D"/>
</svg>
