<svg width="24" height="24" viewBox="0 0 24 24" fill="none" xmlns="http://www.w3.org/2000/svg">
<path d="M18 14L20 12L18 10" stroke="#070F1A" stroke-width="1.5" stroke-linecap="square"/>
<path d="M19 12.75H19.75V11.25H19V12V12.75ZM13 11.25H12.25V12.75H13V12V11.25ZM3.25 17.2663C3.25 17.6805 3.58579 18.0163 4 18.0163C4.41421 18.0163 4.75 17.6805 4.75 17.2663H4H3.25ZM16.75 17.2663C16.75 16.8521 16.4142 16.5163 16 16.5163C15.5858 16.5163 15.25 16.8521 15.25 17.2663H16H16.75ZM15.25 7.26633C15.25 7.68054 15.5858 8.01633 16 8.01633C16.4142 8.01633 16.75 7.68054 16.75 7.26633H16H15.25ZM4.75 7.26633C4.75 6.85212 4.41421 6.51633 4 6.51633C3.58579 6.51633 3.25 6.85212 3.25 7.26633H4H4.75ZM4.8906 19.8601L5.30662 19.236L4.8906 19.8601ZM6.8906 21.1934L6.47458 21.8174L6.8906 21.1934ZM6.8906 3.33926L6.47458 2.71522L6.8906 3.33926ZM4.8906 4.6726L4.47457 4.04856L4.8906 4.6726ZM10 4.51633C9.58579 4.51633 9.25 4.85212 9.25 5.26633C9.25 5.68054 9.58579 6.01633 10 6.01633V5.26633V4.51633ZM10 18.5163C9.58579 18.5163 9.25 18.8521 9.25 19.2663C9.25 19.6805 9.58579 20.0163 10 20.0163V19.2663V18.5163ZM19 12V11.25L13 11.25V12V12.75L19 12.75V12ZM4 17.2663H4.75V7.26633H4H3.25V17.2663H4ZM16 17.2663H15.25C15.25 17.9567 14.6904 18.5163 14 18.5163V19.2663V20.0163C15.5188 20.0163 16.75 18.7851 16.75 17.2663H16ZM14 5.26633V6.01633C14.6904 6.01633 15.25 6.57597 15.25 7.26633H16H16.75C16.75 5.74755 15.5188 4.51633 14 4.51633V5.26633ZM4.8906 4.6726L5.30662 5.29663L7.30663 3.9633L6.8906 3.33926L6.47458 2.71522L4.47457 4.04856L4.8906 4.6726ZM10 5.00336H9.25V19.5293H10H10.75V5.00336H10ZM6.8906 21.1934L7.30663 20.5694L5.30662 19.236L4.8906 19.8601L4.47457 20.4841L6.47458 21.8174L6.8906 21.1934ZM4 18.196H4.75V6.3367H4H3.25V18.196H4ZM4.8906 19.8601L5.30662 19.236C4.95888 19.0042 4.75 18.6139 4.75 18.196H4H3.25C3.25 19.1154 3.70953 19.9741 4.47457 20.4841L4.8906 19.8601ZM10 19.5293H9.25C9.25 20.5277 8.13732 21.1232 7.30663 20.5694L6.8906 21.1934L6.47458 21.8174C8.3021 23.0358 10.75 21.7257 10.75 19.5293H10ZM6.8906 3.33926L7.30663 3.9633C8.13732 3.4095 9.25 4.00499 9.25 5.00336H10H10.75C10.75 2.80695 8.3021 1.49687 6.47458 2.71522L6.8906 3.33926ZM4.8906 4.6726L4.47457 4.04856C3.70953 4.55859 3.25 5.41723 3.25 6.3367H4H4.75C4.75 5.91876 4.95888 5.52847 5.30662 5.29663L4.8906 4.6726ZM10 5.26633V6.01633H14V5.26633V4.51633H10V5.26633ZM14 19.2663V18.5163H10V19.2663V20.0163H14V19.2663Z" fill="#070F1A"/>
</svg>
