<svg width="24" height="24" viewBox="0 0 24 24" fill="none" xmlns="http://www.w3.org/2000/svg">
<path d="M6 13.2L13 3V9.8H18L11 20V13.2H6Z" fill="#070F1A"/>
<path d="M12.5877 2.71682C12.7117 2.53636 12.9391 2.45762 13.1483 2.52248C13.3574 2.58747 13.4998 2.78104 13.4998 3.00002V9.29983H17.9998C18.1854 9.29983 18.3558 9.40318 18.4422 9.5674C18.5286 9.73158 18.5169 9.93007 18.412 10.083L11.412 20.2832C11.2879 20.4637 11.0606 20.5424 10.8514 20.4776C10.6423 20.4126 10.4998 20.219 10.4998 20V13.7002H5.99984C5.81424 13.7002 5.64394 13.5969 5.55746 13.4326C5.47113 13.2685 5.48277 13.07 5.58773 12.917L12.5877 2.71682ZM6.94906 12.7002H10.9998C11.276 12.7002 11.4998 12.9241 11.4998 13.2002V18.3877L17.0506 10.2998H12.9998C12.7237 10.2998 12.4998 10.076 12.4998 9.79983V4.61135L6.94906 12.7002Z" fill="#070F1A"/>
</svg>
