<svg width="110" height="25" viewBox="0 0 110 25" fill="none" xmlns="http://www.w3.org/2000/svg">
<path d="M103.284 19.3976C101.878 19.3976 100.663 19.1113 99.6393 18.5385C98.6327 17.9658 97.8517 17.15 97.2963 16.0913C96.7583 15.0326 96.4893 13.7917 96.4893 12.3685C96.4893 10.928 96.767 9.68705 97.3223 8.6457C97.8777 7.587 98.6587 6.7626 99.6654 6.1725C100.672 5.5824 101.878 5.28735 103.284 5.28735C104.673 5.28735 105.87 5.5824 106.877 6.1725C107.883 6.7626 108.656 7.59568 109.194 8.67173C109.732 9.73044 110.001 10.9801 110.001 12.4206C110.001 13.8264 109.732 15.0587 109.194 16.1174C108.673 17.1587 107.909 17.9658 106.903 18.5385C105.896 19.1113 104.69 19.3976 103.284 19.3976ZM103.258 16.5079C104.126 16.5079 104.82 16.317 105.341 15.9351C105.879 15.5533 106.269 15.05 106.512 14.4252C106.755 13.8004 106.877 13.1235 106.877 12.3946C106.877 11.6656 106.755 10.9801 106.512 10.3379C106.269 9.69573 105.879 9.18373 105.341 8.8019C104.82 8.40272 104.126 8.20313 103.258 8.20313C102.39 8.20313 101.687 8.40272 101.149 8.8019C100.611 9.18373 100.221 9.69573 99.9778 10.3379C99.7348 10.9627 99.6133 11.6483 99.6133 12.3946C99.6133 13.1235 99.7348 13.8091 99.9778 14.4512C100.238 15.076 100.629 15.5793 101.149 15.9612C101.687 16.3256 102.39 16.5079 103.258 16.5079Z" fill="white"/>
<path d="M92.2435 19.3715C90.7335 19.3715 89.6314 18.955 88.9372 18.1219C88.243 17.2888 87.8958 16.1347 87.8958 14.6594V8.30721H85.7871V5.49557H87.8958V1.64258H91.0719V5.49557H95.2373V8.30721H91.0719V14.0607C91.0719 14.5119 91.124 14.9198 91.2282 15.2842C91.3323 15.6487 91.5232 15.9351 91.8009 16.1434C92.0786 16.3516 92.4604 16.4644 92.9464 16.4818C93.3629 16.4818 93.7187 16.4124 94.0138 16.2735C94.3088 16.1347 94.5518 15.9785 94.7427 15.8049L95.8101 18.2261C95.4803 18.5037 95.1072 18.7294 94.6906 18.9029C94.2915 19.0765 93.8836 19.198 93.4671 19.2674C93.0505 19.3368 92.6427 19.3715 92.2435 19.3715Z" fill="white"/>
<path d="M71.2295 24.2659V5.49562H74.1973L74.3535 7.34402C74.8916 6.63243 75.5337 6.11175 76.28 5.78199C77.0263 5.45223 77.8507 5.28735 78.7532 5.28735C80.107 5.28735 81.2264 5.59976 82.1116 6.22457C82.9967 6.84938 83.6563 7.69113 84.0901 8.74984C84.524 9.80854 84.741 11.0061 84.741 12.3425C84.741 13.6789 84.5154 14.8851 84.0641 15.9612C83.6129 17.0199 82.9273 17.8616 82.0074 18.4864C81.1049 19.0939 79.9681 19.3976 78.597 19.3976C77.9549 19.3976 77.3648 19.3282 76.8267 19.1894C76.3061 19.0505 75.8375 18.8509 75.4209 18.5906C75.0217 18.3302 74.6833 18.0352 74.4056 17.7054V24.2659H71.2295ZM78.1024 16.5339C78.9875 16.5339 79.6818 16.343 80.1851 15.9612C80.6884 15.562 81.0529 15.05 81.2785 14.4252C81.5041 13.783 81.6169 13.1061 81.6169 12.3946C81.6169 11.6483 81.4955 10.954 81.2525 10.3119C81.0268 9.66969 80.6537 9.14902 80.133 8.74984C79.6124 8.35065 78.9181 8.15106 78.0503 8.15106C77.252 8.15106 76.5751 8.35065 76.0197 8.74984C75.4817 9.13166 75.0738 9.64366 74.7961 10.2858C74.5184 10.928 74.3796 11.6222 74.3796 12.3685C74.3796 13.1322 74.5097 13.8351 74.7701 14.4773C75.0304 15.1021 75.4383 15.6054 75.9937 15.9872C76.5491 16.3517 77.252 16.5339 78.1024 16.5339Z" fill="white"/>
<path d="M61.4546 19.3976C60.8124 19.3976 60.205 19.3108 59.6322 19.1373C59.0595 18.9637 58.5475 18.7121 58.0962 18.3823C57.645 18.0352 57.2805 17.61 57.0028 17.1067C56.7425 16.586 56.6123 15.9785 56.6123 15.2843C56.6123 14.3992 56.7859 13.6789 57.133 13.1235C57.4801 12.5508 57.9487 12.1169 58.5388 11.8218C59.1463 11.5268 59.8318 11.3272 60.5955 11.223C61.3591 11.1015 62.1575 11.0408 62.9906 11.0408H65.672C65.672 10.4334 65.5766 9.91268 65.3857 9.47878C65.1948 9.02753 64.891 8.67174 64.4745 8.4114C64.0753 8.15106 63.5546 8.02089 62.9125 8.02089C62.4959 8.02089 62.1054 8.07296 61.7409 8.1771C61.3938 8.26387 61.0901 8.4114 60.8298 8.61967C60.5868 8.81058 60.4132 9.06224 60.3091 9.37465H57.0549C57.1764 8.66306 57.4193 8.0556 57.7838 7.55229C58.1656 7.03161 58.6256 6.6064 59.1636 6.27663C59.719 5.94687 60.3264 5.70389 60.986 5.54769C61.6455 5.37413 62.3137 5.28735 62.9906 5.28735C64.9865 5.28735 66.4357 5.8601 67.3382 7.00558C68.2581 8.15106 68.718 9.75647 68.718 11.8218V19.2154H65.9063L65.8282 17.4451C65.4291 18.0352 64.9518 18.4691 64.3964 18.7468C63.841 19.0245 63.303 19.198 62.7823 19.2675C62.2616 19.3542 61.819 19.3976 61.4546 19.3976ZM62.0794 16.8203C62.7736 16.8203 63.3897 16.6901 63.9278 16.4298C64.4658 16.1694 64.891 15.805 65.2034 15.3364C65.5332 14.8678 65.6981 14.3297 65.6981 13.7223V13.2797H63.1988C62.7823 13.2797 62.3658 13.2971 61.9492 13.3318C61.55 13.3491 61.1856 13.4185 60.8558 13.54C60.526 13.6442 60.257 13.8091 60.0488 14.0347C59.8578 14.2603 59.7624 14.5814 59.7624 14.9979C59.7624 15.4145 59.8665 15.7529 60.0748 16.0132C60.3004 16.2736 60.5868 16.4732 60.9339 16.612C61.2984 16.7509 61.6802 16.8203 62.0794 16.8203Z" fill="white"/>
<path d="M47.1052 19.3976C45.7168 19.3976 44.5713 19.0852 43.6688 18.4604C42.7663 17.8183 42.0894 16.9678 41.6381 15.9091C41.2043 14.8504 40.9873 13.6702 40.9873 12.3685C40.9873 11.0148 41.2216 9.80855 41.6902 8.74985C42.1588 7.67379 42.8617 6.83203 43.7989 6.22458C44.7362 5.59977 45.9077 5.28737 47.3135 5.28737C47.8342 5.28737 48.3375 5.34811 48.8234 5.4696C49.3268 5.57374 49.7954 5.7473 50.2293 5.99028C50.6805 6.2159 51.0537 6.51963 51.3487 6.90146V0.80957H54.5248V19.2154H51.4529L51.4008 17.4972C51.071 17.9311 50.6805 18.2869 50.2293 18.5646C49.7954 18.8423 49.3094 19.0505 48.7714 19.1894C48.2334 19.3282 47.678 19.3976 47.1052 19.3976ZM47.704 16.5339C48.5371 16.5339 49.2226 16.343 49.7607 15.9612C50.2987 15.562 50.6979 15.0413 50.9582 14.3992C51.2359 13.7396 51.3748 13.0454 51.3748 12.3165C51.3748 11.5528 51.2359 10.8586 50.9582 10.2338C50.6979 9.60896 50.2987 9.10565 49.7607 8.72382C49.2226 8.34199 48.5371 8.15108 47.704 8.15108C46.8189 8.15108 46.1159 8.35067 45.5953 8.74985C45.092 9.14903 44.7188 9.67839 44.4758 10.3379C44.2502 10.9801 44.1374 11.6743 44.1374 12.4206C44.1374 12.976 44.1981 13.5053 44.3196 14.0087C44.4585 14.4946 44.6667 14.9285 44.9444 15.3103C45.2221 15.6922 45.5866 15.9959 46.0378 16.2215C46.4891 16.4298 47.0445 16.5339 47.704 16.5339Z" fill="white"/>
<path d="M22.4189 19.2154L29.4741 0.80957H33.3531L40.3822 19.2154H36.8677L35.6441 15.805H27.1571L25.9075 19.2154H22.4189ZM28.1984 12.8632H34.5767L31.4006 4.08982L28.1984 12.8632Z" fill="white"/>
<path d="M12.7069 0C12.834 3.54053 15.6748 6.38135 19.2154 6.50843C15.6748 6.6355 12.834 9.47632 12.7069 13.0169C12.5799 9.47632 9.73904 6.6355 6.1985 6.50843C9.73904 6.38135 12.5799 3.54053 12.7069 0Z" fill="url(#paint0_linear_97_8648)"/>
<path d="M12.7069 0C12.834 3.54053 15.6748 6.38135 19.2154 6.50843C15.6748 6.6355 12.834 9.47632 12.7069 13.0169C12.5799 9.47632 9.73904 6.6355 6.1985 6.50843C9.73904 6.38135 12.5799 3.54053 12.7069 0Z" fill="url(#paint1_linear_97_8648)"/>
<path d="M12.7069 0C12.834 3.54053 15.6748 6.38135 19.2154 6.50843C15.6748 6.6355 12.834 9.47632 12.7069 13.0169C12.5799 9.47632 9.73904 6.6355 6.1985 6.50843C9.73904 6.38135 12.5799 3.54053 12.7069 0Z" fill="white"/>
<path d="M12.7069 0C12.834 3.54053 15.6748 6.38135 19.2154 6.50843C15.6748 6.6355 12.834 9.47632 12.7069 13.0169C12.5799 9.47632 9.73904 6.6355 6.1985 6.50843C9.73904 6.38135 12.5799 3.54053 12.7069 0Z" fill="url(#paint2_linear_97_8648)"/>
<path d="M0 13.9466C0 11.0368 2.35889 8.6779 5.26873 8.6779C8.17857 8.6779 10.5375 11.0368 10.5375 13.9466C10.5375 16.8565 8.17857 19.2154 5.26873 19.2154H0V13.9466Z" fill="url(#paint3_linear_97_8648)"/>
<path d="M0 13.9466C0 11.0368 2.35889 8.6779 5.26873 8.6779C8.17857 8.6779 10.5375 11.0368 10.5375 13.9466C10.5375 16.8565 8.17857 19.2154 5.26873 19.2154H0V13.9466Z" fill="url(#paint4_linear_97_8648)"/>
<path d="M0 13.9466C0 11.0368 2.35889 8.6779 5.26873 8.6779C8.17857 8.6779 10.5375 11.0368 10.5375 13.9466C10.5375 16.8565 8.17857 19.2154 5.26873 19.2154H0V13.9466Z" fill="white"/>
<path d="M0 13.9466C0 11.0368 2.35889 8.6779 5.26873 8.6779C8.17857 8.6779 10.5375 11.0368 10.5375 13.9466C10.5375 16.8565 8.17857 19.2154 5.26873 19.2154H0V13.9466Z" fill="url(#paint5_linear_97_8648)"/>
<defs>
<linearGradient id="paint0_linear_97_8648" x1="17.3558" y1="6.81835" x2="-7.38919e-07" y2="19.2154" gradientUnits="userSpaceOnUse">
<stop stop-color="#5BE5F7"/>
<stop offset="0.211538" stop-color="#4576EE"/>
<stop offset="0.427885" stop-color="#60268A"/>
<stop offset="0.826923" stop-color="#C158E3"/>
<stop offset="1" stop-color="#D34ED7"/>
</linearGradient>
<linearGradient id="paint1_linear_97_8648" x1="17.0459" y1="0.929775" x2="-5.81899e-07" y2="19.2154" gradientUnits="userSpaceOnUse">
<stop stop-color="#FFDFB9"/>
<stop offset="0.3769" stop-color="#A5C5FF"/>
<stop offset="0.389423" stop-color="#B0C8FF"/>
<stop offset="0.669324" stop-color="#52AEFF"/>
<stop offset="1" stop-color="#0084FF"/>
</linearGradient>
<linearGradient id="paint2_linear_97_8648" x1="19.2154" y1="-1.14258e-06" x2="-0.434431" y2="0.455027" gradientUnits="userSpaceOnUse">
<stop offset="0.0001" stop-color="#52AEFF"/>
<stop offset="1" stop-color="#0084FF"/>
</linearGradient>
<linearGradient id="paint3_linear_97_8648" x1="17.3558" y1="6.81835" x2="-7.38919e-07" y2="19.2154" gradientUnits="userSpaceOnUse">
<stop stop-color="#5BE5F7"/>
<stop offset="0.211538" stop-color="#4576EE"/>
<stop offset="0.427885" stop-color="#60268A"/>
<stop offset="0.826923" stop-color="#C158E3"/>
<stop offset="1" stop-color="#D34ED7"/>
</linearGradient>
<linearGradient id="paint4_linear_97_8648" x1="17.0459" y1="0.929775" x2="-5.81899e-07" y2="19.2154" gradientUnits="userSpaceOnUse">
<stop stop-color="#FFDFB9"/>
<stop offset="0.3769" stop-color="#A5C5FF"/>
<stop offset="0.389423" stop-color="#B0C8FF"/>
<stop offset="0.669324" stop-color="#52AEFF"/>
<stop offset="1" stop-color="#0084FF"/>
</linearGradient>
<linearGradient id="paint5_linear_97_8648" x1="19.2154" y1="-1.14258e-06" x2="-0.434431" y2="0.455027" gradientUnits="userSpaceOnUse">
<stop offset="0.0001" stop-color="#52AEFF"/>
<stop offset="1" stop-color="#0084FF"/>
</linearGradient>
</defs>
</svg>
