<svg width="24" height="24" viewBox="0 0 24 24" fill="none" xmlns="http://www.w3.org/2000/svg">
<path d="M19.319 15.2316L18.633 14.9284C18.5762 15.0568 18.5567 15.1987 18.5765 15.3377L19.319 15.2316ZM15.9146 18.9778L16.0965 18.2502C15.9106 18.2037 15.714 18.2302 15.547 18.3241L15.9146 18.9778ZM20 19.9992L19.8181 20.7268L20.9002 20.9974L20.7425 19.8932L20 19.9992ZM19.9985 12H19.2485C19.2485 13.0436 19.0285 14.0338 18.633 14.9284L19.319 15.2316L20.0049 15.5349C20.4832 14.4529 20.7485 13.2564 20.7485 12H19.9985ZM11.9992 4V4.75C16.0028 4.75 19.2485 7.99587 19.2485 12H19.9985H20.7485C20.7485 7.16758 16.8314 3.25 11.9992 3.25V4ZM4 12H4.75C4.75 7.99587 7.99566 4.75 11.9992 4.75V4V3.25C7.1671 3.25 3.25 7.16758 3.25 12H4ZM11.9992 20V19.25C7.99566 19.25 4.75 16.0041 4.75 12H4H3.25C3.25 16.8324 7.1671 20.75 11.9992 20.75V20ZM15.9146 18.9778L15.547 18.3241C14.4989 18.9135 13.2895 19.25 11.9992 19.25V20V20.75C13.5537 20.75 15.0156 20.3439 16.2823 19.6315L15.9146 18.9778ZM20 19.9992L20.1819 19.2716L16.0965 18.2502L15.9146 18.9778L15.7327 19.7054L19.8181 20.7268L20 19.9992ZM19.319 15.2316L18.5765 15.3377L19.2575 20.1053L20 19.9992L20.7425 19.8932L20.0614 15.1256L19.319 15.2316Z" fill="black"/>
</svg>
