<svg width="24" height="24" viewBox="0 0 24 24" fill="none" xmlns="http://www.w3.org/2000/svg">
<path d="M15.5207 3.27636C16.6146 3.13648 17.7206 3.54731 18.8429 4.52929L19.0675 4.73242L19.0685 4.73437C20.2718 5.87231 20.8195 7.02642 20.7375 8.20214C20.658 9.33864 19.9995 10.3011 19.2482 11.0947L19.2472 11.0937L11.047 19.7734C10.8152 20.0277 10.5017 20.2443 10.2043 20.4033C9.90524 20.5631 9.55918 20.7001 9.23453 20.7578L9.22964 20.7588L6.00992 21.3076C5.22965 21.4419 4.48141 21.2477 3.94839 20.7422C3.41596 20.2372 3.18057 19.5003 3.26773 18.7158L3.26871 18.7139L3.63785 15.4736L3.6398 15.46L3.6857 15.2129C3.74429 14.9638 3.83834 14.7101 3.94449 14.4824C4.08569 14.1796 4.279 13.8579 4.50699 13.6152L4.50796 13.6143L12.7179 4.92382H12.7189C13.4704 4.12998 14.3933 3.42057 15.5207 3.27636ZM15.7111 4.76464C15.0987 4.84295 14.477 5.24837 13.8087 5.9541L5.59878 14.6445L5.59781 14.6435C5.51593 14.7313 5.4055 14.9004 5.30484 15.1162C5.20406 15.3323 5.14395 15.5319 5.1271 15.6582L4.75894 18.8838C4.71671 19.2681 4.83591 19.5159 4.98062 19.6533C5.12492 19.7902 5.37657 19.8955 5.75601 19.8301H5.75699L8.97183 19.2803C9.09704 19.258 9.29132 19.1902 9.49722 19.0801C9.7048 18.9691 9.86144 18.8494 9.9396 18.7637L9.94839 18.7539L18.1584 10.0644V10.0635C18.827 9.35713 19.1983 8.71364 19.2414 8.09765C19.2815 7.52131 19.0446 6.77636 18.0392 5.82519C17.0387 4.8839 16.2843 4.69134 15.7111 4.76464Z" fill="black"/>
<path d="M11.7776 6.14792C12.1867 6.0843 12.5702 6.3647 12.634 6.77389C13.0112 9.1944 14.9758 11.0465 17.4182 11.2924C17.8302 11.334 18.1306 11.7026 18.0891 12.1147C18.0474 12.5266 17.6797 12.827 17.2678 12.7856C14.1502 12.4716 11.6345 10.1037 11.1516 7.00436C11.088 6.59518 11.3684 6.21167 11.7776 6.14792Z" fill="black"/>
</svg>
