<svg width="14" height="14" viewBox="0 0 14 14" fill="none" xmlns="http://www.w3.org/2000/svg">
<path d="M8.16667 5.83333H10.9457C11.1445 5.83334 11.34 5.88417 11.5137 5.98099C11.6874 6.07781 11.8334 6.21741 11.938 6.38655C12.0425 6.55568 12.1021 6.74872 12.1111 6.94736C12.1201 7.146 12.0781 7.34363 11.9892 7.5215L9.94758 11.6048C9.85067 11.7988 9.70164 11.9619 9.5172 12.0758C9.33276 12.1898 9.12022 12.2501 8.90342 12.25H6.56017C6.46508 12.25 6.37 12.2383 6.27725 12.215L4.08333 11.6667M8.16667 5.83333V2.91667C8.16667 2.60725 8.04375 2.3105 7.82496 2.09171C7.60617 1.87292 7.30942 1.75 7 1.75H6.94458C6.65292 1.75 6.41667 1.98625 6.41667 2.27792C6.41667 2.69442 6.29358 3.10158 6.062 3.44808L4.08333 6.41667V11.6667M8.16667 5.83333H7M4.08333 11.6667H2.91667C2.60725 11.6667 2.3105 11.5437 2.09171 11.325C1.87292 11.1062 1.75 10.8094 1.75 10.5V7C1.75 6.69058 1.87292 6.39383 2.09171 6.17504C2.3105 5.95625 2.60725 5.83333 2.91667 5.83333H4.375" stroke="#8E8E93" stroke-linecap="round" stroke-linejoin="round"/>
</svg>
