<svg width="14" height="14" viewBox="0 0 14 14" fill="none" xmlns="http://www.w3.org/2000/svg">
<path d="M9.9151 2.33333L7.72176 1.785C7.62924 1.76181 7.53423 1.75006 7.43885 1.75H5.09501C4.87831 1.75001 4.66589 1.81037 4.48156 1.92432C4.29724 2.03828 4.1483 2.20132 4.05143 2.39517L2.00976 6.4785C1.92088 6.65637 1.87894 6.854 1.88791 7.05264C1.89688 7.25128 1.95647 7.44432 2.06102 7.61345C2.16558 7.78259 2.31162 7.92219 2.4853 8.01901C2.65897 8.11583 2.85451 8.16666 3.05335 8.16667H5.83235H6.99901M9.9151 2.33333L9.91568 7.58333L7.93701 10.5513C7.70543 10.8984 7.58235 11.3056 7.58235 11.7227C7.58235 12.0138 7.3461 12.25 7.05443 12.25H6.99843C6.68901 12.25 6.39226 12.1271 6.17347 11.9083C5.95468 11.6895 5.83176 11.3928 5.83176 11.0833V8.16667M9.9151 2.33333H11.0823C11.3918 2.33333 11.6885 2.45625 11.9073 2.67504C12.1261 2.89383 12.249 3.19058 12.249 3.5V7C12.249 7.30942 12.1261 7.60617 11.9073 7.82496C11.6885 8.04375 11.3918 8.16667 11.0823 8.16667H9.62401" stroke="#8E8E93" stroke-linecap="round" stroke-linejoin="round"/>
</svg>
