<svg width="21" height="21" viewBox="0 0 21 21" fill="none" xmlns="http://www.w3.org/2000/svg">
<path fill-rule="evenodd" clip-rule="evenodd" d="M15.5306 0.0180833C15.7431 -0.00602777 15.9575 -0.00602777 16.1699 0.0180833C16.7487 0.083775 17.2142 0.35471 17.6318 0.68513C18.0227 0.994362 18.4545 1.42515 18.9512 1.92078L19.0291 1.99841C19.5383 2.50633 19.9801 2.94705 20.2972 3.34655C20.6356 3.77289 20.9141 4.25019 20.9815 4.84667C21.0062 5.06502 21.0062 5.28551 20.9815 5.50386C20.9141 6.10034 20.6356 6.57764 20.2972 7.00398C19.9801 7.40348 19.5383 7.84421 19.0291 8.35213L7.6655 19.6879C7.63796 19.7154 7.61064 19.7427 7.5835 19.7699C7.19427 20.1593 6.8412 20.5125 6.39111 20.7259C6.30625 20.7661 6.21949 20.8021 6.13113 20.8337C5.66253 21.0014 5.16578 21.0007 4.61814 20.9999C4.57996 20.9998 4.54152 20.9998 4.50283 20.9998H4.38408C3.69196 20.9998 3.09086 20.9998 2.60228 20.9438C2.08093 20.884 1.56579 20.7497 1.11056 20.3932C0.919614 20.2437 0.748144 20.0704 0.600228 19.8774C0.247582 19.4172 0.114775 18.8964 0.0555989 18.3694C0.000142171 17.8755 0.000173728 17.2679 0.000210072 16.5682L0.000211909 16.5142C0.000211909 16.4759 0.000158246 16.4379 0.00010491 16.4001C-0.000659042 15.859 -0.00135155 15.3684 0.156952 14.9047C0.196644 14.7885 0.243624 14.6749 0.297604 14.5647C0.51289 14.1251 0.858815 13.781 1.24039 13.4014C1.26702 13.3749 1.29382 13.3483 1.32076 13.3214L12.7493 1.92076C13.2461 1.42514 13.6779 0.994359 14.0687 0.68513C14.4863 0.35471 14.9519 0.083775 15.5306 0.0180833ZM15.9489 2.00826C15.8833 2.00083 15.8172 2.00083 15.7517 2.00826C15.6853 2.0158 15.5634 2.04574 15.2898 2.26216C14.9996 2.49179 14.6489 2.83947 14.1023 3.38473L13.5457 3.94L17.0886 7.47424L17.5982 6.96581C18.158 6.40742 18.5157 6.04838 18.752 5.75067C18.9751 5.46958 19.0055 5.34415 19.0131 5.27661C19.0207 5.20927 19.0207 5.14126 19.0131 5.07392C19.0055 5.00638 18.9751 4.88095 18.752 4.59986C18.5157 4.30215 18.158 3.94311 17.5982 3.38473C17.0517 2.83947 16.7009 2.49179 16.4107 2.26216C16.1372 2.04574 16.0153 2.0158 15.9489 2.00826ZM15.6783 8.88106L12.1354 5.34682L2.71234 14.7469C2.20304 15.2549 2.12168 15.354 2.07309 15.4532C2.05644 15.4872 2.04195 15.5222 2.02971 15.5581C1.99398 15.6627 1.98137 15.7908 1.98137 16.5142C1.98137 17.2835 1.98286 17.7762 2.02412 18.1436C2.06307 18.4905 2.12654 18.5989 2.16643 18.6509C2.21205 18.7104 2.26493 18.7639 2.32382 18.81C2.37532 18.8503 2.48249 18.9145 2.82572 18.9539C3.18917 18.9956 3.6765 18.9971 4.43761 18.9971H4.50283C5.23479 18.9971 5.36404 18.9837 5.46985 18.9459C5.4971 18.9361 5.52386 18.925 5.55003 18.9126C5.65166 18.8644 5.75293 18.7822 6.27392 18.2625L15.6783 8.88106Z" fill="#6C7275"/>
</svg>
