<svg width="24" height="24" viewBox="0 0 24 24" fill="none" xmlns="http://www.w3.org/2000/svg">
<path d="M12.3887 4C16.3675 4 18.9634 5.88379 20.543 7.75391C21.3282 8.68357 21.8644 9.61087 22.2051 10.3057C22.3758 10.6539 22.4991 10.9462 22.5801 11.1543C22.6206 11.2584 22.6503 11.3423 22.6709 11.4014C22.6811 11.4305 22.6888 11.4538 22.6943 11.4707C22.6971 11.479 22.6995 11.486 22.7012 11.4912C22.702 11.4938 22.7026 11.4963 22.7031 11.498L22.7041 11.5V11.501C22.7006 11.5025 22.652 11.519 21.9893 11.7266L22.7002 11.9629V11.9639L22.6904 11.9932C22.6846 12.0099 22.6767 12.0335 22.666 12.0625C22.6447 12.1206 22.6131 12.2025 22.5713 12.3047C22.4877 12.5091 22.3611 12.7955 22.1865 13.1367C21.838 13.8181 21.292 14.7264 20.5 15.6328C18.907 17.456 16.3095 19.2772 12.377 19.2129C8.46044 19.1488 5.8732 17.3366 4.28223 15.5479C3.49096 14.6582 2.94487 13.7739 2.5957 13.1113C2.4208 12.7794 2.29384 12.5012 2.20996 12.3027C2.168 12.2034 2.13672 12.1238 2.11523 12.0674C2.1045 12.0392 2.09672 12.0163 2.09082 12C2.0879 11.9919 2.08477 11.9855 2.08301 11.9805C2.08214 11.978 2.08164 11.9753 2.08105 11.9736L2.08008 11.9717V11.9707L2.78906 11.7266C2.07334 11.5024 2.07312 11.5014 2.07324 11.501L2.07422 11.5V11.498C2.07478 11.4963 2.07631 11.4938 2.07715 11.4912C2.07881 11.4861 2.08027 11.479 2.08301 11.4707C2.0886 11.4538 2.0972 11.4307 2.10742 11.4014C2.128 11.3423 2.15772 11.2584 2.19824 11.1543C2.27923 10.9462 2.40252 10.6539 2.57324 10.3057C2.91393 9.61088 3.45015 8.68353 4.23535 7.75391C5.8149 5.88388 8.41016 4.00012 12.3887 4ZM12.3887 5.5C8.95234 5.50012 6.74738 7.10381 5.38086 8.72168C4.6933 9.53571 4.2206 10.3527 3.91992 10.9658C3.77003 11.2715 3.66414 11.5249 3.59668 11.6982C3.5945 11.7038 3.59194 11.7094 3.58984 11.7148C3.59041 11.7162 3.59123 11.7174 3.5918 11.7188C3.66102 11.8826 3.76993 12.1219 3.92285 12.4121C4.22941 12.9938 4.71014 13.7714 5.40332 14.5508C6.78157 16.1004 8.99481 17.6572 12.4014 17.7129C15.7918 17.7683 17.9939 16.2205 19.3701 14.6455C20.0627 13.8528 20.5444 13.0546 20.8516 12.4541C21.0047 12.1547 21.1131 11.9063 21.1826 11.7363C21.185 11.7305 21.1862 11.7244 21.1885 11.7188C21.1859 11.7122 21.1843 11.705 21.1816 11.6982C21.1142 11.5249 21.0083 11.2716 20.8584 10.9658C20.5577 10.3527 20.0841 9.53575 19.3965 8.72168C18.0299 7.10388 15.825 5.5 12.3887 5.5ZM14.0391 11.6367C14.0391 10.7803 13.3194 10.0508 12.3887 10.0508C11.4582 10.051 10.7393 10.7804 10.7393 11.6367C10.7395 12.4928 11.4583 13.2215 12.3887 13.2217C13.3192 13.2217 14.0388 12.4929 14.0391 11.6367ZM2.78906 11.7266L2.08008 11.9697L2 11.7373L2.07324 11.502L2.78906 11.7266ZM22.7773 11.7324L22.7012 11.9629L21.9893 11.7266L22.7051 11.502L22.7773 11.7324ZM15.5391 11.6367C15.5388 13.3597 14.1088 14.7217 12.3887 14.7217C10.6687 14.7215 9.23948 13.3596 9.23926 11.6367C9.23926 9.91368 10.6686 8.55099 12.3887 8.55078C14.1089 8.55078 15.5391 9.91355 15.5391 11.6367Z" fill="black"/>
</svg>
