<svg width="24" height="24" viewBox="0 0 24 24" fill="none" xmlns="http://www.w3.org/2000/svg">
<path d="M12 2C12.1952 7.43992 16.5601 11.8048 22 12C16.5601 12.1952 12.1952 16.5601 12 22C11.8048 16.5601 7.43992 12.1952 2 12C7.43992 11.8048 11.8048 7.43992 12 2Z" fill="#070F1A"/>
<path d="M12 2C12.1952 7.43992 16.5601 11.8048 22 12C16.5601 12.1952 12.1952 16.5601 12 22C11.8048 16.5601 7.43992 12.1952 2 12C7.43992 11.8048 11.8048 7.43992 12 2ZM12 7.42188C10.9273 9.33894 9.33894 10.9273 7.42188 12C9.33894 13.0727 10.9273 14.6611 12 16.5781C13.0727 14.6611 14.6611 13.0727 16.5781 12C14.6611 10.9273 13.0727 9.33894 12 7.42188Z" fill="#070F1A"/>
</svg>
