<svg width="24" height="24" viewBox="0 0 24 24" fill="none" xmlns="http://www.w3.org/2000/svg">
<g opacity="0.4">
<path d="M10.8843 14.5928C10.8843 13.9815 11.3798 13.486 11.991 13.486C12.6022 13.486 13.0977 13.9815 13.0977 14.5928C13.0977 15.2041 12.6022 15.6997 11.991 15.6997C11.3798 15.6997 10.8843 15.2041 10.8843 14.5928Z" fill="#070F1A"/>
<path d="M8.27882 11.9903C8.27882 11.379 8.7743 10.8834 9.3855 10.8834C9.99671 10.8834 10.4922 11.379 10.4922 11.9903C10.4922 12.6016 9.99671 13.0972 9.3855 13.0972C8.7743 13.0972 8.27882 12.6016 8.27882 11.9903Z" fill="#070F1A"/>
<path d="M13.4859 11.9903C13.4859 11.379 13.9813 10.8834 14.5925 10.8834C15.2037 10.8834 15.6992 11.379 15.6992 11.9903C15.6992 12.6016 15.2037 13.0972 14.5925 13.0972C13.9813 13.0972 13.4859 12.6016 13.4859 11.9903Z" fill="#070F1A"/>
<path d="M10.8843 9.3858C10.8843 8.77449 11.3798 8.27893 11.991 8.27893C12.6022 8.27893 13.0977 8.77449 13.0977 9.3858C13.0977 9.99711 12.6022 10.4927 11.991 10.4927C11.3798 10.4927 10.8843 9.99711 10.8843 9.3858Z" fill="#070F1A"/>
</g>
<path d="M10.3997 4.56848C10.3997 3.69077 11.1112 2.97925 11.9889 2.97925C12.8666 2.97925 13.5781 3.69077 13.5781 4.56848C13.5781 5.44619 12.8666 6.15771 11.9889 6.15771C11.1112 6.15772 10.3997 5.44619 10.3997 4.56848Z" fill="#070F1A"/>
<path d="M10.3997 19.4093C10.3997 18.5316 11.1112 17.8201 11.9889 17.8201C12.8666 17.8201 13.5781 18.5316 13.5781 19.4093C13.5781 20.287 12.8666 20.9985 11.9889 20.9985C11.1112 20.9985 10.3997 20.287 10.3997 19.4093Z" fill="#070F1A"/>
<path d="M15.7004 6.6886C15.7004 5.81089 16.412 5.09937 17.2897 5.09937C18.1674 5.09937 18.8789 5.81089 18.8789 6.6886C18.8789 7.56631 18.1674 8.27783 17.2897 8.27783C16.412 8.27783 15.7004 7.56631 15.7004 6.6886Z" fill="#070F1A"/>
<path d="M5.09888 6.6886C5.09888 5.81089 5.8104 5.09937 6.68811 5.09937C7.56582 5.09937 8.27734 5.81089 8.27734 6.6886C8.27734 7.56631 7.56582 8.27783 6.68811 8.27783C5.8104 8.27783 5.09888 7.56631 5.09888 6.6886Z" fill="#070F1A"/>
<path d="M2.97974 11.9889C2.97974 11.1112 3.69126 10.3997 4.56897 10.3997C5.44668 10.3997 6.1582 11.1112 6.1582 11.9889C6.1582 12.8666 5.44668 13.5781 4.56897 13.5781C3.69126 13.5781 2.97974 12.8666 2.97974 11.9889Z" fill="#070F1A"/>
<path d="M17.8196 11.9889C17.8196 11.1112 18.5311 10.3997 19.4088 10.3997C20.2865 10.3997 20.998 11.1112 20.998 11.9889C20.998 12.8666 20.2865 13.5781 19.4088 13.5781C18.5311 13.5781 17.8196 12.8666 17.8196 11.9889Z" fill="#070F1A"/>
<path d="M15.7004 17.2892C15.7004 16.4115 16.412 15.7 17.2897 15.7C18.1674 15.7 18.8789 16.4115 18.8789 17.2892C18.8789 18.1669 18.1674 18.8784 17.2897 18.8784C16.412 18.8784 15.7004 18.1669 15.7004 17.2892Z" fill="#070F1A"/>
<path d="M5.09888 17.2892C5.09888 16.4115 5.8104 15.7 6.68811 15.7C7.56582 15.7 8.27734 16.4115 8.27734 17.2892C8.27734 18.1669 7.56582 18.8784 6.68811 18.8784C5.8104 18.8784 5.09888 18.1669 5.09888 17.2892Z" fill="#070F1A"/>
</svg>
