<svg width="16" height="16" viewBox="0 0 16 16" fill="none" xmlns="http://www.w3.org/2000/svg">
<path d="M10.393 8.26667V10.98C10.393 11.22 10.3663 11.4467 10.3063 11.6533C10.0597 12.6333 9.24634 13.2467 8.12634 13.2467H6.31301L4.29967 14.5867C3.99967 14.7933 3.59967 14.5733 3.59967 14.2133V13.2467C2.91967 13.2467 2.35301 13.02 1.95967 12.6267C1.55967 12.2267 1.33301 11.66 1.33301 10.98V8.26667C1.33301 7 2.11967 6.12667 3.33301 6.01333C3.41967 6.00667 3.50634 6 3.59967 6H8.12634C9.48634 6 10.393 6.90667 10.393 8.26667Z" fill="white"/>
<path d="M11.833 10.3999C12.6797 10.3999 13.393 10.1199 13.8863 9.61992C14.3863 9.12659 14.6663 8.41325 14.6663 7.56659V4.16659C14.6663 2.59992 13.3997 1.33325 11.833 1.33325H6.16634C4.59967 1.33325 3.33301 2.59992 3.33301 4.16659V4.66659C3.33301 4.85325 3.47967 4.99992 3.66634 4.99992H8.12634C9.93301 4.99992 11.393 6.45992 11.393 8.26658V10.0666C11.393 10.2533 11.5397 10.3999 11.7263 10.3999H11.833V10.3999Z" fill="white"/>
</svg>
