<svg width="13" height="13" viewBox="0 0 13 13" fill="none" xmlns="http://www.w3.org/2000/svg">
<path d="M6.4987 1.08325C3.51411 1.08325 1.08203 3.51534 1.08203 6.49992C1.08203 9.4845 3.51411 11.9166 6.4987 11.9166C9.48328 11.9166 11.9154 9.4845 11.9154 6.49992C11.9154 3.51534 9.48328 1.08325 6.4987 1.08325ZM8.85495 8.43367C8.77912 8.56367 8.6437 8.63409 8.50286 8.63409C8.43245 8.63409 8.36203 8.61784 8.29703 8.5745L6.61787 7.57242C6.20078 7.32325 5.89203 6.77617 5.89203 6.29409V4.07325C5.89203 3.85117 6.0762 3.667 6.29828 3.667C6.52036 3.667 6.70453 3.85117 6.70453 4.07325V6.29409C6.70453 6.48909 6.86703 6.77617 7.03495 6.87367L8.71412 7.87575C8.90911 7.9895 8.97411 8.23867 8.85495 8.43367Z" fill="#096EFD"/>
</svg>
