<svg width="24" height="24" viewBox="0 0 24 24" fill="none" xmlns="http://www.w3.org/2000/svg">
<path d="M4.01172 7.72344C4.0118 6.96174 4.48587 6.36455 5.04492 5.94024C5.61425 5.50819 6.38604 5.16167 7.26172 4.9002C7.65842 4.78193 8.07572 5.00751 8.19434 5.40411C8.31284 5.80101 8.08733 6.21919 7.69043 6.3377C6.9117 6.57023 6.32627 6.85076 5.95215 7.13458C5.56815 7.42598 5.5118 7.63383 5.51172 7.72344C5.51172 7.80212 5.5521 7.96834 5.82617 8.20977C6.09925 8.45025 6.53752 8.70181 7.14355 8.92754C8.34995 9.37686 10.067 9.66973 12 9.66973C13.933 9.66971 15.6501 9.37688 16.8564 8.92754C17.4624 8.70183 17.9008 8.45023 18.1738 8.20977C18.4477 7.96844 18.4883 7.8021 18.4883 7.72344C18.4882 7.63383 18.4318 7.42598 18.0479 7.13458C17.6737 6.85068 17.0876 6.57029 16.3086 6.3377C15.9119 6.21904 15.6862 5.80088 15.8047 5.40411C15.9233 5.00731 16.3414 4.78171 16.7383 4.9002C17.6139 5.16166 18.3858 5.50819 18.9551 5.94024C19.514 6.36454 19.9882 6.96185 19.9883 7.72344C19.9883 11.1997 18.1669 14.2484 15.4639 15.6883V17.8025L15.124 18.0242L13.915 18.8152C13.9126 18.8168 13.9097 18.8176 13.9072 18.8191L8.53516 22.4012V15.6873C5.83263 14.2472 4.01172 11.1993 4.01172 7.72344ZM10.0352 19.5984L13.9639 16.9793V15.2234C13.964 14.9289 14.1369 14.6622 14.4053 14.5408C16.1674 13.7438 17.572 12.0795 18.1719 9.98711C17.9238 10.1127 17.6587 10.229 17.3799 10.3328C15.9667 10.8592 14.0643 11.1697 12 11.1697C9.9357 11.1697 8.03337 10.8592 6.62012 10.3328C6.34077 10.2288 6.07466 10.113 5.82617 9.98711C6.42601 12.0798 7.83246 13.7437 9.59473 14.5408C9.86292 14.6623 10.035 14.929 10.0352 15.2234V19.5984Z" fill="#070F1A"/>
<path d="M12.1607 6.07108C12.1607 5.32155 12.7683 4.71394 13.5179 4.71394C14.2674 4.71394 14.875 5.32155 14.875 6.07108C14.875 6.82061 14.2674 7.42822 13.5179 7.42822C12.7683 7.42822 12.1607 6.82061 12.1607 6.07108Z" fill="#070F1A"/>
<path d="M9.28571 3.35721C9.28571 2.60768 9.89333 2.00007 10.6429 2.00007C11.3924 2.00007 12 2.60768 12 3.35721C12 4.10674 11.3924 4.71436 10.6429 4.71436C9.89333 4.71436 9.28571 4.10674 9.28571 3.35721Z" fill="#070F1A"/>
<path d="M9.44634 7.58987C9.44634 7.09018 9.85141 6.6851 10.3511 6.6851C10.8508 6.6851 11.2559 7.09018 11.2559 7.58987C11.2559 8.08955 10.8508 8.49463 10.3511 8.49463C9.85141 8.49463 9.44634 8.08955 9.44634 7.58987Z" fill="#070F1A"/>
</svg>
