<svg width="10" height="10" viewBox="0 0 10 10" fill="none" xmlns="http://www.w3.org/2000/svg">
<path d="M6.45898 5.47916H5.55482C4.81315 5.47916 4.20898 4.87916 4.20898 4.13332V3.22916C4.20898 3.05832 4.07148 2.91666 3.89648 2.91666H2.57565C1.61315 2.91666 0.833984 3.54166 0.833984 4.65832V7.42499C0.833984 8.54166 1.61315 9.16666 2.57565 9.16666H5.02982C5.99232 9.16666 6.77148 8.54166 6.77148 7.42499V5.79166C6.77148 5.61666 6.62982 5.47916 6.45898 5.47916Z" fill="#8E8E93"/>
<path d="M7.42604 0.833344H6.60521H6.15104H4.97187C4.03021 0.833344 3.26771 1.43334 3.23438 2.50418C3.25937 2.50418 3.28021 2.50001 3.30521 2.50001H4.48437H4.93854H5.75937C6.72187 2.50001 7.50104 3.12501 7.50104 4.24168V5.06251V6.19168V7.01251C7.50104 7.03751 7.49687 7.05834 7.49687 7.07918C8.42604 7.05001 9.16771 6.43334 9.16771 5.34584V4.52501V3.39584V2.57501C9.16771 1.45834 8.38854 0.833344 7.42604 0.833344Z" fill="#8E8E93"/>
<path d="M4.99258 2.97915C4.86341 2.84999 4.64258 2.93749 4.64258 3.11665V4.20832C4.64258 4.66665 5.03008 5.04165 5.50508 5.04165C5.80091 5.04582 6.21341 5.04582 6.56758 5.04582C6.74674 5.04582 6.83841 4.83749 6.71341 4.71249C6.25924 4.25832 5.45091 3.44582 4.99258 2.97915Z" fill="#8E8E93"/>
</svg>
