<svg width="10" height="10" viewBox="0 0 10 10" fill="none" xmlns="http://www.w3.org/2000/svg">
<path d="M6.66667 0.833344H3.33333C1.875 0.833344 1.25 1.66668 1.25 2.91668V7.08334C1.25 8.33334 1.875 9.16668 3.33333 9.16668H6.66667C8.125 9.16668 8.75 8.33334 8.75 7.08334V2.91668C8.75 1.66668 8.125 0.833344 6.66667 0.833344ZM4.3875 6.86251C4.50833 6.98334 4.50833 7.18334 4.3875 7.30418C4.325 7.36668 4.24583 7.39584 4.16667 7.39584C4.0875 7.39584 4.00833 7.36668 3.94583 7.30418L3.1125 6.47084C2.99167 6.35001 2.99167 6.15001 3.1125 6.02918L3.94583 5.19584C4.06667 5.07501 4.26667 5.07501 4.3875 5.19584C4.50833 5.31668 4.50833 5.51668 4.3875 5.63751L3.775 6.25001L4.3875 6.86251ZM6.8875 6.47084L6.05417 7.30418C5.99167 7.36668 5.9125 7.39584 5.83333 7.39584C5.75417 7.39584 5.675 7.36668 5.6125 7.30418C5.49167 7.18334 5.49167 6.98334 5.6125 6.86251L6.225 6.25001L5.6125 5.63751C5.49167 5.51668 5.49167 5.31668 5.6125 5.19584C5.73333 5.07501 5.93333 5.07501 6.05417 5.19584L6.8875 6.02918C7.00833 6.15001 7.00833 6.35001 6.8875 6.47084ZM7.70833 3.85418H6.875C6.24167 3.85418 5.72917 3.34168 5.72917 2.70834V1.87501C5.72917 1.70418 5.87083 1.56251 6.04167 1.56251C6.2125 1.56251 6.35417 1.70418 6.35417 1.87501V2.70834C6.35417 2.99584 6.5875 3.22918 6.875 3.22918H7.70833C7.87917 3.22918 8.02083 3.37084 8.02083 3.54168C8.02083 3.71251 7.87917 3.85418 7.70833 3.85418Z" fill="#8E8E93"/>
</svg>
