<svg width="10" height="10" viewBox="0 0 10 10" fill="none" xmlns="http://www.w3.org/2000/svg">
<path d="M8.75 9.16666H1.25C1.07917 9.16666 0.9375 9.02499 0.9375 8.85416C0.9375 8.68332 1.07917 8.54166 1.25 8.54166H8.75C8.92083 8.54166 9.0625 8.68332 9.0625 8.85416C9.0625 9.02499 8.92083 9.16666 8.75 9.16666Z" fill="#8E8E93"/>
<path d="M7.92475 1.44999C7.11641 0.641661 6.32475 0.620828 5.49558 1.44999L4.99141 1.95416C4.94975 1.99583 4.93308 2.06249 4.94975 2.12083C5.26641 3.22499 6.14975 4.10833 7.25391 4.42499C7.27058 4.42916 7.28725 4.43333 7.30391 4.43333C7.34975 4.43333 7.39141 4.41666 7.42475 4.38333L7.92475 3.87916C8.33725 3.47083 8.53725 3.07499 8.53725 2.67499C8.54141 2.26249 8.34141 1.86249 7.92475 1.44999Z" fill="#8E8E93"/>
<path d="M6.50544 4.80415C6.38461 4.74581 6.26794 4.68748 6.15544 4.62081C6.06377 4.56665 5.97627 4.50831 5.88877 4.44581C5.81794 4.39998 5.73461 4.33331 5.65544 4.26665C5.64711 4.26248 5.61794 4.23748 5.58461 4.20415C5.44711 4.08748 5.29294 3.93748 5.15544 3.77081C5.14294 3.76248 5.12211 3.73331 5.09294 3.69581C5.05127 3.64581 4.98044 3.56248 4.91794 3.46665C4.86794 3.40415 4.80961 3.31248 4.75544 3.22081C4.68877 3.10831 4.63044 2.99581 4.57211 2.87915V2.87915C4.49562 2.71526 4.28052 2.66657 4.15263 2.79445L1.80961 5.13748C1.75544 5.19165 1.70544 5.29581 1.69294 5.36665L1.46794 6.96248C1.42627 7.24581 1.50544 7.51248 1.68044 7.69165C1.83044 7.83748 2.03877 7.91665 2.26377 7.91665C2.31377 7.91665 2.36377 7.91248 2.41377 7.90415L4.01377 7.67915C4.08877 7.66665 4.19294 7.61665 4.24294 7.56248L6.58983 5.21559C6.71516 5.09026 6.66807 4.87462 6.50544 4.80415V4.80415Z" fill="#8E8E93"/>
</svg>
