<svg width="267" height="150" viewBox="0 0 267 150" fill="none" xmlns="http://www.w3.org/2000/svg">
<g clip-path="url(#clip0_176_10240)">
<rect width="267" height="150" fill="url(#paint0_linear_176_10240)"/>
<rect width="267" height="150" fill="url(#paint1_linear_176_10240)"/>
<path opacity="0.4" d="M35 32C35 25.3726 40.3726 20 47 20H220.11C226.737 20 232.11 25.3726 232.11 32V127.981C232.11 134.609 226.737 139.981 220.11 139.981H47C40.3726 139.981 35 134.609 35 127.981V32Z" fill="white"/>
<g filter="url(#filter0_d_176_10240)">
<path d="M20 42C20 35.3726 25.3726 30 32 30H235C241.627 30 247 35.3726 247 42V156C247 162.627 241.627 168 235 168H32C25.3726 168 20 162.627 20 156V42Z" fill="white"/>
</g>
<rect x="30.5" y="40.5" width="206" height="127" rx="7.5" stroke="#EEEEEF"/>
<rect x="82" y="160" width="115" height="0.5" rx="0.25" transform="rotate(-90 82 160)" fill="#EEEEEF"/>
<rect x="31" y="54" width="205" height="0.5" rx="0.25" fill="#EEEEEF"/>
<rect x="31" y="74" width="205" height="0.5" rx="0.25" fill="#EEEEEF"/>
<rect x="134" y="160" width="115" height="0.5" rx="0.25" transform="rotate(-90 134 160)" fill="#EEEEEF"/>
<rect x="185" y="160" width="115" height="0.5" rx="0.25" transform="rotate(-90 185 160)" fill="#EEEEEF"/>
<rect x="35" y="45.0005" width="43" height="6" rx="3" fill="#EEEEEF"/>
<rect x="86" y="45.0005" width="44" height="6" rx="3" fill="#EEEEEF"/>
<rect x="137" y="45.0005" width="44" height="6" rx="3" fill="#EEEEEF"/>
<rect x="189" y="45.0005" width="43" height="6" rx="3" fill="#EEEEEF"/>
<rect x="35" y="59" width="31" height="4" rx="2" fill="#EEEEEF"/>
<rect x="86" y="59" width="41" height="4" rx="2" fill="#EEEEEF"/>
<rect x="86" y="65" width="21" height="4" rx="2" fill="#EEEEEF"/>
<rect x="204" y="59" width="14" height="4" rx="2" fill="#EEEEEF"/>
<rect x="137" y="59" width="44" height="4" rx="2" fill="#EEEEEF"/>
<rect x="35" y="79" width="31" height="4" rx="2" fill="#EEEEEF"/>
<rect x="86" y="79" width="41" height="4" rx="2" fill="#EEEEEF"/>
<rect x="86" y="85" width="21" height="4" rx="2" fill="#EEEEEF"/>
<rect x="204" y="79" width="14" height="4" rx="2" fill="#EEEEEF"/>
<rect x="137" y="79" width="44" height="4" rx="2" fill="#EEEEEF"/>
<rect x="31" y="94" width="205" height="0.5" rx="0.25" fill="#EEEEEF"/>
<rect x="35" y="99" width="31" height="4" rx="2" fill="#EEEEEF"/>
<rect x="86" y="99" width="41" height="4" rx="2" fill="#EEEEEF"/>
<rect x="86" y="105" width="21" height="4" rx="2" fill="#EEEEEF"/>
<rect x="204" y="99" width="14" height="4" rx="2" fill="#EEEEEF"/>
<rect x="137" y="99" width="44" height="4" rx="2" fill="#EEEEEF"/>
<rect x="31" y="114" width="205" height="0.5" rx="0.25" fill="#EEEEEF"/>
<rect x="35" y="119" width="31" height="4" rx="2" fill="#EEEEEF"/>
<rect x="86" y="119" width="41" height="4" rx="2" fill="#EEEEEF"/>
<rect x="86" y="125" width="21" height="4" rx="2" fill="#EEEEEF"/>
<rect x="204" y="119" width="14" height="4" rx="2" fill="#EEEEEF"/>
<rect x="137" y="119" width="44" height="4" rx="2" fill="#EEEEEF"/>
<rect x="31" y="134" width="205" height="0.5" rx="0.25" fill="#EEEEEF"/>
<rect x="35" y="139" width="31" height="4" rx="2" fill="#EEEEEF"/>
<rect x="86" y="139" width="41" height="4" rx="2" fill="#EEEEEF"/>
<rect x="86" y="145" width="21" height="4" rx="2" fill="#EEEEEF"/>
<rect x="204" y="139" width="14" height="4" rx="2" fill="#EEEEEF"/>
<rect x="137" y="139" width="44" height="4" rx="2" fill="#EEEEEF"/>
</g>
<defs>
<filter id="filter0_d_176_10240" x="8" y="18" width="251" height="162" filterUnits="userSpaceOnUse" color-interpolation-filters="sRGB">
<feFlood flood-opacity="0" result="BackgroundImageFix"/>
<feColorMatrix in="SourceAlpha" type="matrix" values="0 0 0 0 0 0 0 0 0 0 0 0 0 0 0 0 0 0 127 0" result="hardAlpha"/>
<feOffset/>
<feGaussianBlur stdDeviation="6"/>
<feComposite in2="hardAlpha" operator="out"/>
<feColorMatrix type="matrix" values="0 0 0 0 0 0 0 0 0 0 0 0 0 0 0 0 0 0 0.2 0"/>
<feBlend mode="normal" in2="BackgroundImageFix" result="effect1_dropShadow_176_10240"/>
<feBlend mode="normal" in="SourceGraphic" in2="effect1_dropShadow_176_10240" result="shape"/>
</filter>
<linearGradient id="paint0_linear_176_10240" x1="6.50001" y1="150" x2="228" y2="14.5" gradientUnits="userSpaceOnUse">
<stop stop-color="#FFB264"/>
<stop offset="1" stop-color="#EBFEC3"/>
</linearGradient>
<linearGradient id="paint1_linear_176_10240" x1="6.50001" y1="150" x2="228" y2="14.5" gradientUnits="userSpaceOnUse">
<stop stop-color="#36C76A"/>
<stop offset="1" stop-color="#EBFEC3"/>
</linearGradient>
<clipPath id="clip0_176_10240">
<rect width="267" height="150" fill="white"/>
</clipPath>
</defs>
</svg>
