<svg width="24" height="24" viewBox="0 0 24 24" fill="none" xmlns="http://www.w3.org/2000/svg">
<path d="M4.60129 16.5498C4.27336 16.5498 4.00142 16.2916 4.00142 15.9803V11.6519C3.96143 9.59402 4.76925 7.65004 6.27293 6.19206C7.7766 4.74167 9.79217 3.94434 11.9597 3.94434C16.3907 3.94434 19.998 7.36908 19.998 11.576V15.9044C19.998 16.2157 19.726 16.4739 19.3981 16.4739C19.0702 16.4739 18.7982 16.2157 18.7982 15.9044V11.576C18.7982 7.99935 15.7349 5.08339 11.9597 5.08339C10.1121 5.08339 8.40047 5.75922 7.12874 6.9894C5.84902 8.22716 5.16916 9.87499 5.20116 11.6367V15.9727C5.20116 16.2916 4.93721 16.5498 4.60129 16.5498Z" fill="#A684FF"/>
<path d="M7.15327 11.842H7.04929C5.36966 11.842 4.00195 13.1406 4.00195 14.7352V16.1628C4.00195 17.7575 5.36966 19.056 7.04929 19.056H7.15327C8.83291 19.056 10.2006 17.7575 10.2006 16.1628V14.7352C10.2006 13.1406 8.83291 11.842 7.15327 11.842Z" fill="#A684FF"/>
<path d="M16.9541 11.842H16.8501C15.1704 11.842 13.8027 13.1406 13.8027 14.7352V16.1628C13.8027 17.7575 15.1704 19.056 16.8501 19.056H16.9541C18.6337 19.056 20.0014 17.7575 20.0014 16.1628V14.7352C20.0014 13.1406 18.6337 11.842 16.9541 11.842Z" fill="#A684FF"/>
</svg>
