<svg width="267" height="150" viewBox="0 0 267 150" fill="none" xmlns="http://www.w3.org/2000/svg">
<g clip-path="url(#clip0_176_10301)">
<rect width="267" height="150" fill="url(#paint0_linear_176_10301)"/>
<rect width="267" height="150" fill="url(#paint1_linear_176_10301)"/>
<path opacity="0.4" d="M35 32C35 25.3726 40.3726 20 47 20H220.11C226.737 20 232.11 25.3726 232.11 32V127.981C232.11 134.609 226.737 139.981 220.11 139.981H47C40.3726 139.981 35 134.609 35 127.981V32Z" fill="white"/>
<g filter="url(#filter0_d_176_10301)">
<path d="M20 42C20 35.3726 25.3726 30 32 30H235C241.627 30 247 35.3726 247 42V156C247 162.627 241.627 168 235 168H32C25.3726 168 20 162.627 20 156V42Z" fill="white"/>
</g>
<rect x="44" y="120" width="76" height="8" rx="4" fill="#EEEEEF"/>
<rect x="49" y="48" width="183" height="8" rx="4" fill="#EEEEEF"/>
<rect x="63" y="59" width="169" height="8" rx="4" fill="#EEEEEF"/>
<rect x="80" y="70" width="152" height="8" rx="4" fill="#EEEEEF"/>
<rect x="75" y="81" width="157" height="8" rx="4" fill="#EEEEEF"/>
<rect x="104" y="92" width="128" height="8" rx="4" fill="#EEEEEF"/>
<rect x="35.5" y="112.5" width="168" height="23" rx="11.5" stroke="#EEEEEF"/>
<rect x="208" y="112" width="24" height="24" rx="12" fill="#EEEEEF"/>
</g>
<defs>
<filter id="filter0_d_176_10301" x="8" y="18" width="251" height="162" filterUnits="userSpaceOnUse" color-interpolation-filters="sRGB">
<feFlood flood-opacity="0" result="BackgroundImageFix"/>
<feColorMatrix in="SourceAlpha" type="matrix" values="0 0 0 0 0 0 0 0 0 0 0 0 0 0 0 0 0 0 127 0" result="hardAlpha"/>
<feOffset/>
<feGaussianBlur stdDeviation="6"/>
<feComposite in2="hardAlpha" operator="out"/>
<feColorMatrix type="matrix" values="0 0 0 0 0 0 0 0 0 0 0 0 0 0 0 0 0 0 0.2 0"/>
<feBlend mode="normal" in2="BackgroundImageFix" result="effect1_dropShadow_176_10301"/>
<feBlend mode="normal" in="SourceGraphic" in2="effect1_dropShadow_176_10301" result="shape"/>
</filter>
<linearGradient id="paint0_linear_176_10301" x1="6.50001" y1="150" x2="228" y2="14.5" gradientUnits="userSpaceOnUse">
<stop stop-color="#FFB264"/>
<stop offset="1" stop-color="#EBFEC3"/>
</linearGradient>
<linearGradient id="paint1_linear_176_10301" x1="6.50001" y1="150" x2="228" y2="14.5" gradientUnits="userSpaceOnUse">
<stop stop-color="#3670C7"/>
<stop offset="1" stop-color="#C3E1FE"/>
</linearGradient>
<clipPath id="clip0_176_10301">
<rect width="267" height="150" fill="white"/>
</clipPath>
</defs>
</svg>
