<svg width="10" height="10" viewBox="0 0 10 10" fill="none" xmlns="http://www.w3.org/2000/svg">
<path d="M3.18789 8.71249C3.17539 8.71249 3.15872 8.72082 3.14622 8.72082C2.33789 8.32082 1.67956 7.65832 1.27539 6.84999C1.27539 6.83749 1.28372 6.82082 1.28372 6.80832C1.79206 6.95832 2.31706 7.07082 2.83789 7.15832C2.92956 7.68332 3.03789 8.20415 3.18789 8.71249Z" fill="#8E8E93"/>
<path d="M3.18789 8.71249C3.17539 8.71249 3.15872 8.72082 3.14622 8.72082C2.33789 8.32082 1.67956 7.65832 1.27539 6.84999C1.27539 6.83749 1.28372 6.82082 1.28372 6.80832C1.79206 6.95832 2.31706 7.07082 2.83789 7.15832C2.92956 7.68332 3.03789 8.20415 3.18789 8.71249Z" fill="#8E8E93"/>
<path d="M8.72461 6.85415C8.31211 7.68332 7.62461 8.35415 6.78711 8.75832C6.94544 8.22915 7.07878 7.69582 7.16628 7.15832C7.69128 7.07082 8.20794 6.95832 8.71628 6.80832C8.71211 6.82499 8.72461 6.84165 8.72461 6.85415Z" fill="#8E8E93"/>
<path d="M8.72461 6.85415C8.31211 7.68332 7.62461 8.35415 6.78711 8.75832C6.94544 8.22915 7.07878 7.69582 7.16628 7.15832C7.69128 7.07082 8.20794 6.95832 8.71628 6.80832C8.71211 6.82499 8.72461 6.84165 8.72461 6.85415Z" fill="#8E8E93"/>
<path d="M8.75794 3.2125C8.23294 3.05417 7.70378 2.925 7.16628 2.83334C7.07878 2.29584 6.94961 1.7625 6.78711 1.24167C7.64961 1.65417 8.34544 2.35 8.75794 3.2125Z" fill="#8E8E93"/>
<path d="M8.75794 3.2125C8.23294 3.05417 7.70378 2.925 7.16628 2.83334C7.07878 2.29584 6.94961 1.7625 6.78711 1.24167C7.64961 1.65417 8.34544 2.35 8.75794 3.2125Z" fill="#8E8E93"/>
<path d="M3.18607 1.28749C3.03607 1.79583 2.92773 2.31249 2.84023 2.83749C2.30273 2.92083 1.7694 3.05416 1.24023 3.21249C1.6444 2.37499 2.31523 1.68749 3.1444 1.27499C3.1569 1.27499 3.17357 1.28749 3.18607 1.28749Z" fill="#8E8E93"/>
<path d="M3.18607 1.28749C3.03607 1.79583 2.92773 2.31249 2.84023 2.83749C2.30273 2.92083 1.7694 3.05416 1.24023 3.21249C1.6444 2.37499 2.31523 1.68749 3.1444 1.27499C3.1569 1.27499 3.17357 1.28749 3.18607 1.28749Z" fill="#8E8E93"/>
<path d="M6.45326 2.74581C5.48659 2.63748 4.51159 2.63748 3.54492 2.74581C3.64909 2.17498 3.78242 1.60415 3.96992 1.05415C3.97826 1.02081 3.97409 0.995813 3.97826 0.96248C4.30742 0.883313 4.64492 0.833313 4.99909 0.833313C5.34909 0.833313 5.69076 0.883313 6.01576 0.96248C6.01992 0.995813 6.01992 1.02081 6.02826 1.05415C6.21576 1.60831 6.34909 2.17498 6.45326 2.74581Z" fill="#8E8E93"/>
<path d="M6.45326 2.74581C5.48659 2.63748 4.51159 2.63748 3.54492 2.74581C3.64909 2.17498 3.78242 1.60415 3.96992 1.05415C3.97826 1.02081 3.97409 0.995813 3.97826 0.96248C4.30742 0.883313 4.64492 0.833313 4.99909 0.833313C5.34909 0.833313 5.69076 0.883313 6.01576 0.96248C6.01992 0.995813 6.01992 1.02081 6.02826 1.05415C6.21576 1.60831 6.34909 2.17498 6.45326 2.74581Z" fill="#8E8E93"/>
<path d="M2.74453 6.45417C2.16953 6.35 1.60286 6.21667 1.05286 6.02917C1.01953 6.02084 0.994531 6.025 0.961198 6.02084C0.882031 5.69167 0.832031 5.35417 0.832031 5C0.832031 4.65 0.882031 4.30834 0.961198 3.98334C0.994531 3.97917 1.01953 3.97917 1.05286 3.97084C1.60703 3.7875 2.16953 3.65 2.74453 3.54584C2.64036 4.5125 2.64036 5.4875 2.74453 6.45417Z" fill="#8E8E93"/>
<path d="M2.74453 6.45417C2.16953 6.35 1.60286 6.21667 1.05286 6.02917C1.01953 6.02084 0.994531 6.025 0.961198 6.02084C0.882031 5.69167 0.832031 5.35417 0.832031 5C0.832031 4.65 0.882031 4.30834 0.961198 3.98334C0.994531 3.97917 1.01953 3.97917 1.05286 3.97084C1.60703 3.7875 2.16953 3.65 2.74453 3.54584C2.64036 4.5125 2.64036 5.4875 2.74453 6.45417Z" fill="#8E8E93"/>
<path d="M9.16641 5C9.16641 5.35417 9.11641 5.69167 9.03724 6.02084C9.00391 6.025 8.97891 6.02084 8.94557 6.02917C8.39141 6.2125 7.82474 6.35 7.25391 6.45417C7.36224 5.4875 7.36224 4.5125 7.25391 3.54584C7.82474 3.65 8.39557 3.78334 8.94557 3.97084C8.97891 3.97917 9.00391 3.98334 9.03724 3.98334C9.11641 4.3125 9.16641 4.65 9.16641 5Z" fill="#8E8E93"/>
<path d="M9.16641 5C9.16641 5.35417 9.11641 5.69167 9.03724 6.02084C9.00391 6.025 8.97891 6.02084 8.94557 6.02917C8.39141 6.2125 7.82474 6.35 7.25391 6.45417C7.36224 5.4875 7.36224 4.5125 7.25391 3.54584C7.82474 3.65 8.39557 3.78334 8.94557 3.97084C8.97891 3.97917 9.00391 3.98334 9.03724 3.98334C9.11641 4.3125 9.16641 4.65 9.16641 5Z" fill="#8E8E93"/>
<path d="M6.45326 7.25418C6.34909 7.82918 6.21576 8.39585 6.02826 8.94585C6.01992 8.97918 6.01992 9.00418 6.01576 9.03751C5.69076 9.11668 5.34909 9.16668 4.99909 9.16668C4.64492 9.16668 4.30742 9.11668 3.97826 9.03751C3.97409 9.00418 3.97826 8.97918 3.96992 8.94585C3.78659 8.39168 3.64909 7.82918 3.54492 7.25418C4.02826 7.30835 4.51159 7.34585 4.99909 7.34585C5.48659 7.34585 5.97409 7.30835 6.45326 7.25418Z" fill="#8E8E93"/>
<path d="M6.45326 7.25418C6.34909 7.82918 6.21576 8.39585 6.02826 8.94585C6.01992 8.97918 6.01992 9.00418 6.01576 9.03751C5.69076 9.11668 5.34909 9.16668 4.99909 9.16668C4.64492 9.16668 4.30742 9.11668 3.97826 9.03751C3.97409 9.00418 3.97826 8.97918 3.96992 8.94585C3.78659 8.39168 3.64909 7.82918 3.54492 7.25418C4.02826 7.30835 4.51159 7.34585 4.99909 7.34585C5.48659 7.34585 5.97409 7.30835 6.45326 7.25418Z" fill="#8E8E93"/>
<path d="M6.56675 6.56803C5.52463 6.69952 4.47277 6.69952 3.43064 6.56803C3.29916 5.52591 3.29916 4.47405 3.43064 3.43193C4.47277 3.30044 5.52463 3.30044 6.56675 3.43193C6.69824 4.47405 6.69824 5.52591 6.56675 6.56803Z" fill="#8E8E93"/>
<path d="M6.56675 6.56803C5.52463 6.69952 4.47277 6.69952 3.43064 6.56803C3.29916 5.52591 3.29916 4.47405 3.43064 3.43193C4.47277 3.30044 5.52463 3.30044 6.56675 3.43193C6.69824 4.47405 6.69824 5.52591 6.56675 6.56803Z" fill="#8E8E93"/>
</svg>
