<svg width="13" height="13" viewBox="0 0 13 13" fill="none" xmlns="http://www.w3.org/2000/svg">
<path d="M11.8003 11.245L11.4103 10.855C11.6107 10.5517 11.7299 10.1834 11.7299 9.79335C11.7299 8.72085 10.8632 7.85419 9.79073 7.85419C8.71823 7.85419 7.85156 8.72085 7.85156 9.79335C7.85156 10.8659 8.71823 11.7325 9.79073 11.7325C10.1861 11.7325 10.5491 11.6134 10.8524 11.4129L11.2424 11.8029C11.3182 11.8788 11.4211 11.9167 11.5186 11.9167C11.6216 11.9167 11.7191 11.8788 11.7949 11.8029C11.952 11.6459 11.952 11.3967 11.8003 11.245Z" fill="#8E8E93"/>
<path d="M1.10068 7.92459C1.10068 7.94084 1.08984 7.96251 1.08984 7.97876C1.58818 8.97542 2.40068 9.79334 3.39734 10.2863C3.41359 10.2863 3.43526 10.2754 3.45151 10.2754C3.26734 9.64709 3.12651 9.00251 3.02359 8.35792C2.37359 8.24959 1.72901 8.10876 1.10068 7.92459Z" fill="#8E8E93"/>
<path d="M10.3305 3.4829C9.82135 2.41581 8.9601 1.55456 7.89844 1.05081C8.09344 1.6954 8.25594 2.35623 8.36427 3.01706C9.0251 3.1254 9.68594 3.28248 10.3305 3.4829Z" fill="#8E8E93"/>
<path d="M1.04297 3.4829C1.69297 3.2879 2.3538 3.1254 3.01464 3.01706C3.12297 2.37248 3.25839 1.73331 3.44255 1.10498C3.4263 1.10498 3.40464 1.09415 3.38839 1.09415C2.37005 1.5979 1.5413 2.44831 1.04297 3.4829Z" fill="#8E8E93"/>
<path d="M7.48339 2.90335C7.35339 2.19919 7.19089 1.49502 6.95797 0.81252C6.94714 0.774604 6.94714 0.742104 6.94172 0.69877C6.54089 0.60127 6.11839 0.541687 5.68505 0.541687C5.2463 0.541687 4.82922 0.60127 4.42297 0.704187C4.41755 0.742104 4.42297 0.774604 4.41214 0.817937C4.18464 1.50044 4.01672 2.19919 3.88672 2.90335C5.0838 2.77335 6.2863 2.77335 7.48339 2.90335Z" fill="#8E8E93"/>
<path d="M2.90073 3.88916C2.19115 4.01916 1.49781 4.18708 0.809896 4.41458C0.771979 4.42541 0.739479 4.42541 0.701562 4.43083C0.598646 4.83166 0.539062 5.25416 0.539062 5.68749C0.539062 6.12624 0.598646 6.54333 0.701562 6.94958C0.739479 6.95499 0.771979 6.94958 0.815313 6.96041C1.49781 7.18791 2.19656 7.35583 2.90615 7.48583C2.77073 6.28874 2.77073 5.08624 2.90073 3.88916Z" fill="#8E8E93"/>
<path d="M10.6694 4.43083C10.6315 4.43083 10.599 4.42541 10.5557 4.41458C9.87318 4.18708 9.16901 4.01916 8.46484 3.88916C8.60026 5.08624 8.60026 6.28874 8.46484 7.48041C9.16901 7.35041 9.87318 7.18791 10.5557 6.95499C10.5936 6.94416 10.6261 6.94958 10.6694 6.94416C10.7669 6.53791 10.8319 6.12083 10.8319 5.68208C10.8319 5.25416 10.7723 4.83708 10.6694 4.43083Z" fill="#8E8E93"/>
<path d="M3.88672 8.47166C4.01672 9.18125 4.17922 9.88 4.41214 10.5625C4.42297 10.6004 4.41755 10.6329 4.42297 10.6762C4.82922 10.7737 5.2463 10.8333 5.68505 10.8333C6.11839 10.8333 6.54089 10.7737 6.94172 10.6708C6.94714 10.6329 6.94714 10.6004 6.95797 10.5571C7.18547 9.87458 7.35339 9.17583 7.48339 8.46625C6.88755 8.53125 6.2863 8.58 5.68505 8.58C5.0838 8.58 4.48255 8.53666 3.88672 8.47166Z" fill="#8E8E93"/>
<path d="M3.7625 3.76458C3.6 5.04291 3.6 6.33208 3.7625 7.61583C5.04083 7.77833 6.33 7.77833 7.61375 7.61583C7.77625 6.33749 7.77625 5.04833 7.61375 3.76458C6.33 3.60208 5.04083 3.60208 3.7625 3.76458Z" fill="#8E8E93"/>
</svg>
