<svg width="40" height="40" viewBox="0 0 40 40" fill="none" xmlns="http://www.w3.org/2000/svg">
<rect width="40" height="40" fill="#070F1A"/>
<path d="M20 24.875V25.535C20 26.9375 19.4375 27.5 18.0275 27.5H14.465C13.3775 27.5 12.5 26.6225 12.5 25.535V21.9725C12.5 20.5625 13.0625 20 14.465 20H15.125V22.625C15.125 23.87 16.13 24.875 17.375 24.875H20Z" fill="white"/>
<path d="M23.75 21.125V21.7775C23.75 22.865 22.865 23.75 21.7775 23.75H18.215C16.8125 23.75 16.25 23.1875 16.25 21.7775V18.215C16.25 17.1275 17.1275 16.25 18.215 16.25H18.875V18.875C18.875 20.12 19.88 21.125 21.125 21.125H23.75Z" fill="white"/>
<path d="M27.5 14.465V18.0275C27.5 19.4375 26.9375 20 25.5275 20H21.965C20.5625 20 20 19.4375 20 18.0275V14.465C20 13.0625 20.5625 12.5 21.965 12.5H25.5275C26.9375 12.5 27.5 13.0625 27.5 14.465Z" fill="#0084FF"/>
</svg>
