<svg width="40" height="40" viewBox="0 0 40 40" fill="none" xmlns="http://www.w3.org/2000/svg">
<rect width="40" height="40" rx="7" fill="#F3F5F7"/>
<g opacity="0.1">
<path d="M30.0206 24.82L26.8906 17.5C26.3206 16.16 25.4706 15.4 24.5006 15.35C23.5406 15.3 22.6106 15.97 21.9006 17.25L20.0006 20.66C19.6006 21.38 19.0306 21.81 18.4106 21.86C17.7806 21.92 17.1506 21.59 16.6406 20.94L16.4206 20.66C15.7106 19.77 14.8306 19.34 13.9306 19.43C13.0306 19.52 12.2606 20.14 11.7506 21.15L10.0206 24.6C9.40063 25.85 9.46063 27.3 10.1906 28.48C10.9206 29.66 12.1906 30.37 13.5806 30.37H26.3406C27.6806 30.37 28.9306 29.7 29.6706 28.58C30.4306 27.46 30.5506 26.05 30.0206 24.82Z" fill="#070F1A"/>
<path d="M14.9698 16.38C16.8366 16.38 18.3498 14.8667 18.3498 13C18.3498 11.1333 16.8366 9.62 14.9698 9.62C13.1031 9.62 11.5898 11.1333 11.5898 13C11.5898 14.8667 13.1031 16.38 14.9698 16.38Z" fill="#070F1A"/>
</g>
</svg>
