<svg width="24" height="24" viewBox="0 0 24 24" fill="none" xmlns="http://www.w3.org/2000/svg">
<rect opacity="0.1" width="24" height="24" rx="12" fill="#0084FF"/>
<path d="M15.75 16.4791H8.25C8.07917 16.4791 7.9375 16.3375 7.9375 16.1666C7.9375 15.9958 8.07917 15.8541 8.25 15.8541H15.75C15.9208 15.8541 16.0625 15.9958 16.0625 16.1666C16.0625 16.3375 15.9208 16.4791 15.75 16.4791Z" fill="#0084FF"/>
<path d="M9.33333 10.4916H8.66667C8.4375 10.4916 8.25 10.6791 8.25 10.9082V14.4999C8.25 14.7291 8.4375 14.9166 8.66667 14.9166H9.33333C9.5625 14.9166 9.75 14.7291 9.75 14.4999V10.9082C9.75 10.6749 9.5625 10.4916 9.33333 10.4916Z" fill="#0084FF"/>
<path d="M12.3333 9.16248H11.6667C11.4375 9.16248 11.25 9.34998 11.25 9.57914V14.5C11.25 14.7291 11.4375 14.9166 11.6667 14.9166H12.3333C12.5625 14.9166 12.75 14.7291 12.75 14.5V9.57914C12.75 9.34998 12.5625 9.16248 12.3333 9.16248Z" fill="#0084FF"/>
<path d="M15.3324 7.83337H14.6657C14.4365 7.83337 14.249 8.02087 14.249 8.25004V14.5C14.249 14.7292 14.4365 14.9167 14.6657 14.9167H15.3324C15.5615 14.9167 15.749 14.7292 15.749 14.5V8.25004C15.749 8.02087 15.5615 7.83337 15.3324 7.83337Z" fill="#0084FF"/>
</svg>
