<svg width="180" height="40" viewBox="0 0 180 40" fill="none" xmlns="http://www.w3.org/2000/svg">
<rect width="180" height="40" rx="20" fill="#8B09FD" fill-opacity="0.03"/>
<rect x="0.5" y="0.5" width="179" height="39" rx="19.5" stroke="#8B09FD" stroke-opacity="0.15"/>
<rect opacity="0.1" x="8" y="8" width="24" height="24" rx="12" fill="#8B09FD"/>
<path d="M41.1186 25V14.8182H42.6548V19.2429H47.7308V14.8182H49.272V25H47.7308V20.5604H42.6548V25H41.1186ZM53.1922 25.169C52.7083 25.169 52.2708 25.0795 51.8797 24.9006C51.4886 24.7183 51.1787 24.4548 50.95 24.1101C50.7246 23.7654 50.612 23.3428 50.612 22.8423C50.612 22.4115 50.6948 22.0568 50.8605 21.7784C51.0263 21.5 51.25 21.2796 51.5317 21.1172C51.8134 20.9548 52.1283 20.8321 52.4763 20.7493C52.8243 20.6664 53.179 20.6035 53.5402 20.5604C53.9976 20.5073 54.3688 20.4643 54.6539 20.4311C54.9389 20.3946 55.1461 20.3366 55.2753 20.2571C55.4046 20.1776 55.4692 20.0483 55.4692 19.8693V19.8345C55.4692 19.4003 55.3466 19.0639 55.1013 18.8253C54.8594 18.5866 54.4981 18.4673 54.0175 18.4673C53.517 18.4673 53.1226 18.5784 52.8343 18.8004C52.5492 19.0192 52.352 19.2628 52.2426 19.5312L50.8456 19.2131C51.0113 18.7491 51.2533 18.3745 51.5715 18.0895C51.893 17.8011 52.2625 17.5923 52.6801 17.4631C53.0978 17.3305 53.5369 17.2642 53.9976 17.2642C54.3025 17.2642 54.6257 17.3007 54.9671 17.3736C55.3118 17.4432 55.6333 17.5724 55.9316 17.7614C56.2332 17.9503 56.4801 18.2204 56.6723 18.5717C56.8646 18.9197 56.9607 19.3722 56.9607 19.929V25H55.509V23.956H55.4493C55.3532 24.1482 55.209 24.3371 55.0168 24.5227C54.8246 24.7083 54.5776 24.8625 54.276 24.9851C53.9744 25.1077 53.6131 25.169 53.1922 25.169ZM53.5154 23.9759C53.9264 23.9759 54.2777 23.8946 54.5693 23.7322C54.8643 23.5698 55.088 23.3577 55.2405 23.0959C55.3963 22.8307 55.4742 22.5473 55.4742 22.2457V21.2614C55.4211 21.3144 55.3184 21.3641 55.1659 21.4105C55.0168 21.4536 54.8461 21.4917 54.6539 21.5249C54.4616 21.5547 54.2744 21.5829 54.0921 21.6094C53.9098 21.6326 53.7573 21.6525 53.6347 21.669C53.3463 21.7055 53.0828 21.7668 52.8442 21.853C52.6089 21.9392 52.42 22.0634 52.2774 22.2259C52.1382 22.3849 52.0686 22.5971 52.0686 22.8622C52.0686 23.2301 52.2045 23.5085 52.4763 23.6974C52.7481 23.883 53.0944 23.9759 53.5154 23.9759ZM61.7372 25.1541C60.9981 25.1541 60.3618 24.9867 59.8281 24.652C59.2978 24.3139 58.8902 23.8482 58.6051 23.255C58.3201 22.6617 58.1776 21.9822 58.1776 21.2166C58.1776 20.4411 58.3234 19.7566 58.6151 19.1634C58.9067 18.5668 59.3177 18.1011 59.848 17.7663C60.3783 17.4316 61.0031 17.2642 61.7223 17.2642C62.3023 17.2642 62.8194 17.3719 63.2735 17.5874C63.7275 17.7995 64.0938 18.0978 64.3722 18.4822C64.6539 18.8667 64.8213 19.3158 64.8743 19.8295H63.4276C63.348 19.4716 63.1657 19.1634 62.8807 18.9048C62.599 18.6463 62.2211 18.517 61.7472 18.517C61.3329 18.517 60.97 18.6264 60.6584 18.8452C60.3502 19.0606 60.1099 19.3688 59.9375 19.7699C59.7652 20.1676 59.679 20.6383 59.679 21.1818C59.679 21.7386 59.7635 22.2192 59.9325 22.6236C60.1016 23.0279 60.3402 23.3411 60.6485 23.5632C60.96 23.7853 61.3263 23.8963 61.7472 23.8963C62.0289 23.8963 62.2841 23.8449 62.5128 23.7422C62.7448 23.6361 62.9387 23.4853 63.0945 23.2898C63.2536 23.0942 63.3646 22.8589 63.4276 22.5838H64.8743C64.8213 23.0777 64.6605 23.5185 64.3921 23.9062C64.1236 24.294 63.764 24.599 63.3132 24.821C62.8658 25.0431 62.3405 25.1541 61.7372 25.1541ZM65.466 18.6463V17.3636H71.9092V18.6463H69.4184V25H67.9667V18.6463H65.466ZM73.0615 27.8636V17.3636H74.5132V18.6016H74.6375C74.7236 18.4425 74.8479 18.2585 75.0103 18.0497C75.1727 17.8409 75.3981 17.6586 75.6865 17.5028C75.9748 17.3438 76.356 17.2642 76.8299 17.2642C77.4464 17.2642 77.9966 17.42 78.4805 17.7315C78.9644 18.0431 79.3439 18.4922 79.619 19.0788C79.8974 19.6655 80.0366 20.3714 80.0366 21.1967C80.0366 22.022 79.8991 22.7296 79.624 23.3196C79.3489 23.9062 78.971 24.3587 78.4905 24.6768C78.0099 24.9917 77.4613 25.1491 76.8449 25.1491C76.3808 25.1491 76.0013 25.0713 75.7064 24.9155C75.4147 24.7597 75.186 24.5774 75.0203 24.3686C74.8546 24.1598 74.727 23.9742 74.6375 23.8118H74.548V27.8636H73.0615ZM74.5182 21.1818C74.5182 21.7187 74.596 22.1894 74.7518 22.5938C74.9076 22.9981 75.133 23.3146 75.428 23.5433C75.7229 23.7687 76.0842 23.8814 76.5118 23.8814C76.9559 23.8814 77.3271 23.7637 77.6254 23.5284C77.9237 23.2898 78.1491 22.9666 78.3015 22.5589C78.4573 22.1513 78.5352 21.6922 78.5352 21.1818C78.5352 20.678 78.459 20.2256 78.3065 19.8246C78.1574 19.4235 77.932 19.107 77.6304 18.875C77.3321 18.643 76.9592 18.527 76.5118 18.527C76.0809 18.527 75.7163 18.638 75.418 18.8601C75.123 19.0821 74.8993 19.392 74.7468 19.7898C74.5944 20.1875 74.5182 20.6515 74.5182 21.1818ZM84.4987 25.1541C83.7828 25.1541 83.1581 24.9901 82.6244 24.6619C82.0908 24.3338 81.6765 23.8748 81.3815 23.2848C81.0866 22.6948 80.9391 22.0054 80.9391 21.2166C80.9391 20.4245 81.0866 19.7318 81.3815 19.1385C81.6765 18.5452 82.0908 18.0845 82.6244 17.7564C83.1581 17.4283 83.7828 17.2642 84.4987 17.2642C85.2146 17.2642 85.8394 17.4283 86.373 17.7564C86.9066 18.0845 87.3209 18.5452 87.6159 19.1385C87.9109 19.7318 88.0584 20.4245 88.0584 21.2166C88.0584 22.0054 87.9109 22.6948 87.6159 23.2848C87.3209 23.8748 86.9066 24.3338 86.373 24.6619C85.8394 24.9901 85.2146 25.1541 84.4987 25.1541ZM84.5037 23.9062C84.9677 23.9062 85.3522 23.7836 85.6571 23.5384C85.962 23.2931 86.1874 22.9666 86.3332 22.5589C86.4824 22.1513 86.557 21.7022 86.557 21.2116C86.557 20.7244 86.4824 20.277 86.3332 19.8693C86.1874 19.4583 85.962 19.1286 85.6571 18.88C85.3522 18.6314 84.9677 18.5071 84.5037 18.5071C84.0364 18.5071 83.6486 18.6314 83.3403 18.88C83.0354 19.1286 82.8084 19.4583 82.6592 19.8693C82.5134 20.277 82.4405 20.7244 82.4405 21.2116C82.4405 21.7022 82.5134 22.1513 82.6592 22.5589C82.8084 22.9666 83.0354 23.2931 83.3403 23.5384C83.6486 23.7836 84.0364 23.9062 84.5037 23.9062ZM90.7543 22.9169L94.1201 17.3636H95.7209V25H94.2643V19.4418L90.9134 25H89.2976V17.3636H90.7543V22.9169ZM93.4837 14.7784H94.7067C94.7067 15.3385 94.5079 15.7943 94.1101 16.1456C93.7157 16.4936 93.1821 16.6676 92.5093 16.6676C91.8398 16.6676 91.3078 16.4936 90.9134 16.1456C90.519 15.7943 90.3218 15.3385 90.3218 14.7784H91.5398C91.5398 15.027 91.6128 15.2474 91.7586 15.4396C91.9044 15.6286 92.1547 15.723 92.5093 15.723C92.8573 15.723 93.1059 15.6286 93.255 15.4396C93.4075 15.2507 93.4837 15.0303 93.4837 14.7784ZM97.2995 25V17.3636H98.786V20.5653H99.5019L102.023 17.3636H103.862L100.904 21.0774L103.897 25H102.052L99.7505 21.9474H98.786V25H97.2995ZM106.088 22.9169L109.454 17.3636H111.055V25H109.598V19.4418L106.247 25H104.631V17.3636H106.088V22.9169ZM120.204 23.1605L122.67 17.3636H123.953L120.756 25H119.652L116.52 17.3636H117.788L120.204 23.1605ZM117.375 17.3636V25H115.918V17.3636H117.375ZM123.073 25V17.3636H124.519V25H123.073ZM129.297 25.1541C128.581 25.1541 127.956 24.9901 127.423 24.6619C126.889 24.3338 126.475 23.8748 126.18 23.2848C125.885 22.6948 125.737 22.0054 125.737 21.2166C125.737 20.4245 125.885 19.7318 126.18 19.1385C126.475 18.5452 126.889 18.0845 127.423 17.7564C127.956 17.4283 128.581 17.2642 129.297 17.2642C130.013 17.2642 130.638 17.4283 131.171 17.7564C131.705 18.0845 132.119 18.5452 132.414 19.1385C132.709 19.7318 132.857 20.4245 132.857 21.2166C132.857 22.0054 132.709 22.6948 132.414 23.2848C132.119 23.8748 131.705 24.3338 131.171 24.6619C130.638 24.9901 130.013 25.1541 129.297 25.1541ZM129.302 23.9062C129.766 23.9062 130.151 23.7836 130.455 23.5384C130.76 23.2931 130.986 22.9666 131.132 22.5589C131.281 22.1513 131.355 21.7022 131.355 21.2116C131.355 20.7244 131.281 20.277 131.132 19.8693C130.986 19.4583 130.76 19.1286 130.455 18.88C130.151 18.6314 129.766 18.5071 129.302 18.5071C128.835 18.5071 128.447 18.6314 128.139 18.88C127.834 19.1286 127.607 19.4583 127.458 19.8693C127.312 20.277 127.239 20.7244 127.239 21.2116C127.239 21.7022 127.312 22.1513 127.458 22.5589C127.607 22.9666 127.834 23.2931 128.139 23.5384C128.447 23.7836 128.835 23.9062 129.302 23.9062ZM133.35 27.2024V23.7124H133.972C134.131 23.5665 134.265 23.3925 134.374 23.1903C134.487 22.9882 134.582 22.7479 134.658 22.4695C134.737 22.1911 134.804 21.8662 134.857 21.495C134.91 21.1205 134.956 20.6929 134.996 20.2124L135.235 17.3636H140.425V23.7124H141.598V27.2024H140.146V25H134.822V27.2024H133.35ZM135.563 23.7124H138.973V18.6364H136.567L136.408 20.2124C136.332 21.0144 136.235 21.7105 136.119 22.3004C136.003 22.8871 135.818 23.3577 135.563 23.7124ZM145.922 25.1541C145.17 25.1541 144.522 24.9934 143.978 24.6719C143.438 24.3471 143.021 23.8913 142.726 23.3047C142.434 22.7147 142.288 22.0237 142.288 21.2315C142.288 20.4493 142.434 19.7599 142.726 19.1634C143.021 18.5668 143.432 18.1011 143.959 17.7663C144.489 17.4316 145.109 17.2642 145.818 17.2642C146.249 17.2642 146.666 17.3355 147.071 17.478C147.475 17.6205 147.838 17.8442 148.159 18.1491C148.481 18.4541 148.735 18.8501 148.92 19.3374C149.106 19.8213 149.199 20.4096 149.199 21.1023V21.6293H143.128V20.5156H147.742C147.742 20.1245 147.662 19.7782 147.503 19.4766C147.344 19.1716 147.12 18.9313 146.832 18.7557C146.547 18.58 146.212 18.4922 145.828 18.4922C145.41 18.4922 145.046 18.5949 144.734 18.8004C144.426 19.0026 144.187 19.2678 144.018 19.5959C143.852 19.9207 143.77 20.2737 143.77 20.6548V21.5249C143.77 22.0353 143.859 22.4695 144.038 22.8274C144.22 23.1854 144.474 23.4588 144.799 23.6477C145.124 23.8333 145.503 23.9261 145.937 23.9261C146.219 23.9261 146.476 23.8864 146.708 23.8068C146.94 23.724 147.14 23.6013 147.309 23.4389C147.478 23.2765 147.608 23.076 147.697 22.8374L149.104 23.0909C148.991 23.5052 148.789 23.8681 148.498 24.1797C148.209 24.4879 147.846 24.7282 147.409 24.9006C146.975 25.0696 146.479 25.1541 145.922 25.1541ZM149.826 25L149.821 23.7124H150.095C150.307 23.7124 150.484 23.6676 150.627 23.5781C150.773 23.4853 150.892 23.3295 150.985 23.1108C151.078 22.892 151.149 22.5904 151.198 22.206C151.248 21.8182 151.285 21.331 151.308 20.7443L151.442 17.3636H156.772V25H155.315V18.6463H152.819L152.7 21.2415C152.67 21.8712 152.605 22.4214 152.506 22.892C152.41 23.3627 152.269 23.7554 152.083 24.0703C151.898 24.3819 151.659 24.6155 151.368 24.7713C151.076 24.9238 150.721 25 150.304 25H149.826ZM159.791 22.9169L163.156 17.3636H164.757V25H163.301V19.4418L159.95 25H158.334V17.3636H159.791V22.9169Z" fill="#070F1A"/>
<path d="M23.75 24.4791H16.25C16.0792 24.4791 15.9375 24.3375 15.9375 24.1666C15.9375 23.9958 16.0792 23.8541 16.25 23.8541H23.75C23.9208 23.8541 24.0625 23.9958 24.0625 24.1666C24.0625 24.3375 23.9208 24.4791 23.75 24.4791Z" fill="#8B09FD"/>
<path d="M17.3333 18.4916H16.6667C16.4375 18.4916 16.25 18.6791 16.25 18.9082V22.4999C16.25 22.7291 16.4375 22.9166 16.6667 22.9166H17.3333C17.5625 22.9166 17.75 22.7291 17.75 22.4999V18.9082C17.75 18.6749 17.5625 18.4916 17.3333 18.4916Z" fill="#8B09FD"/>
<path d="M20.3333 17.1625H19.6667C19.4375 17.1625 19.25 17.35 19.25 17.5791V22.5C19.25 22.7291 19.4375 22.9166 19.6667 22.9166H20.3333C20.5625 22.9166 20.75 22.7291 20.75 22.5V17.5791C20.75 17.35 20.5625 17.1625 20.3333 17.1625Z" fill="#8B09FD"/>
<path d="M23.3324 15.8334H22.6657C22.4365 15.8334 22.249 16.0209 22.249 16.25V22.5C22.249 22.7292 22.4365 22.9167 22.6657 22.9167H23.3324C23.5615 22.9167 23.749 22.7292 23.749 22.5V16.25C23.749 16.0209 23.5615 15.8334 23.3324 15.8334Z" fill="#8B09FD"/>
</svg>
