<svg width="38" height="38" viewBox="0 0 38 38" fill="none" xmlns="http://www.w3.org/2000/svg">
<rect width="38" height="38" rx="10" fill="#27A6E5"/>
<rect width="38" height="38" rx="10" fill="url(#paint0_radial_130_7217)"/>
<path d="M19 10.8072C21.6506 10.8072 22.012 10.8072 23.0964 10.8072C24.0602 10.8072 24.5422 11.0482 24.9036 11.1687C25.3855 11.4096 25.747 11.5301 26.1084 11.8916C26.4699 12.253 26.7108 12.6145 26.8313 13.0964C26.9518 13.4578 27.0723 13.9398 27.1928 14.9036C27.1928 15.988 27.1928 16.2289 27.1928 19C27.1928 21.7711 27.1928 22.012 27.1928 23.0964C27.1928 24.0602 26.9518 24.5422 26.8313 24.9036C26.5904 25.3855 26.4699 25.747 26.1084 26.1084C25.747 26.4699 25.3855 26.7108 24.9036 26.8313C24.5422 26.9518 24.0602 27.0723 23.0964 27.1928C22.012 27.1928 21.7711 27.1928 19 27.1928C16.2289 27.1928 15.988 27.1928 14.9036 27.1928C13.9398 27.1928 13.4578 26.9518 13.0964 26.8313C12.6145 26.5904 12.253 26.4699 11.8916 26.1084C11.5301 25.747 11.2892 25.3855 11.1687 24.9036C11.0482 24.5422 10.9277 24.0602 10.8072 23.0964C10.8072 22.012 10.8072 21.7711 10.8072 19C10.8072 16.2289 10.8072 15.988 10.8072 14.9036C10.8072 13.9398 11.0482 13.4578 11.1687 13.0964C11.4096 12.6145 11.5301 12.253 11.8916 11.8916C12.253 11.5301 12.6145 11.2892 13.0964 11.1687C13.4578 11.0482 13.9398 10.9277 14.9036 10.8072C15.988 10.8072 16.3494 10.8072 19 10.8072ZM19 9C16.2289 9 15.988 9 14.9036 9C13.8193 9 13.0964 9.24096 12.494 9.48193C11.8916 9.72289 11.2892 10.0843 10.6867 10.6867C10.0843 11.2892 9.84337 11.7711 9.48193 12.494C9.24096 13.0964 9.12048 13.8193 9 14.9036C9 15.988 9 16.3494 9 19C9 21.7711 9 22.012 9 23.0964C9 24.1807 9.24096 24.9036 9.48193 25.506C9.72289 26.1084 10.0843 26.7108 10.6867 27.3133C11.2892 27.9157 11.7711 28.1566 12.494 28.5181C13.0964 28.759 13.8193 28.8795 14.9036 29C15.988 29 16.3494 29 19 29C21.6506 29 22.012 29 23.0964 29C24.1807 29 24.9036 28.759 25.506 28.5181C26.1084 28.2771 26.7108 27.9157 27.3133 27.3133C27.9157 26.7108 28.1566 26.2289 28.5181 25.506C28.759 24.9036 28.8795 24.1807 29 23.0964C29 22.012 29 21.6506 29 19C29 16.3494 29 15.988 29 14.9036C29 13.8193 28.759 13.0964 28.5181 12.494C28.2771 11.8916 27.9157 11.2892 27.3133 10.6867C26.7108 10.0843 26.2289 9.84337 25.506 9.48193C24.9036 9.24096 24.1807 9.12048 23.0964 9C22.012 9 21.7711 9 19 9Z" fill="white"/>
<path d="M19 13.8193C16.1084 13.8193 13.8193 16.1084 13.8193 19C13.8193 21.8916 16.1084 24.1807 19 24.1807C21.8916 24.1807 24.1807 21.8916 24.1807 19C24.1807 16.1084 21.8916 13.8193 19 13.8193ZM19 22.3735C17.1928 22.3735 15.6265 20.9277 15.6265 19C15.6265 17.1928 17.0723 15.6265 19 15.6265C20.8072 15.6265 22.3735 17.0723 22.3735 19C22.3735 20.8072 20.8072 22.3735 19 22.3735Z" fill="white"/>
<path d="M24.3012 14.9036C24.9666 14.9036 25.506 14.3642 25.506 13.6988C25.506 13.0334 24.9666 12.494 24.3012 12.494C23.6358 12.494 23.0964 13.0334 23.0964 13.6988C23.0964 14.3642 23.6358 14.9036 24.3012 14.9036Z" fill="white"/>
<defs>
<radialGradient id="paint0_radial_130_7217" cx="0" cy="0" r="1" gradientUnits="userSpaceOnUse" gradientTransform="translate(38.7645 0.771876) scale(87.7533)">
<stop stop-color="#F9ED32"/>
<stop offset="0.36" stop-color="#EE2A7B"/>
<stop offset="0.44" stop-color="#D22A8A"/>
<stop offset="0.6" stop-color="#8B2AB2"/>
<stop offset="0.83" stop-color="#1B2AF0"/>
<stop offset="0.88" stop-color="#002AFF"/>
</radialGradient>
</defs>
</svg>
