<svg width="24" height="24" viewBox="0 0 24 24" fill="none" xmlns="http://www.w3.org/2000/svg">
<rect opacity="0.1" width="24" height="24" rx="12" fill="#FF900D"/>
<path d="M13.9198 7.91663H10.0789C8.4106 7.91663 7.41602 8.91121 7.41602 10.5795V14.4158C7.41602 16.0887 8.4106 17.0833 10.0789 17.0833H13.9152C15.5835 17.0833 16.5781 16.0887 16.5781 14.4204V10.5795C16.5827 8.91121 15.5881 7.91663 13.9198 7.91663ZM11.7702 14.9062C11.7702 15.0712 11.6052 15.1812 11.4539 15.117C10.8993 14.8787 10.1752 14.6587 9.67102 14.5945L9.58393 14.5854C9.30435 14.5487 9.07518 14.2875 9.07518 14.0033V10.4741C9.07518 10.1212 9.35935 9.85996 9.70768 9.88746C10.2806 9.93329 11.1285 10.2083 11.6602 10.5108C11.7335 10.552 11.7702 10.63 11.7702 10.7079V14.9062ZM14.9235 13.9987C14.9235 14.2829 14.6943 14.5441 14.4148 14.5808L14.3185 14.59C13.8189 14.6587 13.0993 14.8741 12.5448 15.1079C12.3935 15.172 12.2285 15.062 12.2285 14.897V10.7033C12.2285 10.6208 12.2698 10.5429 12.3431 10.5016C12.8748 10.2037 13.7043 9.93788 14.2681 9.88746H14.2864C14.6393 9.88746 14.9235 10.1716 14.9235 10.5245V13.9987Z" fill="#FF900D"/>
</svg>
