<svg width="24" height="24" viewBox="0 0 24 24" fill="none" xmlns="http://www.w3.org/2000/svg">
<path d="M19.0698 19.82C18.8798 19.82 18.6898 19.75 18.5398 19.6C18.2498 19.31 18.2498 18.83 18.5398 18.54C22.1498 14.93 22.1498 9.06 18.5398 5.46C18.2498 5.17 18.2498 4.69 18.5398 4.4C18.8298 4.11 19.3098 4.11 19.5998 4.4C23.7898 8.59 23.7898 15.41 19.5998 19.6C19.4498 19.75 19.2598 19.82 19.0698 19.82Z" fill="#B3B7B9"/>
<path d="M4.93031 19.82C4.74031 19.82 4.55031 19.75 4.40031 19.6C0.210312 15.41 0.210312 8.59 4.40031 4.4C4.69031 4.11 5.17031 4.11 5.46031 4.4C5.75031 4.69 5.75031 5.17 5.46031 5.46C1.85031 9.07 1.85031 14.94 5.46031 18.54C5.75031 18.83 5.75031 19.31 5.46031 19.6C5.31031 19.75 5.12031 19.82 4.93031 19.82Z" fill="#B3B7B9"/>
<path d="M12.0007 22.71C10.7507 22.7 9.56074 22.5 8.45074 22.11C8.06074 21.97 7.85074 21.54 7.99074 21.15C8.13074 20.76 8.55074 20.55 8.95074 20.69C9.91074 21.02 10.9307 21.2 12.0107 21.2C13.0807 21.2 14.1107 21.02 15.0607 20.69C15.4507 20.56 15.8807 20.76 16.0207 21.15C16.1607 21.54 15.9507 21.97 15.5607 22.11C14.4407 22.5 13.2507 22.71 12.0007 22.71Z" fill="#B3B7B9"/>
<path d="M15.3007 3.34C15.2207 3.34 15.1307 3.33 15.0507 3.3C14.1007 2.96 13.0707 2.79 12.0007 2.79C10.9307 2.79 9.91074 2.97 8.95074 3.3C8.55074 3.43 8.13074 3.23 7.99074 2.84C7.85074 2.45 8.06074 2.02 8.45074 1.88C9.57074 1.49 10.7607 1.29 12.0007 1.29C13.2407 1.29 14.4407 1.49 15.5507 1.88C15.9407 2.02 16.1507 2.45 16.0107 2.84C15.9007 3.15 15.6107 3.34 15.3007 3.34Z" fill="#B3B7B9"/>
<path d="M11.0225 14.2809V14.1932C11.0286 13.6207 11.0856 13.1652 11.1933 12.8267C11.3041 12.4882 11.461 12.2143 11.6642 12.005C11.8673 11.7957 12.1119 11.6049 12.3982 11.4325C12.5828 11.3156 12.749 11.1848 12.8968 11.0401C13.0445 10.8955 13.1614 10.7293 13.2476 10.5415C13.3338 10.3538 13.3769 10.1461 13.3769 9.91832C13.3769 9.64441 13.3122 9.40743 13.183 9.20739C13.0537 9.00734 12.8814 8.85346 12.6659 8.74574C12.4536 8.63494 12.2166 8.57954 11.955 8.57954C11.718 8.57954 11.4918 8.62879 11.2764 8.72727C11.0609 8.82576 10.8824 8.97964 10.7409 9.18892C10.5993 9.39512 10.5177 9.66134 10.4962 9.98757H9.09277C9.11432 9.43359 9.25435 8.96579 9.51287 8.58416C9.7714 8.19946 10.113 7.90862 10.5377 7.71165C10.9655 7.51468 11.4379 7.41619 11.955 7.41619C12.5213 7.41619 13.0168 7.52237 13.4415 7.73473C13.8662 7.94401 14.1955 8.23793 14.4294 8.61648C14.6664 8.99195 14.7849 9.43052 14.7849 9.93217C14.7849 10.2769 14.731 10.5877 14.6233 10.8647C14.5156 11.1386 14.3617 11.3833 14.1617 11.5987C13.9647 11.8142 13.7277 12.005 13.4507 12.1712C13.1891 12.3343 12.9768 12.5036 12.8137 12.679C12.6536 12.8544 12.5367 13.0621 12.4628 13.3022C12.3889 13.5423 12.3489 13.8393 12.3428 14.1932V14.2809H11.0225ZM11.7195 17.0877C11.4672 17.0877 11.2502 16.9985 11.0686 16.82C10.887 16.6384 10.7963 16.4199 10.7963 16.1644C10.7963 15.9121 10.887 15.6966 11.0686 15.5181C11.2502 15.3365 11.4672 15.2457 11.7195 15.2457C11.9688 15.2457 12.1843 15.3365 12.3659 15.5181C12.5505 15.6966 12.6428 15.9121 12.6428 16.1644C12.6428 16.3337 12.5998 16.4891 12.5136 16.6307C12.4305 16.7692 12.3197 16.88 12.1812 16.9631C12.0427 17.0462 11.8888 17.0877 11.7195 17.0877Z" fill="#B3B7B9"/>
</svg>
