<svg width="170" height="40" viewBox="0 0 170 40" fill="none" xmlns="http://www.w3.org/2000/svg">
<rect width="170" height="40" rx="20" fill="#0084FF" fill-opacity="0.03"/>
<rect x="0.5" y="0.5" width="169" height="39" rx="19.5" stroke="#0084FF" stroke-opacity="0.15"/>
<rect opacity="0.1" x="8" y="8" width="24" height="24" rx="12" fill="#0084FF"/>
<path d="M49.5753 18.1293H48.0241C47.9645 17.7978 47.8535 17.5062 47.6911 17.2543C47.5286 17.0024 47.3298 16.7886 47.0945 16.6129C46.8591 16.4373 46.5956 16.3047 46.304 16.2152C46.0156 16.1257 45.709 16.081 45.3842 16.081C44.7976 16.081 44.2723 16.2285 43.8082 16.5234C43.3475 16.8184 42.983 17.2509 42.7145 17.821C42.4493 18.3911 42.3168 19.0871 42.3168 19.9091C42.3168 20.7377 42.4493 21.437 42.7145 22.0071C42.983 22.5772 43.3492 23.008 43.8132 23.2997C44.2772 23.5914 44.7992 23.7372 45.3793 23.7372C45.7008 23.7372 46.0057 23.6941 46.294 23.608C46.5857 23.5185 46.8492 23.3875 47.0845 23.2152C47.3198 23.0429 47.5187 22.8324 47.6811 22.5838C47.8468 22.3319 47.9612 22.0436 48.0241 21.7188L49.5753 21.7237C49.4924 22.2242 49.3317 22.6849 49.093 23.1058C48.8577 23.5234 48.5545 23.8847 48.1832 24.1896C47.8153 24.4912 47.3944 24.7249 46.9205 24.8906C46.4465 25.0563 45.9295 25.1392 45.3693 25.1392C44.4877 25.1392 43.7022 24.9304 43.0128 24.5128C42.3234 24.0919 41.7798 23.4903 41.3821 22.7081C40.9877 21.9259 40.7905 20.9929 40.7905 19.9091C40.7905 18.822 40.9893 17.889 41.3871 17.1101C41.7848 16.3279 42.3284 15.728 43.0178 15.3104C43.7071 14.8894 44.491 14.679 45.3693 14.679C45.9096 14.679 46.4134 14.7569 46.8807 14.9126C47.3513 15.0651 47.7739 15.2905 48.1484 15.5888C48.523 15.8838 48.8329 16.245 49.0781 16.6726C49.3234 17.0968 49.4891 17.5824 49.5753 18.1293ZM55.1597 23.1605L57.6256 17.3636H58.9083L55.7116 25H54.6079L51.4758 17.3636H52.7435L55.1597 23.1605ZM52.3309 17.3636V25H50.8742V17.3636H52.3309ZM58.0283 25V17.3636H59.4751V25H58.0283ZM64.2529 25.1541C63.537 25.1541 62.9122 24.9901 62.3786 24.6619C61.845 24.3338 61.4307 23.8748 61.1357 23.2848C60.8407 22.6948 60.6932 22.0054 60.6932 21.2166C60.6932 20.4245 60.8407 19.7318 61.1357 19.1385C61.4307 18.5452 61.845 18.0845 62.3786 17.7564C62.9122 17.4283 63.537 17.2642 64.2529 17.2642C64.9688 17.2642 65.5935 17.4283 66.1272 17.7564C66.6608 18.0845 67.0751 18.5452 67.37 19.1385C67.665 19.7318 67.8125 20.4245 67.8125 21.2166C67.8125 22.0054 67.665 22.6948 67.37 23.2848C67.0751 23.8748 66.6608 24.3338 66.1272 24.6619C65.5935 24.9901 64.9688 25.1541 64.2529 25.1541ZM64.2578 23.9062C64.7218 23.9062 65.1063 23.7836 65.4112 23.5384C65.7162 23.2931 65.9415 22.9666 66.0874 22.5589C66.2365 22.1513 66.3111 21.7022 66.3111 21.2116C66.3111 20.7244 66.2365 20.277 66.0874 19.8693C65.9415 19.4583 65.7162 19.1286 65.4112 18.88C65.1063 18.6314 64.7218 18.5071 64.2578 18.5071C63.7905 18.5071 63.4027 18.6314 63.0945 18.88C62.7896 19.1286 62.5625 19.4583 62.4134 19.8693C62.2675 20.277 62.1946 20.7244 62.1946 21.2116C62.1946 21.7022 62.2675 22.1513 62.4134 22.5589C62.5625 22.9666 62.7896 23.2931 63.0945 23.5384C63.4027 23.7836 63.7905 23.9062 64.2578 23.9062ZM68.132 18.6463V17.3636H74.5752V18.6463H72.0845V25H70.6328V18.6463H68.132ZM75.7275 27.8636V17.3636H77.1792V18.6016H77.3035C77.3897 18.4425 77.514 18.2585 77.6764 18.0497C77.8388 17.8409 78.0641 17.6586 78.3525 17.5028C78.6408 17.3438 79.022 17.2642 79.496 17.2642C80.1124 17.2642 80.6626 17.42 81.1465 17.7315C81.6304 18.0431 82.0099 18.4922 82.285 19.0788C82.5634 19.6655 82.7026 20.3714 82.7026 21.1967C82.7026 22.022 82.5651 22.7296 82.29 23.3196C82.0149 23.9062 81.6371 24.3587 81.1565 24.6768C80.6759 24.9917 80.1274 25.1491 79.5109 25.1491C79.0469 25.1491 78.6674 25.0713 78.3724 24.9155C78.0807 24.7597 77.852 24.5774 77.6863 24.3686C77.5206 24.1598 77.393 23.9742 77.3035 23.8118H77.214V27.8636H75.7275ZM77.1842 21.1818C77.1842 21.7187 77.2621 22.1894 77.4178 22.5938C77.5736 22.9981 77.799 23.3146 78.094 23.5433C78.389 23.7687 78.7502 23.8814 79.1778 23.8814C79.6219 23.8814 79.9931 23.7637 80.2914 23.5284C80.5897 23.2898 80.8151 22.9666 80.9675 22.5589C81.1233 22.1513 81.2012 21.6922 81.2012 21.1818C81.2012 20.678 81.125 20.2256 80.9725 19.8246C80.8234 19.4235 80.598 19.107 80.2964 18.875C79.9981 18.643 79.6252 18.527 79.1778 18.527C78.7469 18.527 78.3823 18.638 78.084 18.8601C77.789 19.0821 77.5653 19.392 77.4129 19.7898C77.2604 20.1875 77.1842 20.6515 77.1842 21.1818ZM87.2393 25.1541C86.4869 25.1541 85.839 24.9934 85.2954 24.6719C84.7552 24.3471 84.3376 23.8913 84.0426 23.3047C83.7509 22.7147 83.6051 22.0237 83.6051 21.2315C83.6051 20.4493 83.7509 19.7599 84.0426 19.1634C84.3376 18.5668 84.7485 18.1011 85.2755 17.7663C85.8058 17.4316 86.4256 17.2642 87.1349 17.2642C87.5658 17.2642 87.9834 17.3355 88.3878 17.478C88.7921 17.6205 89.155 17.8442 89.4765 18.1491C89.798 18.4541 90.0516 18.8501 90.2372 19.3374C90.4228 19.8213 90.5156 20.4096 90.5156 21.1023V21.6293H84.4453V20.5156H89.0589C89.0589 20.1245 88.9794 19.7782 88.8203 19.4766C88.6612 19.1716 88.4375 18.9313 88.1491 18.7557C87.8641 18.58 87.5293 18.4922 87.1449 18.4922C86.7272 18.4922 86.3627 18.5949 86.0511 18.8004C85.7429 19.0026 85.5042 19.2678 85.3352 19.5959C85.1695 19.9207 85.0866 20.2737 85.0866 20.6548V21.5249C85.0866 22.0353 85.1761 22.4695 85.3551 22.8274C85.5374 23.1854 85.7909 23.4588 86.1157 23.6477C86.4405 23.8333 86.82 23.9261 87.2542 23.9261C87.536 23.9261 87.7928 23.8864 88.0248 23.8068C88.2568 23.724 88.4574 23.6013 88.6264 23.4389C88.7954 23.2765 88.9247 23.076 89.0142 22.8374L90.4211 23.0909C90.3084 23.5052 90.1063 23.8681 89.8146 24.1797C89.5262 24.4879 89.1633 24.7282 88.7258 24.9006C88.2916 25.0696 87.7961 25.1541 87.2393 25.1541ZM91.0713 18.6463V17.3636H97.5144V18.6463H95.0237V25H93.572V18.6463H91.0713ZM99.7853 19.9886H102.003C102.937 19.9886 103.657 20.2206 104.16 20.6847C104.664 21.1487 104.916 21.7469 104.916 22.4794C104.916 22.9567 104.803 23.3859 104.578 23.767C104.353 24.1482 104.023 24.4498 103.589 24.6719C103.154 24.8906 102.626 25 102.003 25H98.6667V17.3636H100.123V23.7173H102.003C102.43 23.7173 102.782 23.6063 103.057 23.3842C103.332 23.1589 103.469 22.8722 103.469 22.5241C103.469 22.1562 103.332 21.8563 103.057 21.6243C102.782 21.389 102.43 21.2713 102.003 21.2713H99.7853V19.9886ZM112.664 25.1541C111.925 25.1541 111.289 24.9867 110.755 24.652C110.225 24.3139 109.817 23.8482 109.532 23.255C109.247 22.6617 109.105 21.9822 109.105 21.2166C109.105 20.4411 109.251 19.7566 109.542 19.1634C109.834 18.5668 110.245 18.1011 110.775 17.7663C111.306 17.4316 111.93 17.2642 112.65 17.2642C113.23 17.2642 113.747 17.3719 114.201 17.5874C114.655 17.7995 115.021 18.0978 115.299 18.4822C115.581 18.8667 115.748 19.3158 115.801 19.8295H114.355C114.275 19.4716 114.093 19.1634 113.808 18.9048C113.526 18.6463 113.148 18.517 112.674 18.517C112.26 18.517 111.897 18.6264 111.586 18.8452C111.277 19.0606 111.037 19.3688 110.865 19.7699C110.692 20.1676 110.606 20.6383 110.606 21.1818C110.606 21.7386 110.691 22.2192 110.86 22.6236C111.029 23.0279 111.267 23.3411 111.576 23.5632C111.887 23.7853 112.253 23.8963 112.674 23.8963C112.956 23.8963 113.211 23.8449 113.44 23.7422C113.672 23.6361 113.866 23.4853 114.022 23.2898C114.181 23.0942 114.292 22.8589 114.355 22.5838H115.801C115.748 23.0777 115.588 23.5185 115.319 23.9062C115.051 24.294 114.691 24.599 114.24 24.821C113.793 25.0431 113.268 25.1541 112.664 25.1541ZM116.971 25V17.3636H120.138C121 17.3636 121.683 17.5476 122.186 17.9155C122.69 18.2801 122.942 18.7756 122.942 19.402C122.942 19.8494 122.8 20.2041 122.514 20.4659C122.229 20.7277 121.852 20.9034 121.381 20.9929C121.722 21.0327 122.036 21.1354 122.321 21.3011C122.606 21.4635 122.834 21.6823 123.007 21.9574C123.182 22.2325 123.27 22.5606 123.27 22.9418C123.27 23.3461 123.166 23.7041 122.957 24.0156C122.748 24.3239 122.445 24.5658 122.047 24.7415C121.653 24.9138 121.177 25 120.62 25H116.971ZM118.368 23.7571H120.62C120.988 23.7571 121.277 23.6693 121.485 23.4936C121.694 23.3179 121.799 23.0793 121.799 22.7777C121.799 22.4231 121.694 22.1446 121.485 21.9425C121.277 21.737 120.988 21.6342 120.62 21.6342H118.368V23.7571ZM118.368 20.5455H120.153C120.431 20.5455 120.67 20.5057 120.869 20.4261C121.071 20.3466 121.225 20.2339 121.331 20.0881C121.441 19.9389 121.495 19.7633 121.495 19.5611C121.495 19.2661 121.374 19.0357 121.132 18.87C120.89 18.7043 120.559 18.6214 120.138 18.6214H118.368V20.5455ZM127.697 25.1541C126.982 25.1541 126.357 24.9901 125.823 24.6619C125.29 24.3338 124.875 23.8748 124.58 23.2848C124.285 22.6948 124.138 22.0054 124.138 21.2166C124.138 20.4245 124.285 19.7318 124.58 19.1385C124.875 18.5452 125.29 18.0845 125.823 17.7564C126.357 17.4283 126.982 17.2642 127.697 17.2642C128.413 17.2642 129.038 17.4283 129.572 17.7564C130.105 18.0845 130.52 18.5452 130.815 19.1385C131.11 19.7318 131.257 20.4245 131.257 21.2166C131.257 22.0054 131.11 22.6948 130.815 23.2848C130.52 23.8748 130.105 24.3338 129.572 24.6619C129.038 24.9901 128.413 25.1541 127.697 25.1541ZM127.702 23.9062C128.166 23.9062 128.551 23.7836 128.856 23.5384C129.161 23.2931 129.386 22.9666 129.532 22.5589C129.681 22.1513 129.756 21.7022 129.756 21.2116C129.756 20.7244 129.681 20.277 129.532 19.8693C129.386 19.4583 129.161 19.1286 128.856 18.88C128.551 18.6314 128.166 18.5071 127.702 18.5071C127.235 18.5071 126.847 18.6314 126.539 18.88C126.234 19.1286 126.007 19.4583 125.858 19.8693C125.712 20.277 125.639 20.7244 125.639 21.2116C125.639 21.7022 125.712 22.1513 125.858 22.5589C126.007 22.9666 126.234 23.2931 126.539 23.5384C126.847 23.7836 127.235 23.9062 127.702 23.9062ZM131.751 27.2024V23.7124H132.372C132.531 23.5665 132.665 23.3925 132.775 23.1903C132.887 22.9882 132.982 22.7479 133.058 22.4695C133.138 22.1911 133.204 21.8662 133.257 21.495C133.31 21.1205 133.356 20.6929 133.396 20.2124L133.635 17.3636H138.825V23.7124H139.999V27.2024H138.547V25H133.222V27.2024H131.751ZM133.963 23.7124H137.374V18.6364H134.967L134.808 20.2124C134.732 21.0144 134.636 21.7105 134.52 22.3004C134.404 22.8871 134.218 23.3577 133.963 23.7124ZM141.031 25V17.3636H142.518V20.5653H143.234L145.754 17.3636H147.594L144.636 21.0774L147.629 25H145.784L143.482 21.9474H142.518V25H141.031ZM149.344 27.8636C149.122 27.8636 148.92 27.8454 148.738 27.8089C148.555 27.7758 148.419 27.7393 148.33 27.6996L148.688 26.4815C148.96 26.5545 149.202 26.5859 149.414 26.576C149.626 26.5661 149.813 26.4865 149.975 26.3374C150.141 26.1882 150.287 25.9446 150.413 25.6065L150.597 25.0994L147.803 17.3636H149.394L151.328 23.2898H151.407L153.341 17.3636H154.937L151.79 26.0192C151.644 26.4169 151.459 26.7533 151.233 27.0284C151.008 27.3068 150.739 27.5156 150.428 27.6548C150.116 27.794 149.755 27.8636 149.344 27.8636Z" fill="#070F1A"/>
<path d="M23.75 24.4791H16.25C16.0792 24.4791 15.9375 24.3375 15.9375 24.1666C15.9375 23.9958 16.0792 23.8541 16.25 23.8541H23.75C23.9208 23.8541 24.0625 23.9958 24.0625 24.1666C24.0625 24.3375 23.9208 24.4791 23.75 24.4791Z" fill="#0084FF"/>
<path d="M17.3333 18.4916H16.6667C16.4375 18.4916 16.25 18.6791 16.25 18.9082V22.4999C16.25 22.7291 16.4375 22.9166 16.6667 22.9166H17.3333C17.5625 22.9166 17.75 22.7291 17.75 22.4999V18.9082C17.75 18.6749 17.5625 18.4916 17.3333 18.4916Z" fill="#0084FF"/>
<path d="M20.3333 17.1625H19.6667C19.4375 17.1625 19.25 17.35 19.25 17.5791V22.5C19.25 22.7291 19.4375 22.9166 19.6667 22.9166H20.3333C20.5625 22.9166 20.75 22.7291 20.75 22.5V17.5791C20.75 17.35 20.5625 17.1625 20.3333 17.1625Z" fill="#0084FF"/>
<path d="M23.3324 15.8334H22.6657C22.4365 15.8334 22.249 16.0209 22.249 16.25V22.5C22.249 22.7292 22.4365 22.9167 22.6657 22.9167H23.3324C23.5615 22.9167 23.749 22.7292 23.749 22.5V16.25C23.749 16.0209 23.5615 15.8334 23.3324 15.8334Z" fill="#0084FF"/>
</svg>
