<svg width="38" height="38" viewBox="0 0 38 38" fill="none" xmlns="http://www.w3.org/2000/svg">
<rect width="38" height="38" rx="19" fill="#48C95F"/>
<path d="M19.5332 9.5C21.9156 9.50003 24.1719 10.4367 25.8662 12.125C27.4498 13.703 28.3236 15.7789 28.4785 17.9473L28.5 18.3818C28.4925 23.3095 24.484 27.3017 19.5332 27.3018C18.0291 27.3018 16.5853 26.9277 15.2627 26.2373L15.0918 26.1475L14.9043 26.1973L10.708 27.2969L11.8066 23.249L11.8604 23.0488L11.7578 22.8691C11.0051 21.5564 10.5664 19.9921 10.5664 18.4336C10.5666 13.4998 14.5779 9.5 19.5332 9.5ZM16.6201 13.5801H16.1572L15.96 13.585C15.7188 13.6031 15.3658 13.6843 15.0957 14.043C15.0487 14.1055 14.7804 14.3936 14.5859 14.7441C14.3737 15.1268 14.2002 15.6392 14.2002 16.3232C14.2003 17.0298 14.454 17.6893 14.7041 18.1699C14.9183 18.5816 15.1552 18.9057 15.2881 19.0586C15.476 19.3432 17.0575 21.7573 19.54 22.7881V22.7871C20.0792 23.0519 20.6075 23.2133 20.8711 23.3184L20.9023 23.3311L20.9346 23.3389C21.5297 23.4871 22.1235 23.4885 22.582 23.4141L22.583 23.415C22.5856 23.4147 22.5882 23.4135 22.5908 23.4131H22.5938L22.5928 23.4121C22.9236 23.3623 23.337 23.1758 23.6797 22.9512C24.0157 22.7309 24.4119 22.3929 24.5693 21.9746C24.6852 21.6667 24.7444 21.3734 24.7646 21.1211C24.784 20.8803 24.7708 20.64 24.708 20.4521L24.6699 20.3408L24.5859 20.2568C24.5007 20.172 24.3994 20.1113 24.3184 20.0664C24.2343 20.0199 24.127 19.9661 24.0029 19.9043C23.8437 19.8076 23.5021 19.6309 23.1982 19.4795C23.0221 19.3917 22.8445 19.3054 22.6973 19.2363C22.563 19.1733 22.4224 19.1088 22.3389 19.0811C22.2679 19.0575 22.0621 18.9806 21.8467 19C21.7204 19.0114 21.587 19.0541 21.4648 19.1445C21.3764 19.2101 21.3076 19.2905 21.2539 19.376L21.2051 19.4629C21.1672 19.5384 21.0528 19.6973 20.9014 19.8818C20.7824 20.0268 20.6657 20.1537 20.6016 20.2217C20.2998 20.0743 19.6534 19.8381 18.8018 19.1113C18.2092 18.5725 17.8126 17.989 17.6523 17.7119C17.684 17.6782 17.7144 17.6442 17.7344 17.6191C17.7599 17.587 17.7923 17.5449 17.8174 17.5127C17.8752 17.4387 17.9241 17.3785 17.9658 17.3369C18.1613 17.1421 18.2589 16.9437 18.3252 16.8115C18.4622 16.5385 18.4621 16.2398 18.3252 15.9668L18.2881 15.8945L18.2793 15.8857C18.265 15.8559 18.2463 15.8138 18.2227 15.7598C18.1692 15.6375 18.1007 15.473 18.0264 15.292C17.8805 14.9367 17.7108 14.5142 17.6094 14.2783C17.4873 13.9945 17.32 13.7643 17.0664 13.6494C16.8454 13.5493 16.5759 13.58 16.6201 13.5801Z" fill="white" stroke="white"/>
</svg>
