<svg width="38" height="38" viewBox="0 0 38 38" fill="none" xmlns="http://www.w3.org/2000/svg">
<rect width="38" height="38" rx="10" fill="#FECA00"/>
<path d="M23.3891 11.0014C23.4571 11.001 23.5252 11.0006 23.5952 11.0002C23.8182 10.9994 24.0411 11.0011 24.264 11.003C24.4197 11.0031 24.5754 11.0031 24.731 11.003C25.0563 11.0031 25.3816 11.0044 25.7069 11.0067C26.1239 11.0096 26.5409 11.0099 26.958 11.0094C27.279 11.0091 27.6 11.01 27.921 11.0112C28.0748 11.0117 28.2286 11.012 28.3824 11.0119C28.5971 11.012 28.8116 11.0136 29.0262 11.0155C29.0897 11.0153 29.1533 11.0151 29.2187 11.0149C29.5487 11.0195 29.7623 11.0339 30 11.2623C29.9658 11.6608 29.8495 11.9317 29.6188 12.259C29.5695 12.3312 29.5695 12.3312 29.5193 12.4049C29.4009 12.5779 29.2811 12.7499 29.1613 12.922C29.0599 13.0692 28.9586 13.2164 28.8573 13.3637C28.6348 13.6867 28.4119 14.0093 28.1884 14.3316C27.9112 14.7315 27.6352 15.1321 27.3602 15.5332C27.1078 15.9011 26.8552 16.2689 26.6016 16.6359C26.1104 17.347 25.6223 18.0596 25.1396 18.7759C24.5943 19.585 24.0395 20.3881 23.483 21.1903C23.4532 21.2331 23.4235 21.276 23.3929 21.3201C23.3638 21.3621 23.3346 21.4042 23.3046 21.4475C23.044 21.8232 22.7857 22.2003 22.5283 22.578C22.2375 23.0043 21.9447 23.4292 21.6516 23.8541C21.2835 24.3879 20.9163 24.9221 20.5509 25.4574C20.2416 25.9104 19.9311 26.3626 19.6202 26.8146C19.4164 27.111 19.2132 27.4077 19.0114 27.7054C18.9737 27.7609 18.936 27.8165 18.8971 27.8738C18.8265 27.9778 18.7561 28.0819 18.6859 28.1861C18.1878 28.9196 18.1878 28.9196 17.8872 29C17.6168 28.9335 17.5903 28.8967 17.4342 28.6908C17.3944 28.6383 17.3546 28.5859 17.3136 28.5319C17.1133 28.2567 16.9199 27.9778 16.7293 27.6966C16.642 27.5687 16.5548 27.4409 16.4675 27.313C16.4233 27.2481 16.3791 27.1831 16.3335 27.1162C16.1629 26.8659 15.9913 26.6162 15.8196 26.3666C15.6961 26.187 15.5728 26.0073 15.4496 25.8275C15.2908 25.5961 15.1313 25.3652 14.9713 25.1347C14.9334 25.08 14.8956 25.0252 14.8566 24.9688C14.7864 24.8672 14.7159 24.7657 14.6451 24.6645C13.9828 23.7038 13.9828 23.7038 14.0072 23.165C14.1469 22.6556 14.5166 22.2257 14.828 21.7976C14.8865 21.7148 14.9448 21.6318 15.0028 21.5487C15.1229 21.3769 15.2439 21.2056 15.3653 21.0346C15.655 20.6251 15.9394 20.2123 16.2242 19.7997C16.2523 19.7589 16.2804 19.7182 16.3094 19.6762C16.7074 19.0996 17.1043 18.5223 17.5006 17.9446C18.0007 17.216 18.5036 16.4892 19.0062 15.7622C19.227 15.4428 19.4477 15.1233 19.6684 14.8039C19.7765 14.6475 19.8845 14.4912 19.9926 14.3349C20.259 13.9494 20.5248 13.5636 20.7894 13.1771C20.8407 13.1023 20.892 13.0274 20.9448 12.9504C21.0409 12.8101 21.1369 12.6698 21.2326 12.5293C21.358 12.3464 21.4851 12.1649 21.6135 11.9839C21.6506 11.9304 21.6877 11.877 21.7259 11.8219C21.7624 11.7721 21.7989 11.7223 21.8365 11.671C21.8826 11.6071 21.8826 11.6071 21.9296 11.5418C22.3651 11.1253 22.7807 10.9922 23.3891 11.0014Z" fill="#010100"/>
<path d="M11.6911 11.002C11.7613 11.0014 11.8316 11.0009 11.9039 11.0003C11.9804 11.0007 12.0568 11.0011 12.1356 11.0015C12.2166 11.0012 12.2976 11.0008 12.381 11.0005C12.6489 10.9996 12.9167 11.0002 13.1846 11.0008C13.3706 11.0007 13.5566 11.0005 13.7426 11.0003C14.1325 11 14.5224 11.0004 14.9123 11.0013C15.4124 11.0024 15.9125 11.0018 16.4126 11.0006C16.7967 10.9999 17.1808 11.0001 17.5649 11.0006C17.7493 11.0008 17.9338 11.0006 18.1182 11.0002C18.3758 10.9997 18.6334 11.0004 18.891 11.0015C18.9674 11.0011 19.0439 11.0007 19.1227 11.0003C19.1929 11.0009 19.2631 11.0014 19.3355 11.002C19.3964 11.0021 19.4572 11.0021 19.52 11.0022C19.7297 11.033 19.8403 11.1081 20 11.2231C19.9708 11.6405 19.7929 11.8934 19.5151 12.2347C19.4737 12.2869 19.4324 12.3391 19.3898 12.3929C19.2576 12.5594 19.1241 12.7251 18.9905 12.8908C18.9034 13 18.8164 13.1094 18.7294 13.2188C18.5171 13.4856 18.3037 13.7519 18.0899 14.018C17.9139 14.2375 17.7389 14.4574 17.564 14.6775C17.5327 14.7168 17.5015 14.7561 17.4692 14.7967C17.2809 15.0336 17.0928 15.2706 16.9047 15.5077C16.7819 15.6624 16.6591 15.8171 16.5363 15.9718C16.474 16.0503 16.4117 16.1288 16.3495 16.2073C16.2577 16.3231 16.1658 16.4389 16.0738 16.5546C16.0204 16.622 15.9669 16.6894 15.9118 16.7588C15.7864 16.9128 15.7864 16.9128 15.7084 16.9782C15.4526 17.0073 15.4526 17.0073 15.1622 16.9782C15.008 16.8419 14.9159 16.7368 14.8061 16.5776C14.7739 16.534 14.7416 16.4905 14.7083 16.4456C14.6368 16.3489 14.566 16.2518 14.4959 16.1544C14.3352 15.9328 14.1678 15.7149 14.0008 15.4966C13.8615 15.3142 13.7231 15.1314 13.5848 14.9485C13.2746 14.5385 12.9628 14.1294 12.6506 13.7205C12.5983 13.652 12.546 13.5835 12.4922 13.5129C12.2547 13.2021 12.0167 12.8916 11.7767 12.5822C11.7369 12.5309 11.6972 12.4796 11.6562 12.4268C11.5836 12.3334 11.5109 12.24 11.438 12.1468C10.968 11.5422 10.968 11.5422 11.0266 11.2231C11.2454 11.0516 11.3942 11.0023 11.6911 11.002Z" fill="#030200"/>
</svg>
