<svg width="38" height="38" viewBox="0 0 38 38" fill="none" xmlns="http://www.w3.org/2000/svg">
<rect width="38" height="38" rx="10" fill="#52BDFF"/>
<g clip-path="url(#clip0_130_7216)">
<mask id="mask0_130_7216" style="mask-type:luminance" maskUnits="userSpaceOnUse" x="2" y="15" width="34" height="7">
<path d="M35.3337 15.8896H2.66699V21.8896H35.3337V15.8896Z" fill="white"/>
</mask>
<g mask="url(#mask0_130_7216)">
<path d="M7.75425 19.7894C7.85267 19.7894 7.90231 19.9088 7.90231 20.148C7.89128 20.3181 7.83401 20.4825 7.73516 20.6252C7.6151 20.8153 7.46407 20.9866 7.28716 21.1321C7.10346 21.2857 6.89728 21.4131 6.67498 21.5104C6.47007 21.6049 6.24564 21.6555 6.0174 21.6588C5.72722 21.6588 5.53249 21.4172 5.43407 20.9335C5.29195 21.1538 5.09891 21.3404 4.86982 21.4795C4.59025 21.6346 4.2691 21.7094 3.9454 21.6941C3.77316 21.7014 3.60134 21.674 3.44098 21.6149C3.28019 21.5554 3.13467 21.4654 3.01291 21.3496C2.89879 21.2411 2.80928 21.1116 2.74988 20.9689C2.69049 20.8258 2.66249 20.673 2.66758 20.5199C2.66758 19.6358 2.97728 18.9392 3.59625 18.4298C3.80964 18.2445 4.05952 18.1014 4.33188 18.0089C4.56479 17.9406 4.80704 17.9064 5.05098 17.9076C5.26479 17.9012 5.47649 17.9458 5.6674 18.0375C5.74419 17.8867 5.83158 17.8115 5.93043 17.8115C6.03395 17.8147 6.13534 17.8377 6.22952 17.8783C6.3237 17.9193 6.40813 17.9772 6.47813 18.0495C6.62195 18.1585 6.71443 18.3169 6.73564 18.4901C6.63722 18.702 6.52437 18.9078 6.39879 19.1064C6.34831 19.4397 6.32625 19.7757 6.33304 20.1126C6.33304 20.546 6.39073 20.7627 6.5057 20.7627C6.64825 20.7627 6.99316 20.4921 7.54128 19.9514C7.6397 19.8441 7.71098 19.7902 7.7551 19.7902L7.75425 19.7894ZM3.8754 20.2626C3.8754 20.663 4.03152 20.8632 4.34376 20.8632C4.67807 20.858 4.95467 20.6891 5.17358 20.3563C5.25801 20.2252 5.32164 20.0833 5.36279 19.9349C5.35388 19.4312 5.40904 18.9287 5.52698 18.4375C5.08322 18.5207 4.67807 18.7333 4.36837 19.0457C4.20504 19.2073 4.07691 19.3979 3.99249 19.6069C3.90764 19.816 3.86819 20.0387 3.8754 20.2626Z" fill="white"/>
<path d="M11.3779 19.2691C11.3779 19.0958 11.2739 19.0094 11.0656 19.0094C10.9231 19.0094 10.7644 19.1392 10.5892 19.3993C10.4148 19.6594 10.2871 19.9457 10.2112 20.2456V20.2612C10.2125 20.4462 10.2417 20.6299 10.2973 20.8072C10.3423 20.9334 10.3711 21.0645 10.3834 21.1971C10.3834 21.3704 10.1505 21.5437 9.68514 21.7169C9.6249 21.7406 9.56127 21.7539 9.49593 21.7559C9.43145 21.7575 9.36823 21.7382 9.3169 21.7016C9.26557 21.6647 9.22866 21.6124 9.21254 21.5533C9.15399 21.3756 9.12769 21.1895 9.13448 21.0034C9.13448 20.7718 9.14126 20.5551 9.15484 20.3533C9.16842 20.1515 9.18242 19.9617 9.19599 19.7841C9.20957 19.6108 9.22357 19.4572 9.23714 19.3238C9.25072 19.1903 9.25751 19.0826 9.25751 19.0001C9.25751 18.8269 9.17266 18.74 9.00296 18.74C8.83327 18.74 8.63599 18.9286 8.41114 19.3053C8.18672 19.6824 8.0743 19.981 8.0743 20.2022C8.07217 20.4092 8.10145 20.6154 8.16042 20.8144C8.20539 20.9406 8.23423 21.0717 8.24654 21.2044C8.24654 21.3776 8.01363 21.5509 7.54823 21.7242C7.48799 21.7479 7.42436 21.7611 7.35902 21.7632C7.29454 21.7648 7.23175 21.7451 7.17999 21.7085C7.12866 21.6719 7.09175 21.6196 7.0752 21.5605C7.01369 21.3579 6.98739 21.1473 6.99714 20.9366C6.98399 20.4024 7.01411 19.8677 7.08751 19.3378C7.17193 18.8486 7.36242 18.3814 7.64623 17.9654C7.67593 17.9063 7.7209 17.8556 7.7769 17.8174C7.8329 17.7792 7.89823 17.7551 7.96654 17.7471C8.14896 17.7471 8.31611 17.8874 8.46799 18.1684C8.50745 18.2327 8.54054 18.3006 8.56642 18.371C8.67163 18.2291 8.81036 18.1129 8.97199 18.0317C9.1332 17.9505 9.31266 17.9063 9.49508 17.9031C9.72757 17.9018 9.95242 17.981 10.128 18.1254C10.2154 18.1921 10.2859 18.2773 10.3334 18.3738C10.3809 18.4707 10.4042 18.576 10.4021 18.683V18.7686C10.543 18.5857 10.7271 18.4361 10.9396 18.3332C11.1522 18.2303 11.3876 18.1764 11.6265 18.176C11.7487 18.1676 11.8708 18.1829 11.9867 18.2202C12.1025 18.2576 12.209 18.3167 12.3002 18.3943C12.3753 18.4643 12.4343 18.5483 12.4737 18.6407C12.5132 18.7332 12.5323 18.8325 12.5301 18.9322C12.5318 19.1256 12.5153 19.3189 12.4809 19.5095C12.4483 19.6828 12.4109 19.844 12.3702 19.9931C12.329 20.1423 12.2921 20.2761 12.259 20.3947C12.231 20.4836 12.2145 20.5752 12.2098 20.6677C12.2098 20.7324 12.2319 20.7654 12.2756 20.7654C12.3918 20.7501 12.4992 20.6978 12.5798 20.617C12.7003 20.5181 12.8207 20.4104 12.9412 20.2934L13.2743 19.9698C13.3795 19.8685 13.4499 19.8178 13.4864 19.8178C13.5632 19.8178 13.6013 19.9043 13.6013 20.0779C13.6013 20.4417 13.4083 20.7955 13.0218 21.1384C12.6981 21.4576 12.2556 21.6446 11.7894 21.6582C11.3948 21.6582 11.1976 21.3177 11.1976 20.6367C11.2056 20.3979 11.2357 20.1603 11.2879 19.9268C11.3367 19.7105 11.3673 19.4902 11.3779 19.2691Z" fill="white"/>
<path d="M15.8983 20.9715C15.7137 21.1966 15.4778 21.3792 15.208 21.5046C14.9382 21.6304 14.6417 21.6959 14.3413 21.6967C13.7359 21.6967 13.2828 21.55 12.9812 21.2561C12.8323 21.1118 12.7165 20.9402 12.6401 20.752C12.5637 20.5635 12.5289 20.3625 12.5374 20.1607C12.52 19.5725 12.7406 19.0005 13.1538 18.5619C13.3571 18.342 13.6091 18.1675 13.892 18.0517C14.175 17.9355 14.4813 17.8809 14.7893 17.8909C15.0409 17.8821 15.292 17.9195 15.5288 18.0003C15.852 18.1249 16.0137 18.2419 16.0137 18.3512C16.0137 18.4381 15.7875 18.4815 15.3357 18.4815C15.1244 18.4778 14.9153 18.5152 14.7201 18.5916C14.525 18.668 14.3485 18.7818 14.2017 18.9257C14.0507 19.072 13.9323 19.2461 13.8543 19.437C13.7758 19.628 13.7389 19.8322 13.7457 20.0368C13.7384 20.2519 13.8165 20.4622 13.9633 20.6258C14.0414 20.707 14.1377 20.7701 14.245 20.8111C14.3523 20.8521 14.4681 20.8698 14.5835 20.8626C14.8152 20.8706 15.0443 20.8167 15.2449 20.7066C15.0566 20.5896 14.9038 20.4284 14.8016 20.2383C14.6994 20.0481 14.651 19.8358 14.6616 19.6228C14.6578 19.3687 14.7596 19.1235 14.945 18.9402C15.0383 18.8397 15.1537 18.7601 15.2827 18.7062C15.4117 18.6523 15.5517 18.6258 15.6929 18.6282C15.9967 18.6282 16.2148 18.7074 16.3463 18.8662C16.4841 19.0459 16.5533 19.2642 16.5435 19.4861C16.538 19.7619 16.4735 20.034 16.3548 20.2853H16.404C16.6348 20.2837 16.8562 20.1993 17.0242 20.0485C17.09 19.9862 17.1464 19.9315 17.1926 19.8849C17.2092 19.8652 17.23 19.8487 17.2537 19.8366C17.2771 19.8246 17.3029 19.8169 17.3297 19.8145C17.4064 19.8145 17.4446 19.9014 17.4446 20.0746C17.4552 20.2069 17.434 20.34 17.3827 20.4634C17.3314 20.5868 17.2516 20.6982 17.1489 20.7882C16.9691 20.9365 16.7391 21.0182 16.5011 21.0182C16.2992 21.021 16.0972 21.0053 15.8983 20.9715ZM15.8244 20.0618C15.9123 19.8917 15.9589 19.7052 15.9615 19.5158C15.9615 19.3426 15.9012 19.2557 15.7808 19.2557C15.7315 19.2557 15.6904 19.2895 15.6573 19.357C15.6263 19.4177 15.6094 19.4845 15.6081 19.552C15.6051 19.6473 15.6229 19.7422 15.6598 19.8306C15.6972 19.9191 15.7532 19.9995 15.824 20.0666L15.8244 20.0618Z" fill="white"/>
<path d="M34.5121 21.6955C34.9661 21.6955 35.3339 21.3462 35.3339 20.9156C35.3339 20.4851 34.9661 20.1357 34.5121 20.1357C34.0582 20.1357 33.6904 20.4847 33.6904 20.9156C33.6904 21.3466 34.0582 21.6955 34.5121 21.6955Z" fill="white"/>
<path d="M26.0359 19.9319C26.1271 19.9319 26.173 20.0513 26.173 20.2905C26.1594 20.4593 26.1 20.6221 26.0003 20.7624C25.8802 20.953 25.7292 21.1238 25.5523 21.2694C25.3686 21.4229 25.1624 21.5504 24.9401 21.6476C24.7428 21.7397 24.5273 21.7904 24.3071 21.7956C24.1404 21.8044 23.9745 21.7662 23.8307 21.6866C23.7132 21.6127 23.6186 21.5102 23.5567 21.3904C23.4654 21.2171 23.3887 20.8806 23.3267 20.3805C23.2928 20.0304 23.2321 19.6826 23.146 19.3405C23.0094 19.3172 22.8813 19.2621 22.7722 19.1809C22.7218 19.1467 22.6802 19.1017 22.6518 19.0491C22.6233 18.9964 22.6089 18.9381 22.6093 18.8794C22.6051 18.8247 22.6187 18.7701 22.6492 18.7234C22.6793 18.6768 22.7243 18.6402 22.7778 18.6193C22.8987 18.5654 23.0306 18.5389 23.1638 18.5413C23.3013 18.5393 23.4366 18.5747 23.5541 18.6426C23.7047 18.5281 23.8316 18.3878 23.9283 18.2294C24.0314 18.0227 24.0785 17.7948 24.0653 17.5664C24.0708 17.4414 24.0475 17.3168 23.9962 17.2014C23.9448 17.086 23.8676 16.9831 23.7696 16.8995C23.5804 16.7323 23.2941 16.6487 22.9097 16.6487C22.6153 16.6394 22.3208 16.6684 22.0345 16.7343C21.8554 16.7829 21.6811 16.8456 21.5127 16.9216C21.3676 16.9892 21.239 17.0515 21.1266 17.109C21.0303 17.162 20.9217 17.1914 20.8101 17.1946C20.7117 17.1946 20.6621 17.1648 20.6621 17.1049C20.6862 16.996 20.7401 16.8951 20.8182 16.8123C20.948 16.6555 21.1033 16.5192 21.2785 16.4095C21.7825 16.0718 22.3866 15.8949 23.0034 15.9041C23.555 15.886 24.1018 16.0058 24.5893 16.2511C24.8192 16.3685 25.0097 16.5445 25.1391 16.7596C25.2685 16.9747 25.3313 17.2203 25.3207 17.4675C25.341 17.8692 25.2099 18.2647 24.9507 18.5827C24.7068 18.8738 24.3822 19.0953 24.014 19.2223C24.0984 19.4008 24.1663 19.5861 24.2151 19.7763C24.2673 19.9737 24.3178 20.1558 24.3674 20.3222C24.4068 20.4657 24.4637 20.6044 24.5358 20.7355C24.5545 20.7805 24.5859 20.8195 24.6266 20.8485C24.6673 20.8774 24.7157 20.8951 24.7662 20.8995C24.8905 20.885 25.0063 20.8316 25.095 20.7475C25.2239 20.6462 25.3512 20.5357 25.4772 20.4159C25.6032 20.2965 25.7156 20.1859 25.8141 20.0846C25.918 19.9833 25.9922 19.9319 26.0359 19.9319ZM22.4613 17.1242C22.5325 17.1242 22.5682 17.2111 22.5682 17.3843C22.5686 17.5512 22.558 17.718 22.5355 17.8836C22.4901 18.1679 22.4269 18.4489 22.3463 18.7258C22.149 19.433 22.0506 19.8462 22.0506 19.9656V21.1122C22.0625 21.2296 22.0366 21.3473 21.9764 21.4503C21.9161 21.5532 21.8245 21.6364 21.7138 21.6895L21.4138 21.8193C21.3116 21.8623 21.2008 21.8836 21.0893 21.8816C20.8593 21.8816 20.7444 21.6308 20.7444 21.129C20.7715 20.4826 20.8958 19.843 21.1143 19.23C21.2916 18.6185 21.5513 18.0316 21.8864 17.4828C21.9534 17.392 22.0336 17.3108 22.1248 17.2412C22.2186 17.1648 22.3378 17.1234 22.4613 17.1242Z" fill="white"/>
<path d="M33.1106 19.9323C33.2019 19.9323 33.2477 20.0521 33.2477 20.2909C33.2332 20.4602 33.173 20.6226 33.0725 20.7629C32.9524 20.9534 32.8014 21.1243 32.6245 21.2698C32.4408 21.4234 32.2346 21.5508 32.0123 21.6481C31.79 21.7466 31.5469 21.7973 31.3017 21.7964C31.1926 21.8021 31.0832 21.7844 30.9822 21.7442C30.8812 21.7044 30.7909 21.6437 30.7179 21.5661C30.5817 21.4238 30.5071 21.2385 30.5083 21.0463C30.5126 20.8288 30.5457 20.6125 30.6072 20.4031C30.6768 20.1675 30.7493 19.9195 30.8261 19.6594C31.0344 18.9663 31.1409 18.4803 31.1464 18.2009C31.1515 18.1064 31.1345 18.0119 31.0972 17.9239C31.0798 17.8913 31.0526 17.8648 31.0187 17.8471C30.9852 17.8298 30.9466 17.8226 30.908 17.8262C30.7438 17.8262 30.5682 17.9199 30.3823 18.1068C30.1745 18.3231 29.9976 18.5643 29.8563 18.8244C29.4991 19.421 29.2937 20.0887 29.2564 20.7741L29.2891 20.9924C29.3001 21.07 29.306 21.148 29.3056 21.2264C29.3014 21.316 29.2763 21.4037 29.2314 21.4829C29.1868 21.5617 29.1236 21.63 29.0468 21.6827C28.8869 21.8161 28.6807 21.8893 28.4677 21.8893C28.4088 21.8893 28.3515 21.8724 28.3027 21.8415C28.2539 21.8101 28.2162 21.7659 28.1941 21.714C28.1296 21.5781 28.0986 21.4302 28.1037 21.2811C28.1148 21.0431 28.1559 20.8075 28.2272 20.5792C28.3095 20.2829 28.4007 19.9681 28.5012 19.6356C28.7643 18.7569 28.8983 18.102 28.9039 17.6702C28.9123 17.4933 28.8831 17.3164 28.8173 17.1504C28.7897 17.0897 28.7431 17.0391 28.6832 17.0057C28.6234 16.9719 28.5539 16.9571 28.4847 16.9635C28.189 16.9635 27.8959 17.1637 27.6052 17.5641C27.3151 17.9645 27.0546 18.5856 26.8246 19.4282C26.7644 19.6465 26.7186 19.8362 26.6876 19.9974L26.6796 20.1454C26.7572 20.4529 26.8094 20.7661 26.8357 21.0813C26.8357 21.3828 26.7232 21.5858 26.4988 21.6895L26.1989 21.8198C26.1022 21.8616 25.9969 21.8829 25.8909 21.8821C25.6172 21.8821 25.4802 21.634 25.4802 21.1371C25.4802 20.6403 25.6219 19.6714 25.9049 18.2294C26.0092 17.7096 26.061 17.4182 26.061 17.3558C26.061 16.9345 25.9486 16.7243 25.7242 16.7243C25.6491 16.7239 25.5761 16.7456 25.5146 16.7866C25.4514 16.828 25.3886 16.8714 25.3254 16.9169C25.2626 16.9619 25.1972 17.0097 25.1298 17.0596C25.0628 17.1014 24.9839 17.1231 24.9037 17.1219C24.8188 17.1219 24.7764 17.0515 24.7764 16.9112C24.7764 16.7697 24.8154 16.631 24.8888 16.508C24.9622 16.385 25.0679 16.2821 25.1951 16.2093C25.4798 16.0151 25.8239 15.9146 26.1743 15.9235C26.6672 15.9235 26.9579 16.1402 27.0452 16.5735C27.0673 16.7034 27.0839 16.8413 27.0945 16.9868C27.5 16.2676 28.0121 15.9082 28.6311 15.9082C29.3094 15.9082 29.6942 16.2149 29.7854 16.8284C29.8194 17.0166 29.8329 17.2071 29.8266 17.3981V17.4604C30.1825 16.9924 30.6042 16.7585 31.0921 16.7585C31.7823 16.7585 32.1277 17.1536 32.1277 17.944C32.1192 18.3504 32.0628 18.7544 31.9592 19.1488C31.8468 19.6091 31.7649 19.9392 31.7128 20.1394C31.6682 20.2909 31.6419 20.4465 31.6347 20.6033C31.6347 20.8007 31.7072 20.8996 31.8523 20.8996C31.9974 20.8996 32.344 20.629 32.8917 20.0883C32.994 19.9842 33.0669 19.9323 33.1106 19.9323Z" fill="white"/>
<path d="M21.4059 18.8959C21.543 18.8959 21.6142 19.0257 21.6142 19.2714C21.607 19.5496 21.5446 19.8237 21.4305 20.0798C21.299 20.3845 21.1136 20.6659 20.8828 20.912C20.6211 21.193 20.3063 21.4249 19.9542 21.5958C19.541 21.7928 19.0836 21.8901 18.6216 21.8792C18.1248 21.8848 17.6446 21.7112 17.278 21.3932C16.8937 21.0683 16.7015 20.6 16.7015 19.9881C16.6947 19.4229 16.7872 18.8605 16.9756 18.3242C17.1376 17.8603 17.379 17.4253 17.6904 17.0362C17.964 16.6933 18.3068 16.4058 18.6997 16.1912C19.0259 16.003 19.3984 15.8989 19.7802 15.8896C20.3729 15.8896 20.669 16.1401 20.669 16.641C20.6813 16.8814 20.6232 17.1202 20.5019 17.3313C20.3903 17.5045 20.277 17.5914 20.162 17.5914C20.0857 17.5914 20.0102 17.5761 19.9406 17.5463C19.871 17.5166 19.8086 17.4728 19.7582 17.4189C19.7102 17.3662 19.6517 17.3232 19.5863 17.2923C19.5206 17.2613 19.4493 17.2436 19.3763 17.2392C19.2393 17.2392 18.8613 17.2247 18.5423 17.7124C18.4171 17.874 18.3242 18.0561 18.2682 18.2495C18.0811 18.7049 17.9882 19.1902 17.9942 19.6794C18.0438 20.0316 18.2373 20.3512 18.5325 20.5699C18.7077 20.6852 18.9199 20.7395 19.1324 20.7234C19.51 20.6836 19.8579 20.51 20.106 20.2374C20.2923 20.0476 20.4569 19.8683 20.6334 19.6746C20.8099 19.4808 20.9664 19.3027 21.1005 19.1391C21.2345 18.9755 21.3359 18.8975 21.4059 18.8975V18.8959Z" fill="white"/>
</g>
</g>
<defs>
<clipPath id="clip0_130_7216">
<rect width="34" height="7" fill="white" transform="translate(2 15)"/>
</clipPath>
</defs>
</svg>
