<svg width="38" height="38" viewBox="0 0 38 38" fill="none" xmlns="http://www.w3.org/2000/svg">
<rect width="38" height="38" rx="10" fill="#C60C30"/>
<g clip-path="url(#clip0_130_7215)">
<mask id="mask0_130_7215" style="mask-type:luminance" maskUnits="userSpaceOnUse" x="9" y="9" width="20" height="20">
<path d="M28.6663 9.22266H9.33301V28.5853H28.6663V9.22266Z" fill="white"/>
</mask>
<g mask="url(#mask0_130_7215)">
<path d="M17.1339 28.4737C15.4429 28.1235 13.865 27.3424 12.6262 26.2422C9.44604 23.4178 8.4632 18.9807 10.1432 15.0328C10.5558 14.0633 11.2265 13.0793 12.0575 12.2245L12.7902 11.4709L12.8419 15.8818C12.8913 20.1037 12.9025 20.3164 13.1022 20.8484C13.5017 21.9128 13.9301 22.5904 14.6674 23.3248C16.5722 25.2217 19.3661 25.6952 21.7412 24.5234C23.9736 23.4221 25.381 21.0273 25.2174 18.6083C25.1076 16.9835 24.5612 15.792 23.3814 14.6049C22.4893 13.7073 21.4398 13.1209 20.2971 12.8818C19.1346 12.6386 19.1903 12.603 19.1903 13.5871V14.4366L19.8277 14.5541C22.296 15.0089 23.9285 17.4327 23.414 19.8788C23.2497 20.6601 22.8832 21.35 22.2948 21.9855C21.4007 22.9512 20.1427 23.4129 19.0443 23.4107C17.228 23.4072 15.7114 22.3751 14.9764 20.8489C14.9764 20.8489 14.7838 20.4127 14.7219 20.1431C14.358 18.5577 14.5906 15.2204 14.5906 15.2204L14.5625 10.3407L14.8505 10.1917C15.009 10.1098 15.1609 10.0427 15.1882 10.0427C15.2155 10.0427 15.2501 12.284 15.2652 15.0233C15.2652 15.0233 14.9153 18.6142 15.3476 19.9902C15.41 20.1888 15.5284 20.5284 15.5284 20.5284C15.9074 21.3004 16.5147 21.9795 17.3039 22.3533C17.9029 22.6371 18.2045 22.7655 19.0908 22.7655C19.6698 22.7655 20.1828 22.5827 20.7731 22.3112C21.4689 21.9912 22.267 21.1428 22.562 20.3681C23.3747 18.2337 22.2431 15.9375 20.0631 15.2971C19.1722 15.0355 19.1903 15.021 19.1903 15.9898V16.8361L19.618 16.9504C21.1596 17.3627 21.6299 19.429 20.4198 20.4907C19.9922 20.8658 19.6069 21.0316 18.933 21.0316C18.2128 21.0316 17.5216 20.5957 17.1662 19.9271C16.9527 19.5255 16.9347 19.1446 16.9347 18.9701C16.9347 17.3586 16.8998 14.4602 16.8998 14.4602L16.871 9.48855L17.0923 9.43358C17.214 9.40335 17.706 9.32854 18.1856 9.26734C19.8121 9.05978 22.2184 9.59206 23.8349 10.517C26.0389 11.778 27.7065 13.9442 28.4009 16.4481C28.6397 17.3093 28.6663 17.5597 28.6663 18.9452C28.6663 20.3245 28.6391 20.5832 28.4053 21.4256C27.461 24.8286 25.0587 27.2613 21.6238 28.293C20.9008 28.5101 20.5622 28.5515 19.2866 28.5787C18.2572 28.6007 17.59 28.5681 17.1339 28.4737Z" fill="white"/>
</g>
</g>
<defs>
<clipPath id="clip0_130_7215">
<rect width="20" height="20" fill="white" transform="translate(9 9)"/>
</clipPath>
</defs>
</svg>
