<svg width="248" height="40" viewBox="0 0 248 40" fill="none" xmlns="http://www.w3.org/2000/svg">
<rect width="248" height="40" rx="20" fill="#FF0D0D" fill-opacity="0.03"/>
<rect x="0.5" y="0.5" width="247" height="39" rx="19.5" stroke="#FF0D0D" stroke-opacity="0.15"/>
<rect opacity="0.1" x="9" y="8" width="24" height="24" rx="12" fill="#FF0D0D"/>
<path d="M50.9631 19.9091C50.9631 20.9962 50.7642 21.9309 50.3665 22.7131C49.9688 23.492 49.4235 24.0919 48.7308 24.5128C48.0414 24.9304 47.2576 25.1392 46.3793 25.1392C45.4976 25.1392 44.7105 24.9304 44.0178 24.5128C43.3284 24.0919 42.7848 23.4903 42.3871 22.7081C41.9893 21.9259 41.7905 20.9929 41.7905 19.9091C41.7905 18.822 41.9893 17.889 42.3871 17.1101C42.7848 16.3279 43.3284 15.728 44.0178 15.3104C44.7105 14.8894 45.4976 14.679 46.3793 14.679C47.2576 14.679 48.0414 14.8894 48.7308 15.3104C49.4235 15.728 49.9688 16.3279 50.3665 17.1101C50.7642 17.889 50.9631 18.822 50.9631 19.9091ZM49.4418 19.9091C49.4418 19.0805 49.3075 18.3828 49.0391 17.8161C48.7739 17.246 48.4093 16.8151 47.9453 16.5234C47.4846 16.2285 46.9626 16.081 46.3793 16.081C45.7926 16.081 45.2689 16.2285 44.8082 16.5234C44.3475 16.8151 43.983 17.246 43.7145 17.8161C43.4493 18.3828 43.3168 19.0805 43.3168 19.9091C43.3168 20.7377 43.4493 21.437 43.7145 22.0071C43.983 22.5739 44.3475 23.0047 44.8082 23.2997C45.2689 23.5914 45.7926 23.7372 46.3793 23.7372C46.9626 23.7372 47.4846 23.5914 47.9453 23.2997C48.4093 23.0047 48.7739 22.5739 49.0391 22.0071C49.3075 21.437 49.4418 20.7377 49.4418 19.9091ZM58.2304 14.5199L58.8469 15.4595C58.6182 15.6683 58.358 15.8175 58.0663 15.907C57.778 15.9931 57.4449 16.0478 57.067 16.071C56.6892 16.0909 56.2567 16.1091 55.7695 16.1257C55.2193 16.1423 54.7668 16.2616 54.4122 16.4837C54.0576 16.7024 53.7841 17.0272 53.5919 17.4581C53.403 17.8857 53.2803 18.4226 53.224 19.0689H53.3185C53.567 18.5949 53.9117 18.2403 54.3525 18.005C54.7967 17.7696 55.2955 17.652 55.849 17.652C56.4655 17.652 57.014 17.7928 57.4946 18.0746C57.9752 18.3563 58.353 18.7689 58.6281 19.3125C58.9065 19.8527 59.0457 20.514 59.0457 21.2962C59.0457 22.0883 58.8999 22.7727 58.6082 23.3494C58.3199 23.9261 57.9122 24.3719 57.3852 24.6868C56.8615 24.9983 56.2434 25.1541 55.5308 25.1541C54.8182 25.1541 54.1968 24.9934 53.6665 24.6719C53.1395 24.3471 52.7302 23.8665 52.4385 23.2301C52.1501 22.5937 52.006 21.8082 52.006 20.8736V20.1179C52.006 18.3712 52.3175 17.0571 52.9406 16.1754C53.5637 15.2938 54.4951 14.8414 55.7347 14.8182C56.1357 14.8082 56.4936 14.8066 56.8085 14.8132C57.1234 14.8165 57.3985 14.8016 57.6338 14.7685C57.8724 14.732 58.0713 14.6491 58.2304 14.5199ZM55.5358 23.9062C55.9501 23.9062 56.3064 23.8018 56.6047 23.593C56.9063 23.3809 57.1383 23.081 57.3007 22.6932C57.4631 22.3054 57.5443 21.848 57.5443 21.321C57.5443 20.804 57.4631 20.3648 57.3007 20.0036C57.1383 19.6423 56.9063 19.3672 56.6047 19.1783C56.3031 18.986 55.9418 18.8899 55.5209 18.8899C55.2093 18.8899 54.9309 18.9446 54.6856 19.054C54.4404 19.16 54.2299 19.3175 54.0543 19.5263C53.8819 19.7351 53.7477 19.9903 53.6516 20.2919C53.5588 20.5902 53.509 20.9332 53.5024 21.321C53.5024 22.1098 53.683 22.7379 54.0443 23.2053C54.4089 23.6726 54.9061 23.9062 55.5358 23.9062ZM60.2862 27.8636V17.3636H61.7379V18.6016H61.8622C61.9484 18.4425 62.0727 18.2585 62.2351 18.0497C62.3975 17.8409 62.6229 17.6586 62.9112 17.5028C63.1996 17.3438 63.5808 17.2642 64.0547 17.2642C64.6712 17.2642 65.2214 17.42 65.7053 17.7315C66.1892 18.0431 66.5687 18.4922 66.8438 19.0788C67.1222 19.6655 67.2614 20.3714 67.2614 21.1967C67.2614 22.022 67.1238 22.7296 66.8487 23.3196C66.5736 23.9062 66.1958 24.3587 65.7152 24.6768C65.2346 24.9917 64.6861 25.1491 64.0696 25.1491C63.6056 25.1491 63.2261 25.0713 62.9311 24.9155C62.6395 24.7597 62.4108 24.5774 62.245 24.3686C62.0793 24.1598 61.9517 23.9742 61.8622 23.8118H61.7727V27.8636H60.2862ZM61.7429 21.1818C61.7429 21.7187 61.8208 22.1894 61.9766 22.5938C62.1324 22.9981 62.3577 23.3146 62.6527 23.5433C62.9477 23.7687 63.309 23.8814 63.7365 23.8814C64.1807 23.8814 64.5519 23.7637 64.8502 23.5284C65.1485 23.2898 65.3738 22.9666 65.5263 22.5589C65.6821 22.1513 65.76 21.6922 65.76 21.1818C65.76 20.678 65.6837 20.2256 65.5313 19.8246C65.3821 19.4235 65.1567 19.107 64.8551 18.875C64.5568 18.643 64.184 18.527 63.7365 18.527C63.3057 18.527 62.9411 18.638 62.6428 18.8601C62.3478 19.0821 62.1241 19.392 61.9716 19.7898C61.8192 20.1875 61.7429 20.6515 61.7429 21.1818ZM70.7292 25.169C70.2453 25.169 69.8078 25.0795 69.4167 24.9006C69.0256 24.7183 68.7157 24.4548 68.487 24.1101C68.2616 23.7654 68.1489 23.3428 68.1489 22.8423C68.1489 22.4115 68.2318 22.0568 68.3975 21.7784C68.5632 21.5 68.7869 21.2796 69.0687 21.1172C69.3504 20.9548 69.6652 20.8321 70.0133 20.7493C70.3613 20.6664 70.7159 20.6035 71.0772 20.5604C71.5346 20.5073 71.9058 20.4643 72.1908 20.4311C72.4759 20.3946 72.683 20.3366 72.8123 20.2571C72.9415 20.1776 73.0062 20.0483 73.0062 19.8693V19.8345C73.0062 19.4003 72.8835 19.0639 72.6383 18.8253C72.3963 18.5866 72.035 18.4673 71.5545 18.4673C71.054 18.4673 70.6596 18.5784 70.3712 18.8004C70.0862 19.0192 69.889 19.2628 69.7796 19.5312L68.3826 19.2131C68.5483 18.7491 68.7902 18.3745 69.1084 18.0895C69.4299 17.8011 69.7995 17.5923 70.2171 17.4631C70.6347 17.3305 71.0739 17.2642 71.5346 17.2642C71.8395 17.2642 72.1626 17.3007 72.504 17.3736C72.8487 17.4432 73.1702 17.5724 73.4685 17.7614C73.7701 17.9503 74.017 18.2204 74.2093 18.5717C74.4015 18.9197 74.4976 19.3722 74.4976 19.929V25H73.0459V23.956H72.9863C72.8902 24.1482 72.746 24.3371 72.5537 24.5227C72.3615 24.7083 72.1146 24.8625 71.813 24.9851C71.5114 25.1077 71.1501 25.169 70.7292 25.169ZM71.0523 23.9759C71.4633 23.9759 71.8146 23.8946 72.1063 23.7322C72.4013 23.5698 72.625 23.3577 72.7775 23.0959C72.9332 22.8307 73.0111 22.5473 73.0111 22.2457V21.2614C72.9581 21.3144 72.8554 21.3641 72.7029 21.4105C72.5537 21.4536 72.3831 21.4917 72.1908 21.5249C71.9986 21.5547 71.8113 21.5829 71.629 21.6094C71.4467 21.6326 71.2943 21.6525 71.1716 21.669C70.8833 21.7055 70.6198 21.7668 70.3812 21.853C70.1458 21.9392 69.9569 22.0634 69.8144 22.2259C69.6752 22.3849 69.6056 22.5971 69.6056 22.8622C69.6056 23.2301 69.7415 23.5085 70.0133 23.6974C70.285 23.883 70.6314 23.9759 71.0523 23.9759ZM75.1105 18.6463V17.3636H81.5537V18.6463H79.0629V25H77.6112V18.6463H75.1105ZM84.1626 22.9169L87.5284 17.3636H89.1292V25H87.6726V19.4418L84.3217 25H82.7059V17.3636H84.1626V22.9169ZM89.7607 18.6463V17.3636H96.2039V18.6463H93.7131V25H92.2614V18.6463H89.7607ZM98.4748 19.9886H100.692C101.627 19.9886 102.346 20.2206 102.85 20.6847C103.354 21.1487 103.605 21.7469 103.605 22.4794C103.605 22.9567 103.493 23.3859 103.267 23.767C103.042 24.1482 102.712 24.4498 102.278 24.6719C101.844 24.8906 101.315 25 100.692 25H97.3562V17.3636H98.8128V23.7173H100.692C101.12 23.7173 101.471 23.6063 101.746 23.3842C102.021 23.1589 102.159 22.8722 102.159 22.5241C102.159 22.1562 102.021 21.8563 101.746 21.6243C101.471 21.389 101.12 21.2713 100.692 21.2713H98.4748V19.9886ZM108.069 25.1541C107.33 25.1541 106.693 24.9867 106.16 24.652C105.629 24.3139 105.222 23.8482 104.937 23.255C104.652 22.6617 104.509 21.9822 104.509 21.2166C104.509 20.4411 104.655 19.7566 104.947 19.1634C105.238 18.5668 105.649 18.1011 106.18 17.7663C106.71 17.4316 107.335 17.2642 108.054 17.2642C108.634 17.2642 109.151 17.3719 109.605 17.5874C110.059 17.7995 110.425 18.0978 110.704 18.4822C110.985 18.8667 111.153 19.3158 111.206 19.8295H109.759C109.68 19.4716 109.497 19.1634 109.212 18.9048C108.931 18.6463 108.553 18.517 108.079 18.517C107.664 18.517 107.302 18.6264 106.99 18.8452C106.682 19.0606 106.441 19.3688 106.269 19.7699C106.097 20.1676 106.011 20.6383 106.011 21.1818C106.011 21.7386 106.095 22.2192 106.264 22.6236C106.433 23.0279 106.672 23.3411 106.98 23.5632C107.292 23.7853 107.658 23.8963 108.079 23.8963C108.36 23.8963 108.616 23.8449 108.844 23.7422C109.076 23.6361 109.27 23.4853 109.426 23.2898C109.585 23.0942 109.696 22.8589 109.759 22.5838H111.206C111.153 23.0777 110.992 23.5185 110.724 23.9062C110.455 24.294 110.096 24.599 109.645 24.821C109.197 25.0431 108.672 25.1541 108.069 25.1541ZM116.93 25V18.6314H115.1C114.666 18.6314 114.328 18.7325 114.086 18.9347C113.844 19.1368 113.723 19.402 113.723 19.7301C113.723 20.0549 113.834 20.3168 114.056 20.5156C114.281 20.7112 114.596 20.8089 115.001 20.8089H117.362V22.0121H115.001C114.437 22.0121 113.95 21.9193 113.539 21.7337C113.131 21.5447 112.816 21.2779 112.594 20.9332C112.376 20.5885 112.266 20.1809 112.266 19.7102C112.266 19.2296 112.379 18.8153 112.604 18.4673C112.833 18.116 113.159 17.8442 113.584 17.652C114.011 17.4598 114.517 17.3636 115.1 17.3636H118.327V25H116.93ZM111.918 25L114.071 21.142H115.592L113.439 25H111.918ZM123.17 25V17.3636H126.337C127.199 17.3636 127.882 17.5476 128.386 17.9155C128.889 18.2801 129.141 18.7756 129.141 19.402C129.141 19.8494 128.999 20.2041 128.714 20.4659C128.429 20.7277 128.051 20.9034 127.58 20.9929C127.921 21.0327 128.235 21.1354 128.52 21.3011C128.805 21.4635 129.033 21.6823 129.206 21.9574C129.381 22.2325 129.469 22.5606 129.469 22.9418C129.469 23.3461 129.365 23.7041 129.156 24.0156C128.947 24.3239 128.644 24.5658 128.246 24.7415C127.852 24.9138 127.376 25 126.819 25H123.17ZM124.567 23.7571H126.819C127.187 23.7571 127.476 23.6693 127.685 23.4936C127.893 23.3179 127.998 23.0793 127.998 22.7777C127.998 22.4231 127.893 22.1446 127.685 21.9425C127.476 21.737 127.187 21.6342 126.819 21.6342H124.567V23.7571ZM124.567 20.5455H126.352C126.631 20.5455 126.869 20.5057 127.068 20.4261C127.27 20.3466 127.424 20.2339 127.53 20.0881C127.64 19.9389 127.694 19.7633 127.694 19.5611C127.694 19.2661 127.573 19.0357 127.332 18.87C127.09 18.7043 126.758 18.6214 126.337 18.6214H124.567V20.5455ZM133.538 18.6463V17.3636H139.981V18.6463H137.49V25H136.038V18.6463H133.538ZM144.069 25.1541C143.316 25.1541 142.668 24.9934 142.125 24.6719C141.585 24.3471 141.167 23.8913 140.872 23.3047C140.58 22.7147 140.434 22.0237 140.434 21.2315C140.434 20.4493 140.58 19.7599 140.872 19.1634C141.167 18.5668 141.578 18.1011 142.105 17.7663C142.635 17.4316 143.255 17.2642 143.964 17.2642C144.395 17.2642 144.813 17.3355 145.217 17.478C145.621 17.6205 145.984 17.8442 146.306 18.1491C146.627 18.4541 146.881 18.8501 147.067 19.3374C147.252 19.8213 147.345 20.4096 147.345 21.1023V21.6293H141.275V20.5156H145.888C145.888 20.1245 145.809 19.7782 145.65 19.4766C145.491 19.1716 145.267 18.9313 144.978 18.7557C144.693 18.58 144.359 18.4922 143.974 18.4922C143.557 18.4922 143.192 18.5949 142.88 18.8004C142.572 19.0026 142.334 19.2678 142.165 19.5959C141.999 19.9207 141.916 20.2737 141.916 20.6548V21.5249C141.916 22.0353 142.005 22.4695 142.184 22.8274C142.367 23.1854 142.62 23.4588 142.945 23.6477C143.27 23.8333 143.649 23.9261 144.084 23.9261C144.365 23.9261 144.622 23.8864 144.854 23.8068C145.086 23.724 145.287 23.6013 145.456 23.4389C145.625 23.2765 145.754 23.076 145.844 22.8374L147.251 23.0909C147.138 23.5052 146.936 23.8681 146.644 24.1797C146.356 24.4879 145.993 24.7282 145.555 24.9006C145.121 25.0696 144.626 25.1541 144.069 25.1541ZM149.57 17.3636L151.255 20.3366L152.956 17.3636H154.581L152.2 21.1818L154.601 25H152.975L151.255 22.1463L149.54 25H147.909L150.286 21.1818L147.939 17.3636H149.57ZM156.667 25.0945C156.395 25.0945 156.161 24.9983 155.966 24.8061C155.77 24.6106 155.673 24.3752 155.673 24.1001C155.673 23.8284 155.77 23.5964 155.966 23.4041C156.161 23.2086 156.395 23.1108 156.667 23.1108C156.939 23.1108 157.172 23.2086 157.368 23.4041C157.563 23.5964 157.661 23.8284 157.661 24.1001C157.661 24.2824 157.615 24.4498 157.522 24.6023C157.433 24.7514 157.313 24.8707 157.164 24.9602C157.015 25.0497 156.849 25.0945 156.667 25.0945ZM159.232 25V17.3636H165.462V25H164.005V18.6463H160.679V25H159.232ZM170.246 25.1541C169.53 25.1541 168.905 24.9901 168.371 24.6619C167.838 24.3338 167.424 23.8748 167.129 23.2848C166.834 22.6948 166.686 22.0054 166.686 21.2166C166.686 20.4245 166.834 19.7318 167.129 19.1385C167.424 18.5452 167.838 18.0845 168.371 17.7564C168.905 17.4283 169.53 17.2642 170.246 17.2642C170.962 17.2642 171.586 17.4283 172.12 17.7564C172.654 18.0845 173.068 18.5452 173.363 19.1385C173.658 19.7318 173.805 20.4245 173.805 21.2166C173.805 22.0054 173.658 22.6948 173.363 23.2848C173.068 23.8748 172.654 24.3338 172.12 24.6619C171.586 24.9901 170.962 25.1541 170.246 25.1541ZM170.251 23.9062C170.715 23.9062 171.099 23.7836 171.404 23.5384C171.709 23.2931 171.934 22.9666 172.08 22.5589C172.229 22.1513 172.304 21.7022 172.304 21.2116C172.304 20.7244 172.229 20.277 172.08 19.8693C171.934 19.4583 171.709 19.1286 171.404 18.88C171.099 18.6314 170.715 18.5071 170.251 18.5071C169.783 18.5071 169.396 18.6314 169.087 18.88C168.782 19.1286 168.555 19.4583 168.406 19.8693C168.26 20.277 168.188 20.7244 168.188 21.2116C168.188 21.7022 168.26 22.1513 168.406 22.5589C168.555 22.9666 168.782 23.2931 169.087 23.5384C169.396 23.7836 169.783 23.9062 170.251 23.9062ZM174.299 27.2024V23.7124H174.92C175.079 23.5665 175.214 23.3925 175.323 23.1903C175.436 22.9882 175.53 22.7479 175.606 22.4695C175.686 22.1911 175.752 21.8662 175.805 21.495C175.858 21.1205 175.905 20.6929 175.945 20.2124L176.183 17.3636H181.374V23.7124H182.547V27.2024H181.095V25H175.771V27.2024H174.299ZM176.511 23.7124H179.922V18.6364H177.516L177.356 20.2124C177.28 21.0144 177.184 21.7105 177.068 22.3004C176.952 22.8871 176.767 23.3577 176.511 23.7124ZM182.834 27.2024V23.7124H183.455C183.615 23.5665 183.749 23.3925 183.858 23.1903C183.971 22.9882 184.065 22.7479 184.142 22.4695C184.221 22.1911 184.287 21.8662 184.34 21.495C184.393 21.1205 184.44 20.6929 184.48 20.2124L184.718 17.3636H189.909V23.7124H191.082V27.2024H189.63V25H184.306V27.2024H182.834ZM185.046 23.7124H188.457V18.6364H186.051L185.892 20.2124C185.815 21.0144 185.719 21.7105 185.603 22.3004C185.487 22.8871 185.302 23.3577 185.046 23.7124ZM195.406 25.1541C194.654 25.1541 194.006 24.9934 193.462 24.6719C192.922 24.3471 192.504 23.8913 192.209 23.3047C191.918 22.7147 191.772 22.0237 191.772 21.2315C191.772 20.4493 191.918 19.7599 192.209 19.1634C192.504 18.5668 192.915 18.1011 193.442 17.7663C193.973 17.4316 194.592 17.2642 195.302 17.2642C195.732 17.2642 196.15 17.3355 196.554 17.478C196.959 17.6205 197.322 17.8442 197.643 18.1491C197.965 18.4541 198.218 18.8501 198.404 19.3374C198.589 19.8213 198.682 20.4096 198.682 21.1023V21.6293H192.612V20.5156H197.226C197.226 20.1245 197.146 19.7782 196.987 19.4766C196.828 19.1716 196.604 18.9313 196.316 18.7557C196.031 18.58 195.696 18.4922 195.312 18.4922C194.894 18.4922 194.529 18.5949 194.218 18.8004C193.91 19.0026 193.671 19.2678 193.502 19.5959C193.336 19.9207 193.253 20.2737 193.253 20.6548V21.5249C193.253 22.0353 193.343 22.4695 193.522 22.8274C193.704 23.1854 193.958 23.4588 194.282 23.6477C194.607 23.8333 194.987 23.9261 195.421 23.9261C195.703 23.9261 195.96 23.8864 196.192 23.8068C196.424 23.724 196.624 23.6013 196.793 23.4389C196.962 23.2765 197.091 23.076 197.181 22.8374L198.588 23.0909C198.475 23.5052 198.273 23.8681 197.981 24.1797C197.693 24.4879 197.33 24.7282 196.893 24.9006C196.458 25.0696 195.963 25.1541 195.406 25.1541ZM199.912 27.8636V17.3636H201.363V18.6016H201.488C201.574 18.4425 201.698 18.2585 201.86 18.0497C202.023 17.8409 202.248 17.6586 202.537 17.5028C202.825 17.3438 203.206 17.2642 203.68 17.2642C204.297 17.2642 204.847 17.42 205.331 17.7315C205.815 18.0431 206.194 18.4922 206.469 19.0788C206.748 19.6655 206.887 20.3714 206.887 21.1967C206.887 22.022 206.749 22.7296 206.474 23.3196C206.199 23.9062 205.821 24.3587 205.341 24.6768C204.86 24.9917 204.311 25.1491 203.695 25.1491C203.231 25.1491 202.851 25.0713 202.557 24.9155C202.265 24.7597 202.036 24.5774 201.87 24.3686C201.705 24.1598 201.577 23.9742 201.488 23.8118H201.398V27.8636H199.912ZM201.368 21.1818C201.368 21.7187 201.446 22.1894 201.602 22.5938C201.758 22.9981 201.983 23.3146 202.278 23.5433C202.573 23.7687 202.934 23.8814 203.362 23.8814C203.806 23.8814 204.177 23.7637 204.476 23.5284C204.774 23.2898 204.999 22.9666 205.152 22.5589C205.307 22.1513 205.385 21.6922 205.385 21.1818C205.385 20.678 205.309 20.2256 205.157 19.8246C205.008 19.4235 204.782 19.107 204.481 18.875C204.182 18.643 203.809 18.527 203.362 18.527C202.931 18.527 202.566 18.638 202.268 18.8601C201.973 19.0821 201.749 19.392 201.597 19.7898C201.445 20.1875 201.368 20.6515 201.368 21.1818ZM207.344 25L210.302 21.0923L207.379 17.3636H209.109L211.471 20.5355H212.003V17.3636H213.489V20.5355H214.006L216.368 17.3636H218.098L215.189 21.0923L218.133 25H216.368L213.986 21.8182H213.489V25H212.003V21.8182H211.505L209.109 25H207.344ZM219.224 25V17.3636H220.71V20.5653H221.426L223.947 17.3636H225.786L222.828 21.0774L225.821 25H223.977L221.675 21.9474H220.71V25H219.224ZM227.537 27.8636C227.315 27.8636 227.112 27.8454 226.93 27.8089C226.748 27.7758 226.612 27.7393 226.522 27.6996L226.88 26.4815C227.152 26.5545 227.394 26.5859 227.606 26.576C227.818 26.5661 228.006 26.4865 228.168 26.3374C228.334 26.1882 228.48 25.9446 228.605 25.6065L228.789 25.0994L225.995 17.3636H227.586L229.52 23.2898H229.6L231.534 17.3636H233.13L229.983 26.0192C229.837 26.4169 229.651 26.7533 229.426 27.0284C229.2 27.3068 228.932 27.5156 228.62 27.6548C228.309 27.794 227.948 27.8636 227.537 27.8636Z" fill="#070F1A"/>
<path d="M24.75 24.4791H17.25C17.0792 24.4791 16.9375 24.3375 16.9375 24.1666C16.9375 23.9958 17.0792 23.8541 17.25 23.8541H24.75C24.9208 23.8541 25.0625 23.9958 25.0625 24.1666C25.0625 24.3375 24.9208 24.4791 24.75 24.4791Z" fill="#FF0D0D"/>
<path d="M18.3333 18.4916H17.6667C17.4375 18.4916 17.25 18.6791 17.25 18.9082V22.4999C17.25 22.7291 17.4375 22.9166 17.6667 22.9166H18.3333C18.5625 22.9166 18.75 22.7291 18.75 22.4999V18.9082C18.75 18.6749 18.5625 18.4916 18.3333 18.4916Z" fill="#FF0D0D"/>
<path d="M21.3333 17.1625H20.6667C20.4375 17.1625 20.25 17.35 20.25 17.5791V22.5C20.25 22.7291 20.4375 22.9166 20.6667 22.9166H21.3333C21.5625 22.9166 21.75 22.7291 21.75 22.5V17.5791C21.75 17.35 21.5625 17.1625 21.3333 17.1625Z" fill="#FF0D0D"/>
<path d="M24.3324 15.8334H23.6657C23.4365 15.8334 23.249 16.0209 23.249 16.25V22.5C23.249 22.7292 23.4365 22.9167 23.6657 22.9167H24.3324C24.5615 22.9167 24.749 22.7292 24.749 22.5V16.25C24.749 16.0209 24.5615 15.8334 24.3324 15.8334Z" fill="#FF0D0D"/>
</svg>
