<svg width="24" height="24" viewBox="0 0 24 24" fill="none" xmlns="http://www.w3.org/2000/svg">
<path d="M3.67644 17.1811C3.30753 17.1811 3.00159 16.8906 3.00159 16.5404V11.671C2.9566 9.35586 3.8654 7.1689 5.55703 5.52868C7.24865 3.897 9.51615 3 11.9546 3C16.9395 3 20.9976 6.85281 20.9976 11.5855V16.455C20.9976 16.8052 20.6917 17.0957 20.3228 17.0957C19.9538 17.0957 19.6479 16.8052 19.6479 16.455V11.5855C19.6479 7.56187 16.2017 4.28142 11.9546 4.28142C9.87607 4.28142 7.9505 5.04174 6.51981 6.42567C5.08013 7.81815 4.3153 9.67195 4.35129 11.6539V16.5318C4.35129 16.8906 4.05436 17.1811 3.67644 17.1811Z" fill="#070F1A"/>
<path d="M6.54717 11.8848H6.43019C4.54061 11.8848 3.00195 13.3456 3.00195 15.1396V16.7456C3.00195 18.5396 4.54061 20.0005 6.43019 20.0005H6.54717C8.43675 20.0005 9.97541 18.5396 9.97541 16.7456V15.1396C9.97541 13.3456 8.43675 11.8848 6.54717 11.8848Z" fill="#070F1A"/>
<path d="M17.5726 11.8848H17.4556C15.566 11.8848 14.0273 13.3456 14.0273 15.1396V16.7456C14.0273 18.5396 15.566 20.0005 17.4556 20.0005H17.5726C19.4621 20.0005 21.0008 18.5396 21.0008 16.7456V15.1396C21.0008 13.3456 19.4621 11.8848 17.5726 11.8848Z" fill="#070F1A"/>
</svg>
