<svg width="16" height="16" viewBox="0 0 16 16" fill="none" xmlns="http://www.w3.org/2000/svg">
<path d="M13.3663 4.5452L9.52634 1.85853C8.47967 1.1252 6.87301 1.1652 5.86634 1.9452L2.52634 4.55187C1.85967 5.07187 1.33301 6.13853 1.33301 6.97853V11.5785C1.33301 13.2785 2.71301 14.6652 4.41301 14.6652H11.5997C13.2997 14.6652 14.6797 13.2852 14.6797 11.5852V7.0652C14.6797 6.1652 14.0997 5.05853 13.3663 4.5452ZM8.50634 11.9985C8.50634 12.2719 8.27967 12.4985 8.00634 12.4985C7.73301 12.4985 7.50634 12.2719 7.50634 11.9985V9.99853C7.50634 9.7252 7.73301 9.49853 8.00634 9.49853C8.27967 9.49853 8.50634 9.7252 8.50634 9.99853V11.9985Z" fill="white"/>
</svg>
