<svg width="24" height="24" viewBox="0 0 24 24" fill="none" xmlns="http://www.w3.org/2000/svg">
<g clip-path="url(#clip0_597_498)">
<path d="M12 14.75C14.8995 14.75 17.25 16.0931 17.25 17.75C17.25 19.4069 14.8995 20.75 12 20.75C9.10051 20.75 6.75 19.4069 6.75 17.75C6.75 16.0931 9.10051 14.75 12 14.75ZM12 7.25C13.6569 7.25 15 8.59315 15 10.25C15 11.9069 13.6569 13.25 12 13.25C10.3431 13.25 9 11.9069 9 10.25C9 8.59315 10.3431 7.25 12 7.25Z" fill="#070F1A"/>
<path d="M13.3682 3.61062C12.9542 3.54313 12.534 3.50678 12.1113 3.50125C11.6887 3.49572 11.268 3.52179 10.8525 3.5784C10.5791 3.61567 10.3265 3.42406 10.2891 3.15066C10.2518 2.87715 10.4433 2.62462 10.7168 2.58719C11.1812 2.5239 11.6517 2.49508 12.124 2.50125C12.5965 2.50743 13.0666 2.54885 13.5293 2.6243C13.8016 2.66896 13.9858 2.92613 13.9414 3.19851C13.8967 3.47071 13.6405 3.65493 13.3682 3.61062ZM6.49219 5.52566C6.28192 5.7044 5.967 5.67913 5.78809 5.46902C5.60916 5.25869 5.63439 4.94287 5.84473 4.76394C6.20175 4.46026 6.58224 4.18235 6.9834 3.93289C7.38454 3.68344 7.80217 3.46545 8.23242 3.27957C8.48592 3.17006 8.78014 3.28681 8.88965 3.54031C8.99899 3.79376 8.88233 4.08806 8.62891 4.19754C8.24398 4.36384 7.87062 4.55932 7.51172 4.7825C7.15272 5.00574 6.81166 5.2539 6.49219 5.52566ZM18.3809 5.63406C18.1965 5.83941 17.8803 5.85644 17.6748 5.67215C17.3626 5.39217 17.0288 5.13416 16.6758 4.90164C16.3229 4.66923 15.9546 4.46463 15.5742 4.28836C15.3237 4.17228 15.2141 3.8748 15.3301 3.6243C15.4462 3.37379 15.7436 3.26512 15.9941 3.38113C16.4195 3.57824 16.832 3.80677 17.2266 4.06668C17.621 4.32656 17.9938 4.61508 18.3428 4.92801C18.5482 5.1124 18.5652 5.42854 18.3809 5.63406ZM3.87109 9.51687C3.79039 9.78073 3.51099 9.92929 3.24707 9.8489C2.98306 9.76824 2.83452 9.4889 2.91504 9.22488C3.05201 8.77656 3.22238 8.33687 3.42578 7.91043C3.62911 7.48415 3.8629 7.07525 4.125 6.68679C4.27946 6.45789 4.59043 6.39757 4.81934 6.55203C5.04797 6.70647 5.10828 7.01658 4.9541 7.24539C4.71949 7.59306 4.51012 7.95953 4.32813 8.34109C4.14615 8.72262 3.99363 9.11578 3.87109 9.51687ZM20.8066 10.0784C20.5407 10.1521 20.2653 9.99659 20.1914 9.73074C20.0794 9.32655 19.9366 8.92943 19.7646 8.54324C19.5927 8.15706 19.3934 7.7856 19.168 7.43191C19.0196 7.19905 19.0884 6.8899 19.3213 6.74148C19.5541 6.59331 19.8634 6.66203 20.0117 6.8948C20.2635 7.28991 20.4866 7.70465 20.6787 8.13601C20.8709 8.56763 21.0301 9.01141 21.1553 9.46316C21.229 9.72926 21.0727 10.0046 20.8066 10.0784ZM3.46777 14.9075C3.20189 14.9819 2.92601 14.8267 2.85156 14.5608C2.72525 14.1095 2.63185 13.6477 2.57324 13.179C2.51465 12.7103 2.49161 12.2393 2.50293 11.7708C2.50961 11.4947 2.73862 11.2759 3.01465 11.2825C3.29055 11.2892 3.50935 11.5184 3.50293 11.7942C3.49279 12.2135 3.513 12.6355 3.56543 13.055C3.61787 13.4743 3.70144 13.8875 3.81445 14.2913C3.88886 14.5572 3.73368 14.8331 3.46777 14.9075ZM21.0781 14.7991C20.9968 15.063 20.717 15.2115 20.4531 15.1302C20.1893 15.0488 20.0419 14.7689 20.123 14.5052C20.2466 14.1043 20.3409 13.6927 20.4043 13.2747C20.4677 12.8568 20.4992 12.4362 20.5 12.0169C20.5007 11.7409 20.7249 11.5173 21.001 11.5179C21.277 11.5184 21.5004 11.7428 21.5 12.0188C21.4991 12.4876 21.4634 12.958 21.3926 13.4251C21.3217 13.8921 21.2162 14.3512 21.0781 14.7991ZM5.40039 18.1399C5.18808 18.3165 4.87286 18.2868 4.69629 18.0745C4.39422 17.7113 4.12004 17.3278 3.87695 16.927C3.73393 16.691 3.80987 16.3837 4.0459 16.2405C4.28199 16.0974 4.58924 16.1724 4.73242 16.4085C4.94994 16.7671 5.19453 17.1108 5.46484 17.4358C5.64124 17.6481 5.61263 17.9634 5.40039 18.1399ZM19.1426 18.2639C18.9605 18.4716 18.6441 18.4919 18.4365 18.3098C18.2293 18.1277 18.2087 17.8122 18.3906 17.6048C18.6694 17.2869 18.9226 16.9498 19.1494 16.597C19.2987 16.3647 19.6086 16.2973 19.8408 16.4466C20.073 16.5959 20.1404 16.9057 19.9912 17.138C19.7377 17.5322 19.4541 17.9088 19.1426 18.2639Z" fill="#070F1A"/>
</g>
<defs>
<clipPath id="clip0_597_498">
<rect width="24" height="24" fill="white"/>
</clipPath>
</defs>
</svg>
