<svg width="24" height="24" viewBox="0 0 24 24" fill="none" xmlns="http://www.w3.org/2000/svg">
<circle cx="12" cy="12" r="8.25" stroke="#070F1A" stroke-width="1.5"/>
<path d="M11.0341 13.8881V13.8064C11.0406 13.2737 11.1006 12.8499 11.2141 12.5348C11.3309 12.2198 11.4964 11.9649 11.7105 11.7702C11.9246 11.5754 12.1825 11.3979 12.4842 11.2375C12.6788 11.1286 12.854 11.0069 13.0097 10.8723C13.1655 10.7377 13.2887 10.5831 13.3796 10.4084C13.4704 10.2337 13.5158 10.0403 13.5158 9.8284C13.5158 9.57351 13.4477 9.35298 13.3114 9.16683C13.1752 8.98067 12.9935 8.83747 12.7664 8.73723C12.5426 8.63413 12.2928 8.58258 12.017 8.58258C11.7672 8.58258 11.5288 8.6284 11.3017 8.72005C11.0746 8.81169 10.8865 8.95489 10.7372 9.14964C10.588 9.34153 10.502 9.58926 10.4793 9.89284H9C9.02271 9.37733 9.17032 8.94201 9.44282 8.58687C9.71533 8.22888 10.0754 7.95823 10.5231 7.77494C10.974 7.59165 11.472 7.5 12.017 7.5C12.6139 7.5 13.1363 7.59881 13.5839 7.79642C14.0316 7.99117 14.3788 8.26468 14.6253 8.61695C14.8751 8.96635 15 9.37446 15 9.84129C15 10.1621 14.9432 10.4513 14.8297 10.7091C14.7161 10.964 14.5539 11.1916 14.3431 11.3921C14.1354 11.5926 13.8856 11.7702 13.5937 11.9248C13.3179 12.0766 13.0941 12.2341 12.9221 12.3974C12.7534 12.5606 12.6302 12.7539 12.5523 12.9773C12.4745 13.2007 12.4323 13.4771 12.4258 13.8064V13.8881H11.0341ZM11.7689 16.5C11.5028 16.5 11.2741 16.4169 11.0827 16.2508C10.8913 16.0819 10.7956 15.8785 10.7956 15.6408C10.7956 15.406 10.8913 15.2055 11.0827 15.0394C11.2741 14.8704 11.5028 14.7859 11.7689 14.7859C12.0316 14.7859 12.2587 14.8704 12.4501 15.0394C12.6448 15.2055 12.7421 15.406 12.7421 15.6408C12.7421 15.7983 12.6967 15.943 12.6058 16.0747C12.5182 16.2036 12.4015 16.3067 12.2555 16.384C12.1095 16.4613 11.9473 16.5 11.7689 16.5Z" fill="black"/>
</svg>
