<svg width="16" height="16" viewBox="0 0 16 16" fill="none" xmlns="http://www.w3.org/2000/svg">
<path d="M10.793 1.33337H5.20634C2.77967 1.33337 1.33301 2.78004 1.33301 5.20671V10.7867C1.33301 13.22 2.77967 14.6667 5.20634 14.6667H10.7863C13.213 14.6667 14.6597 13.22 14.6597 10.7934V5.20671C14.6663 2.78004 13.2197 1.33337 10.793 1.33337ZM6.75301 9.66671C6.94634 9.86004 6.94634 10.18 6.75301 10.3734C6.65301 10.4734 6.52634 10.52 6.39967 10.52C6.27301 10.52 6.14634 10.4734 6.04634 10.3734L4.38634 8.71337C3.99301 8.32004 3.99301 7.68671 4.38634 7.29337L6.04634 5.63337C6.23967 5.44004 6.55967 5.44004 6.75301 5.63337C6.94634 5.82671 6.94634 6.14671 6.75301 6.34004L5.09301 8.00004L6.75301 9.66671ZM11.613 8.70671L9.95301 10.3667C9.85301 10.4667 9.72634 10.5134 9.59967 10.5134C9.47301 10.5134 9.34634 10.4667 9.24634 10.3667C9.05301 10.1734 9.05301 9.85337 9.24634 9.66004L10.9063 8.00004L9.24634 6.33337C9.05301 6.14004 9.05301 5.82004 9.24634 5.62671C9.43967 5.43337 9.75967 5.43337 9.95301 5.62671L11.613 7.28671C12.0063 7.68004 12.0063 8.32004 11.613 8.70671Z" fill="#B3B7B9"/>
</svg>
