<svg width="16" height="16" viewBox="0 0 16 16" fill="none" xmlns="http://www.w3.org/2000/svg">
<path d="M10.793 1.33325H5.20634C2.77967 1.33325 1.33301 2.77992 1.33301 5.20659V10.7866C1.33301 13.2199 2.77967 14.6666 5.20634 14.6666H10.7863C13.213 14.6666 14.6597 13.2199 14.6597 10.7933V5.20659C14.6663 2.77992 13.2197 1.33325 10.793 1.33325ZM7.66634 11.4999C7.66634 11.7399 7.42634 11.8999 7.20634 11.8066C6.39967 11.4599 5.34634 11.1399 4.61301 11.0466L4.48634 11.0333C4.07967 10.9799 3.74634 10.5999 3.74634 10.1866V5.05325C3.74634 4.53992 4.15967 4.15992 4.66634 4.19992C5.49967 4.26659 6.73301 4.66659 7.50634 5.10659C7.61301 5.16659 7.66634 5.27992 7.66634 5.39325V11.4999ZM12.253 10.1799C12.253 10.5933 11.9197 10.9733 11.513 11.0266L11.373 11.0399C10.6463 11.1399 9.59967 11.4533 8.79301 11.7933C8.57301 11.8866 8.33301 11.7266 8.33301 11.4866V5.38659C8.33301 5.26659 8.39301 5.15325 8.49967 5.09325C9.27301 4.65992 10.4797 4.27325 11.2997 4.19992H11.3263C11.8397 4.19992 12.253 4.61325 12.253 5.12659V10.1799Z" fill="white"/>
</svg>
