<svg width="13" height="14" viewBox="0 0 13 14" fill="none" xmlns="http://www.w3.org/2000/svg">
<path d="M10.5931 2.00607C10.5827 2.00523 10.574 1.99982 10.5631 1.99982H6.08398C5.39482 1.99982 4.83398 2.56065 4.83398 3.24982V3.66646C4.83398 3.89648 5.0206 4.08318 5.25063 4.08318C5.48065 4.08318 5.66727 3.89648 5.66727 3.66646V3.24982C5.66727 3.02025 5.85434 2.83318 6.08398 2.83318H8.02521L7.8981 2.87567C7.56065 2.99232 7.33398 3.31024 7.33398 3.66646V9.91646H6.08398C5.85434 9.91646 5.66727 9.72939 5.66727 9.49982V8.66646C5.66727 8.43651 5.48065 8.24982 5.25063 8.24982C5.0206 8.24982 4.83398 8.43651 4.83398 8.66646V9.49982C4.83398 10.189 5.39482 10.7498 6.08398 10.7498H7.33398V11.1665C7.33398 11.6261 7.70767 11.9998 8.16727 11.9998C8.25645 11.9998 8.34106 11.9869 8.43269 11.9585L10.9361 11.124C11.274 11.0073 11.5006 10.6894 11.5006 10.3332V2.83318C11.5006 2.34734 11.0818 1.96648 10.5931 2.00607V2.00607Z" fill="#6C7275"/>
<path d="M5.96121 5.87188L4.29457 4.20524C4.1754 4.08607 3.99626 4.05021 3.84039 4.11483C3.68498 4.17938 3.58336 4.33151 3.58336 4.49981V5.74981H1.91664C1.68669 5.74981 1.5 5.9365 1.5 6.16645C1.5 6.39648 1.68669 6.58317 1.91664 6.58317H3.58336V7.83317C3.58336 8.00148 3.68498 8.15353 3.84039 8.21815C3.99626 8.2827 4.1754 8.24691 4.29457 8.12774L5.96121 6.46103C6.12418 6.29814 6.12418 6.03485 5.96121 5.87188Z" fill="#6C7275"/>
</svg>
