<svg width="16" height="16" viewBox="0 0 16 16" fill="none" xmlns="http://www.w3.org/2000/svg">
<path d="M13.3997 6.14667C12.193 6.14667 11.6997 5.29333 12.2997 4.24667C12.6463 3.64 12.4397 2.86667 11.833 2.52L10.6797 1.86C10.153 1.54666 9.47301 1.73333 9.15967 2.26L9.08634 2.38666C8.48634 3.43333 7.49967 3.43333 6.89301 2.38666L6.81967 2.26C6.51967 1.73333 5.83967 1.54666 5.31301 1.86L4.15967 2.52C3.55301 2.86667 3.34634 3.64667 3.69301 4.25333C4.29967 5.29333 3.80634 6.14667 2.59967 6.14667C1.90634 6.14667 1.33301 6.71333 1.33301 7.41333V8.58667C1.33301 9.28 1.89967 9.85333 2.59967 9.85333C3.80634 9.85333 4.29967 10.7067 3.69301 11.7533C3.34634 12.36 3.55301 13.1333 4.15967 13.48L5.31301 14.14C5.83967 14.4533 6.51967 14.2667 6.83301 13.74L6.90634 13.6133C7.50634 12.5667 8.49301 12.5667 9.09967 13.6133L9.17301 13.74C9.48634 14.2667 10.1663 14.4533 10.693 14.14L11.8463 13.48C12.453 13.1333 12.6597 12.3533 12.313 11.7533C11.7063 10.7067 12.1997 9.85333 13.4063 9.85333C14.0997 9.85333 14.673 9.28667 14.673 8.58667V7.41333C14.6663 6.72 14.0997 6.14667 13.3997 6.14667ZM7.99967 10.1667C6.80634 10.1667 5.83301 9.19333 5.83301 8C5.83301 6.80666 6.80634 5.83333 7.99967 5.83333C9.19301 5.83333 10.1663 6.80666 10.1663 8C10.1663 9.19333 9.19301 10.1667 7.99967 10.1667Z" fill="white"/>
</svg>
