<svg width="13" height="13" viewBox="0 0 13 13" fill="none" xmlns="http://www.w3.org/2000/svg">
<path d="M11.3696 5.25959C11.1854 5.18376 10.9417 5.14584 10.6383 5.14584H7.77833C6.83583 5.14584 6.5 5.48168 6.5 6.43501V10.6275C6.5 10.9417 6.53792 11.1854 6.61917 11.375C6.78708 11.765 7.14458 11.9167 7.77833 11.9167H10.6383C11.5808 11.9167 11.9167 11.5754 11.9167 10.6275V6.43501C11.9167 5.79043 11.765 5.42751 11.3696 5.25959ZM9.75 10.6979H8.66667C8.65583 10.6979 8.63958 10.6979 8.62875 10.6925C8.5475 10.6871 8.47708 10.66 8.4175 10.6058C8.32 10.5354 8.26042 10.4217 8.26042 10.2917C8.26042 10.0696 8.44458 9.88543 8.66667 9.88543H9.75C9.97208 9.88543 10.1562 10.0696 10.1562 10.2917C10.1562 10.5138 9.97208 10.6979 9.75 10.6979Z" fill="#8E8E93"/>
<path d="M11.3746 3.35293V3.79168C11.3746 4.08959 11.1308 4.33334 10.8329 4.33334H7.78333C6.39667 4.33334 5.6925 5.04293 5.6925 6.43501V11.375C5.6925 11.6729 5.44875 11.9167 5.15083 11.9167H4.09458C3.87792 11.9167 3.70458 11.7433 3.70458 11.5321C3.70458 11.3154 3.87792 11.1475 4.09458 11.1475H5.15083V9.07293H3.255C2.0525 9.01334 1.09375 8.02209 1.09375 6.80334V3.35293C1.09375 2.10168 2.11208 1.08334 3.36875 1.08334H9.105C10.3562 1.08334 11.3746 2.10168 11.3746 3.35293Z" fill="#8E8E93"/>
</svg>
