<svg width="16" height="16" viewBox="0 0 16 16" fill="none" xmlns="http://www.w3.org/2000/svg">
<path d="M13.9997 5.01337V8.93337C13.9997 9.16004 13.7797 9.32004 13.5663 9.25337L10.9463 8.44004C10.2263 8.22004 9.45301 8.40671 8.92634 8.93337C8.39301 9.46671 8.19967 10.2467 8.42634 10.9667L9.23301 13.5667C9.29967 13.78 9.13967 14 8.91301 14H5.01301C2.71301 14 1.33301 12.6267 1.33301 10.32V5.01337C1.33301 2.70671 2.71301 1.33337 5.01301 1.33337H10.3197C12.6197 1.33337 13.9997 2.70671 13.9997 5.01337Z" fill="white"/>
<path d="M14.6398 12.56L13.5531 12.9267C13.2531 13.0267 13.0131 13.26 12.9131 13.5667L12.5465 14.6533C12.2331 15.5933 10.9131 15.5733 10.6198 14.6333L9.38646 10.6667C9.14646 9.87999 9.87312 9.14666 10.6531 9.39333L14.6265 10.6267C15.5598 10.92 15.5731 12.2467 14.6398 12.56Z" fill="white"/>
</svg>
