<svg width="24" height="24" viewBox="0 0 24 24" fill="none" xmlns="http://www.w3.org/2000/svg">
<path d="M19.0698 19.82C18.8798 19.82 18.6898 19.75 18.5398 19.6C18.2498 19.31 18.2498 18.83 18.5398 18.54C22.1498 14.93 22.1498 9.06 18.5398 5.46C18.2498 5.17 18.2498 4.69 18.5398 4.4C18.8298 4.11 19.3098 4.11 19.5998 4.4C23.7898 8.59 23.7898 15.41 19.5998 19.6C19.4498 19.75 19.2598 19.82 19.0698 19.82Z" fill="#B3B7B9"/>
<path d="M4.93031 19.82C4.74031 19.82 4.55031 19.75 4.40031 19.6C0.210312 15.41 0.210312 8.59 4.40031 4.4C4.69031 4.11 5.17031 4.11 5.46031 4.4C5.75031 4.69 5.75031 5.17 5.46031 5.46C1.85031 9.07 1.85031 14.94 5.46031 18.54C5.75031 18.83 5.75031 19.31 5.46031 19.6C5.31031 19.75 5.12031 19.82 4.93031 19.82Z" fill="#B3B7B9"/>
<path d="M12.0007 22.71C10.7507 22.7 9.56074 22.5 8.45074 22.11C8.06074 21.97 7.85074 21.54 7.99074 21.15C8.13074 20.76 8.55074 20.55 8.95074 20.69C9.91074 21.02 10.9307 21.2 12.0107 21.2C13.0807 21.2 14.1107 21.02 15.0607 20.69C15.4507 20.56 15.8807 20.76 16.0207 21.15C16.1607 21.54 15.9507 21.97 15.5607 22.11C14.4407 22.5 13.2507 22.71 12.0007 22.71Z" fill="#B3B7B9"/>
<path d="M15.3007 3.34C15.2207 3.34 15.1307 3.33 15.0507 3.3C14.1007 2.96 13.0707 2.79 12.0007 2.79C10.9307 2.79 9.91074 2.97 8.95074 3.3C8.55074 3.43 8.13074 3.23 7.99074 2.84C7.85074 2.45 8.06074 2.02 8.45074 1.88C9.57074 1.49 10.7607 1.29 12.0007 1.29C13.2407 1.29 14.4407 1.49 15.5507 1.88C15.9407 2.02 16.1507 2.45 16.0107 2.84C15.9007 3.15 15.6107 3.34 15.3007 3.34Z" fill="#B3B7B9"/>
</svg>
