<svg width="20" height="20" viewBox="0 0 20 20" fill="none" xmlns="http://www.w3.org/2000/svg">
<path d="M10 0.500244C15.2467 0.500244 19.5 4.75354 19.5 10.0002C19.5 15.2469 15.2467 19.5002 10 19.5002C4.75329 19.5002 0.5 15.2469 0.5 10.0002C0.5 4.75354 4.75329 0.500244 10 0.500244ZM10.5312 5.18384C10.2567 4.90956 9.82182 4.89203 9.52734 5.13208L9.4707 5.18384L6.04199 8.61255C5.74926 8.90535 5.7494 9.3802 6.04199 9.6731C6.33487 9.9659 6.80966 9.9659 7.10254 9.6731L9.25098 7.52466V14.2854C9.25098 14.6996 9.58683 15.0353 10.001 15.0354C10.4151 15.0353 10.751 14.6996 10.751 14.2854V7.52466L12.8994 9.6731C13.1923 9.96578 13.6671 9.96592 13.96 9.6731C14.2526 9.38026 14.2526 8.90539 13.96 8.61255L10.5312 5.18384Z" fill="#0084FF"/>
</svg>
