<svg width="13" height="13" viewBox="0 0 13 13" fill="none" xmlns="http://www.w3.org/2000/svg">
<path d="M9.20703 1.89584H3.79036C2.16536 1.89584 1.08203 2.70834 1.08203 4.60418V8.39584C1.08203 10.2917 2.16536 11.1042 3.79036 11.1042H9.20703C10.832 11.1042 11.9154 10.2917 11.9154 8.39584V4.60418C11.9154 2.70834 10.832 1.89584 9.20703 1.89584ZM9.46161 5.19459L7.7662 6.54876C7.4087 6.83584 6.9537 6.97668 6.4987 6.97668C6.0437 6.97668 5.58328 6.83584 5.2312 6.54876L3.53578 5.19459C3.36245 5.05376 3.33536 4.79376 3.47078 4.62043C3.61161 4.44709 3.8662 4.41459 4.03953 4.55543L5.73495 5.90959C6.14661 6.24001 6.84536 6.24001 7.25703 5.90959L8.95245 4.55543C9.12578 4.41459 9.38578 4.44168 9.5212 4.62043C9.66203 4.79376 9.63495 5.05376 9.46161 5.19459Z" fill="#8E8E93"/>
</svg>
