<svg width="24" height="24" viewBox="0 0 24 24" fill="none" xmlns="http://www.w3.org/2000/svg">
<path d="M4 20H3.25V20.75H4V20ZM4.75 4V3.25H3.25V4H4H4.75ZM20 20.75H20.75V19.25H20V20V20.75ZM7.46967 13.4698C7.17678 13.7627 7.17678 14.2375 7.46967 14.5304C7.76256 14.8233 8.23744 14.8233 8.53033 14.5304L8 14.0001L7.46967 13.4698ZM11.5 10.5001L12.0303 9.96977C11.7374 9.67688 11.2626 9.67688 10.9697 9.96977L11.5 10.5001ZM14 13.0001L13.4697 13.5304C13.7626 13.8233 14.2374 13.8233 14.5303 13.5304L14 13.0001ZM20.0303 8.03044C20.3232 7.73754 20.3232 7.26267 20.0303 6.96978C19.7374 6.67688 19.2626 6.67688 18.9697 6.96978L19.5 7.50011L20.0303 8.03044ZM15.7581 6.25C15.3439 6.25 15.0081 6.58579 15.0081 7C15.0081 7.41421 15.3439 7.75 15.7581 7.75V7V6.25ZM20.0008 7H20.7508C20.7508 6.58579 20.415 6.25 20.0008 6.25V7ZM19.2508 11.2426C19.2508 11.6569 19.5865 11.9926 20.0008 11.9926C20.415 11.9926 20.7508 11.6569 20.7508 11.2426H20.0008H19.2508ZM4 20H4.75V4H4H3.25V20H4ZM4 20V20.75H20V20V19.25H4V20ZM8 14.0001L8.53033 14.5304L12.0303 11.0304L11.5 10.5001L10.9697 9.96977L7.46967 13.4698L8 14.0001ZM11.5 10.5001L10.9697 11.0304L13.4697 13.5304L14 13.0001L14.5303 12.4698L12.0303 9.96977L11.5 10.5001ZM14 13.0001L14.5303 13.5304L20.0303 8.03044L19.5 7.50011L18.9697 6.96978L13.4697 12.4698L14 13.0001ZM15.7581 7V7.75H20.0008V7V6.25H15.7581V7ZM20.0008 7H19.2508V11.2426H20.0008H20.7508V7H20.0008Z" fill="#070F1A"/>
</svg>
