<svg width="24" height="24" viewBox="0 0 24 24" fill="none" xmlns="http://www.w3.org/2000/svg">
<path d="M20.25 12C20.25 7.44365 16.5563 3.75 12 3.75C7.44365 3.75 3.75 7.44365 3.75 12C3.75 16.5563 7.44365 20.25 12 20.25C16.5563 20.25 20.25 16.5563 20.25 12ZM21.75 12C21.75 17.3848 17.3848 21.75 12 21.75C6.61522 21.75 2.25 17.3848 2.25 12C2.25 6.61522 6.61522 2.25 12 2.25C17.3848 2.25 21.75 6.61522 21.75 12Z" fill="black"/>
<path d="M11.5 6C11.5 5.44772 11.9495 4.99353 12.4975 5.06216C14.1184 5.26514 15.634 5.95891 16.8033 7.05025C18.2098 8.36301 19 10.1435 19 12C19 13.8565 18.2098 15.637 16.8033 16.9497C15.634 18.0411 14.1184 18.7349 12.4975 18.9378C11.9495 19.0065 11.5 18.5523 11.5 18L11.5 12L11.5 6Z" fill="black"/>
</svg>
