<svg width="24" height="24" viewBox="0 0 24 24" fill="none" xmlns="http://www.w3.org/2000/svg">
<path fill-rule="evenodd" clip-rule="evenodd" d="M5.79342 8.17472C6.28697 8.1158 6.73483 8.46815 6.79374 8.9617L7.68361 16.4167C7.80581 17.4405 7.88904 18.1232 8.01614 18.6298C8.13703 19.1115 8.27143 19.3175 8.42272 19.4518C8.57401 19.5861 8.79447 19.6951 9.28716 19.7581C9.80519 19.8242 10.493 19.826 11.524 19.826H12.6065C13.6375 19.826 14.3253 19.8242 14.8434 19.7581C15.336 19.6951 15.5565 19.5861 15.7078 19.4518C15.8591 19.3175 15.9935 19.1115 16.1144 18.6298C16.2415 18.1232 16.3247 17.4405 16.4469 16.4167L17.3368 8.9617C17.3957 8.46815 17.8435 8.1158 18.3371 8.17472C18.8306 8.23363 19.183 8.68149 19.1241 9.17504L18.2274 16.6875C18.1139 17.6386 18.0186 18.4366 17.8602 19.0678C17.6925 19.7365 17.4286 20.3311 16.9028 20.7979C16.3769 21.2647 15.7552 21.4562 15.0714 21.5436C14.4259 21.626 13.6223 21.626 12.6644 21.626H11.4662C10.5083 21.626 9.70461 21.626 9.05909 21.5436C8.37528 21.4562 7.75357 21.2647 7.22773 20.7979C6.70189 20.3311 6.43804 19.7365 6.27026 19.0678C6.11188 18.4366 6.01666 17.6386 5.90316 16.6875L5.00643 9.17504C4.94752 8.68149 5.29986 8.23363 5.79342 8.17472Z" fill="#FF0D0D"/>
<path d="M16.3378 5.99976H12H7.66222M5 5.99976H19.1145M9.375 2.99976H14.625" stroke="#FF0D0D" stroke-width="2" stroke-linecap="round"/>
</svg>
