<svg width="110" height="25" viewBox="0 0 110 25" fill="none" xmlns="http://www.w3.org/2000/svg">
<path d="M103.283 19.3976C101.877 19.3976 100.662 19.1113 99.6384 18.5385C98.6317 17.9658 97.8507 17.1501 97.2953 16.0914C96.7573 15.0327 96.4883 13.7917 96.4883 12.3685C96.4883 10.928 96.766 9.68707 97.3214 8.64572C97.8767 7.58701 98.6578 6.76261 99.6644 6.17251C100.671 5.58242 101.877 5.28737 103.283 5.28737C104.672 5.28737 105.869 5.58242 106.876 6.17251C107.882 6.76261 108.655 7.59569 109.193 8.67175C109.731 9.73045 110 10.9801 110 12.4206C110 13.8264 109.731 15.0587 109.193 16.1174C108.672 17.1587 107.908 17.9658 106.902 18.5385C105.895 19.1113 104.689 19.3976 103.283 19.3976ZM103.257 16.5079C104.125 16.5079 104.819 16.317 105.34 15.9352C105.878 15.5533 106.268 15.05 106.511 14.4252C106.754 13.8004 106.876 13.1235 106.876 12.3946C106.876 11.6656 106.754 10.9801 106.511 10.3379C106.268 9.69574 105.878 9.18375 105.34 8.80192C104.819 8.40274 104.125 8.20314 103.257 8.20314C102.389 8.20314 101.686 8.40274 101.148 8.80192C100.61 9.18375 100.22 9.69574 99.9768 10.3379C99.7338 10.9627 99.6123 11.6483 99.6123 12.3946C99.6123 13.1235 99.7338 13.8091 99.9768 14.4512C100.237 15.076 100.628 15.5794 101.148 15.9612C101.686 16.3257 102.389 16.5079 103.257 16.5079Z" fill="#070F1A"/>
<path d="M92.2415 19.3716C90.7316 19.3716 89.6295 18.955 88.9352 18.122C88.241 17.2889 87.8939 16.1347 87.8939 14.6595V8.30725H85.7852V5.4956H87.8939V1.64262H91.07V5.4956H95.2354V8.30725H91.07V14.0607C91.07 14.5119 91.1221 14.9198 91.2262 15.2843C91.3303 15.6488 91.5212 15.9351 91.7989 16.1434C92.0766 16.3517 92.4585 16.4645 92.9444 16.4818C93.361 16.4818 93.7168 16.4124 94.0118 16.2736C94.3069 16.1347 94.5498 15.9785 94.7408 15.805L95.8081 18.2261C95.4784 18.5038 95.1052 18.7294 94.6887 18.903C94.2895 19.0765 93.8816 19.198 93.4651 19.2674C93.0486 19.3369 92.6407 19.3716 92.2415 19.3716Z" fill="#070F1A"/>
<path d="M71.2285 24.2659V5.49564H74.1964L74.3526 7.34403C74.8906 6.63244 75.5328 6.11177 76.2791 5.78201C77.0254 5.45225 77.8498 5.28737 78.7523 5.28737C80.106 5.28737 81.2255 5.59977 82.1106 6.22458C82.9958 6.84939 83.6553 7.69115 84.0892 8.74985C84.5231 9.80856 84.74 11.0061 84.74 12.3425C84.74 13.6789 84.5144 14.8851 84.0631 15.9612C83.6119 17.0199 82.9263 17.8617 82.0065 18.4865C81.104 19.0939 79.9672 19.3976 78.5961 19.3976C77.9539 19.3976 77.3638 19.3282 76.8258 19.1894C76.3051 19.0505 75.8365 18.8509 75.4199 18.5906C75.0208 18.3303 74.6823 18.0352 74.4046 17.7054V24.2659H71.2285ZM78.1014 16.5339C78.9866 16.5339 79.6808 16.343 80.1841 15.9612C80.6874 15.562 81.0519 15.05 81.2775 14.4252C81.5032 13.783 81.616 13.1062 81.616 12.3946C81.616 11.6483 81.4945 10.954 81.2515 10.3119C81.0259 9.66971 80.6527 9.14904 80.132 8.74985C79.6114 8.35067 78.9171 8.15108 78.0494 8.15108C77.251 8.15108 76.5741 8.35067 76.0187 8.74985C75.4807 9.13168 75.0728 9.64368 74.7951 10.2858C74.5174 10.928 74.3786 11.6222 74.3786 12.3685C74.3786 13.1322 74.5088 13.8351 74.7691 14.4773C75.0294 15.1021 75.4373 15.6054 75.9927 15.9872C76.5481 16.3517 77.251 16.5339 78.1014 16.5339Z" fill="#070F1A"/>
<path d="M61.4536 19.3976C60.8114 19.3976 60.204 19.3109 59.6312 19.1373C59.0585 18.9637 58.5465 18.7121 58.0953 18.3823C57.644 18.0352 57.2795 17.61 57.0018 17.1067C56.7415 16.586 56.6113 15.9785 56.6113 15.2843C56.6113 14.3992 56.7849 13.6789 57.132 13.1235C57.4791 12.5508 57.9477 12.1169 58.5378 11.8218C59.1453 11.5268 59.8308 11.3272 60.5945 11.2231C61.3581 11.1016 62.1565 11.0408 62.9896 11.0408H65.6711C65.6711 10.4334 65.5756 9.91269 65.3847 9.4788C65.1938 9.02755 64.89 8.67175 64.4735 8.41141C64.0743 8.15108 63.5537 8.02091 62.9115 8.02091C62.4949 8.02091 62.1044 8.07298 61.74 8.17711C61.3929 8.26389 61.0891 8.41141 60.8288 8.61968C60.5858 8.8106 60.4123 9.06226 60.3081 9.37466H57.0539C57.1754 8.66307 57.4184 8.05562 57.7828 7.5523C58.1647 7.03163 58.6246 6.60641 59.1626 6.27665C59.718 5.94689 60.3255 5.70391 60.985 5.54771C61.6445 5.37415 62.3127 5.28737 62.9896 5.28737C64.9855 5.28737 66.4347 5.86011 67.3372 7.00559C68.2571 8.15108 68.717 9.75649 68.717 11.8218V19.2154H65.9054L65.8273 17.4451C65.4281 18.0352 64.9508 18.4691 64.3954 18.7468C63.84 19.0245 63.302 19.198 62.7813 19.2675C62.2606 19.3542 61.8181 19.3976 61.4536 19.3976ZM62.0784 16.8203C62.7726 16.8203 63.3888 16.6901 63.9268 16.4298C64.4648 16.1695 64.89 15.805 65.2025 15.3364C65.5322 14.8678 65.6971 14.3297 65.6971 13.7223V13.2797H63.1979C62.7813 13.2797 62.3648 13.2971 61.9482 13.3318C61.5491 13.3491 61.1846 13.4186 60.8548 13.5401C60.5251 13.6442 60.256 13.8091 60.0478 14.0347C59.8569 14.2603 59.7614 14.5814 59.7614 14.9979C59.7614 15.4145 59.8655 15.7529 60.0738 16.0133C60.2994 16.2736 60.5858 16.4732 60.9329 16.612C61.2974 16.7509 61.6792 16.8203 62.0784 16.8203Z" fill="#070F1A"/>
<path d="M47.1042 19.3977C45.7158 19.3977 44.5703 19.0853 43.6678 18.4605C42.7653 17.8183 42.0884 16.9679 41.6372 15.9092C41.2033 14.8504 40.9863 13.6703 40.9863 12.3686C40.9863 11.0148 41.2206 9.80858 41.6892 8.74988C42.1578 7.67382 42.8608 6.83206 43.798 6.22461C44.7352 5.5998 45.9067 5.2874 47.3125 5.2874C47.8332 5.2874 48.3365 5.34814 48.8225 5.46963C49.3258 5.57377 49.7944 5.74733 50.2283 5.99031C50.6795 6.21593 51.0527 6.51966 51.3477 6.90149V0.809601H54.5239V19.2154H51.4519L51.3998 17.4972C51.0701 17.9311 50.6795 18.2869 50.2283 18.5646C49.7944 18.8423 49.3084 19.0506 48.7704 19.1894C48.2324 19.3282 47.677 19.3977 47.1042 19.3977ZM47.703 16.534C48.5361 16.534 49.2217 16.343 49.7597 15.9612C50.2977 15.562 50.6969 15.0414 50.9572 14.3992C51.2349 13.7397 51.3738 13.0454 51.3738 12.3165C51.3738 11.5528 51.2349 10.8586 50.9572 10.2338C50.6969 9.60899 50.2977 9.10568 49.7597 8.72385C49.2217 8.34202 48.5361 8.15111 47.703 8.15111C46.8179 8.15111 46.115 8.3507 45.5943 8.74988C45.091 9.14906 44.7178 9.67842 44.4748 10.3379C44.2492 10.9801 44.1364 11.6743 44.1364 12.4206C44.1364 12.976 44.1972 13.5054 44.3186 14.0087C44.4575 14.4947 44.6658 14.9285 44.9435 15.3104C45.2211 15.6922 45.5856 15.9959 46.0369 16.2216C46.4881 16.4298 47.0435 16.534 47.703 16.534Z" fill="#070F1A"/>
<path d="M22.418 19.2154L29.4731 0.809586H33.3521L40.3812 19.2154H36.8667L35.6431 15.805H27.1561L25.9065 19.2154H22.418ZM28.1975 12.8632H34.5757L31.3996 4.08983L28.1975 12.8632Z" fill="#070F1A"/>
<path d="M12.7069 -2.28882e-05C12.834 3.54051 15.6748 6.38133 19.2154 6.50841C15.6748 6.63548 12.834 9.4763 12.7069 13.0168C12.5799 9.4763 9.73904 6.63548 6.1985 6.50841C9.73904 6.38133 12.5799 3.54051 12.7069 -2.28882e-05Z" fill="url(#paint0_linear_286_95)"/>
<path d="M12.7069 -2.28882e-05C12.834 3.54051 15.6748 6.38133 19.2154 6.50841C15.6748 6.63548 12.834 9.4763 12.7069 13.0168C12.5799 9.4763 9.73904 6.63548 6.1985 6.50841C9.73904 6.38133 12.5799 3.54051 12.7069 -2.28882e-05Z" fill="url(#paint1_linear_286_95)"/>
<path d="M12.7069 -2.28882e-05C12.834 3.54051 15.6748 6.38133 19.2154 6.50841C15.6748 6.63548 12.834 9.4763 12.7069 13.0168C12.5799 9.4763 9.73904 6.63548 6.1985 6.50841C9.73904 6.38133 12.5799 3.54051 12.7069 -2.28882e-05Z" fill="#070F1A"/>
<path d="M12.7069 -2.28882e-05C12.834 3.54051 15.6748 6.38133 19.2154 6.50841C15.6748 6.63548 12.834 9.4763 12.7069 13.0168C12.5799 9.4763 9.73904 6.63548 6.1985 6.50841C9.73904 6.38133 12.5799 3.54051 12.7069 -2.28882e-05Z" fill="url(#paint2_linear_286_95)"/>
<path d="M0 13.9466C0 11.0368 2.35889 8.67788 5.26873 8.67788C8.17857 8.67788 10.5375 11.0368 10.5375 13.9466C10.5375 16.8564 8.17857 19.2153 5.26873 19.2153H0V13.9466Z" fill="url(#paint3_linear_286_95)"/>
<path d="M0 13.9466C0 11.0368 2.35889 8.67788 5.26873 8.67788C8.17857 8.67788 10.5375 11.0368 10.5375 13.9466C10.5375 16.8564 8.17857 19.2153 5.26873 19.2153H0V13.9466Z" fill="url(#paint4_linear_286_95)"/>
<path d="M0 13.9466C0 11.0368 2.35889 8.67788 5.26873 8.67788C8.17857 8.67788 10.5375 11.0368 10.5375 13.9466C10.5375 16.8564 8.17857 19.2153 5.26873 19.2153H0V13.9466Z" fill="#070F1A"/>
<path d="M0 13.9466C0 11.0368 2.35889 8.67788 5.26873 8.67788C8.17857 8.67788 10.5375 11.0368 10.5375 13.9466C10.5375 16.8564 8.17857 19.2153 5.26873 19.2153H0V13.9466Z" fill="url(#paint5_linear_286_95)"/>
<defs>
<linearGradient id="paint0_linear_286_95" x1="17.3558" y1="6.81833" x2="-7.38919e-07" y2="19.2153" gradientUnits="userSpaceOnUse">
<stop stop-color="#5BE5F7"/>
<stop offset="0.211538" stop-color="#4576EE"/>
<stop offset="0.427885" stop-color="#60268A"/>
<stop offset="0.826923" stop-color="#C158E3"/>
<stop offset="1" stop-color="#D34ED7"/>
</linearGradient>
<linearGradient id="paint1_linear_286_95" x1="17.0459" y1="0.929752" x2="-5.81899e-07" y2="19.2153" gradientUnits="userSpaceOnUse">
<stop stop-color="#FFDFB9"/>
<stop offset="0.3769" stop-color="#A5C5FF"/>
<stop offset="0.389423" stop-color="#B0C8FF"/>
<stop offset="0.669324" stop-color="#52AEFF"/>
<stop offset="1" stop-color="#0084FF"/>
</linearGradient>
<linearGradient id="paint2_linear_286_95" x1="19.2154" y1="-2.40308e-05" x2="-0.434431" y2="0.455004" gradientUnits="userSpaceOnUse">
<stop offset="0.0001" stop-color="#52AEFF"/>
<stop offset="1" stop-color="#0084FF"/>
</linearGradient>
<linearGradient id="paint3_linear_286_95" x1="17.3558" y1="6.81833" x2="-7.38919e-07" y2="19.2153" gradientUnits="userSpaceOnUse">
<stop stop-color="#5BE5F7"/>
<stop offset="0.211538" stop-color="#4576EE"/>
<stop offset="0.427885" stop-color="#60268A"/>
<stop offset="0.826923" stop-color="#C158E3"/>
<stop offset="1" stop-color="#D34ED7"/>
</linearGradient>
<linearGradient id="paint4_linear_286_95" x1="17.0459" y1="0.929752" x2="-5.81899e-07" y2="19.2153" gradientUnits="userSpaceOnUse">
<stop stop-color="#FFDFB9"/>
<stop offset="0.3769" stop-color="#A5C5FF"/>
<stop offset="0.389423" stop-color="#B0C8FF"/>
<stop offset="0.669324" stop-color="#52AEFF"/>
<stop offset="1" stop-color="#0084FF"/>
</linearGradient>
<linearGradient id="paint5_linear_286_95" x1="19.2154" y1="-2.40308e-05" x2="-0.434431" y2="0.455004" gradientUnits="userSpaceOnUse">
<stop offset="0.0001" stop-color="#52AEFF"/>
<stop offset="1" stop-color="#0084FF"/>
</linearGradient>
</defs>
</svg>
